%TF.GenerationSoftware,KiCad,Pcbnew,10.0.4*%
%TF.CreationDate,2026-07-16T16:17:47+02:00*%
%TF.ProjectId,HBDV3,48424456-332e-46b6-9963-61645f706362,rev?*%
%TF.SameCoordinates,Original*%
%TF.FileFunction,Soldermask,Bot*%
%TF.FilePolarity,Negative*%
%FSLAX46Y46*%
G04 Gerber Fmt 4.6, Leading zero omitted, Abs format (unit mm)*
G04 Created by KiCad (PCBNEW 10.0.4) date 2026-07-16 16:17:47*
%MOMM*%
%LPD*%
G01*
G04 APERTURE LIST*
G04 Aperture macros list*
%AMRoundRect*
0 Rectangle with rounded corners*
0 $1 Rounding radius*
0 $2 $3 $4 $5 $6 $7 $8 $9 X,Y pos of 4 corners*
0 Add a 4 corners polygon primitive as box body*
4,1,4,$2,$3,$4,$5,$6,$7,$8,$9,$2,$3,0*
0 Add four circle primitives for the rounded corners*
1,1,$1+$1,$2,$3*
1,1,$1+$1,$4,$5*
1,1,$1+$1,$6,$7*
1,1,$1+$1,$8,$9*
0 Add four rect primitives between the rounded corners*
20,1,$1+$1,$2,$3,$4,$5,0*
20,1,$1+$1,$4,$5,$6,$7,0*
20,1,$1+$1,$6,$7,$8,$9,0*
20,1,$1+$1,$8,$9,$2,$3,0*%
G04 Aperture macros list end*
%ADD10C,1.734000*%
%ADD11C,2.154000*%
%ADD12C,3.200000*%
%ADD13C,1.400000*%
%ADD14C,4.300000*%
%ADD15C,1.950000*%
%ADD16RoundRect,0.250000X-0.550000X-0.550000X0.550000X-0.550000X0.550000X0.550000X-0.550000X0.550000X0*%
%ADD17C,1.600000*%
%ADD18RoundRect,0.250000X0.550000X0.550000X-0.550000X0.550000X-0.550000X-0.550000X0.550000X-0.550000X0*%
G04 APERTURE END LIST*
D10*
%TO.C,U1*%
X172040000Y-88250000D03*
X169500000Y-88250000D03*
X179660000Y-67250000D03*
X177120000Y-67250000D03*
X174580000Y-67250000D03*
X172040000Y-67250000D03*
X169500000Y-67250000D03*
X166960000Y-67250000D03*
X164420000Y-67250000D03*
X161880000Y-67250000D03*
X161880000Y-88250000D03*
X164420000Y-88250000D03*
X166960000Y-88250000D03*
X174580000Y-88250000D03*
X177120000Y-88250000D03*
X179660000Y-88250000D03*
%TD*%
D11*
%TO.C,J6*%
X190000000Y-58750000D03*
X185000000Y-58750000D03*
X180000000Y-58750000D03*
X175000000Y-58750000D03*
%TD*%
D12*
%TO.C,J2*%
X148430000Y-77220000D03*
X148430000Y-89920000D03*
D13*
X152750000Y-80000000D03*
X150970000Y-81020000D03*
X152750000Y-82040000D03*
X150970000Y-83060000D03*
X152750000Y-84080000D03*
X150970000Y-85100000D03*
X152750000Y-86120000D03*
X150970000Y-87140000D03*
%TD*%
D12*
%TO.C,J5*%
X210450000Y-58500000D03*
X197750000Y-58500000D03*
D13*
X207670000Y-62820000D03*
X206650000Y-61040000D03*
X205630000Y-62820000D03*
X204610000Y-61040000D03*
X203590000Y-62820000D03*
X202570000Y-61040000D03*
X201550000Y-62820000D03*
X200530000Y-61040000D03*
%TD*%
D14*
%TO.C,H2*%
X225000000Y-57500000D03*
%TD*%
D15*
%TO.C,J3*%
X151930000Y-58500000D03*
X146930000Y-58500000D03*
%TD*%
D10*
%TO.C,U2*%
X227630000Y-88250000D03*
X225090000Y-88250000D03*
X235250000Y-67250000D03*
X232710000Y-67250000D03*
X230170000Y-67250000D03*
X227630000Y-67250000D03*
X225090000Y-67250000D03*
X222550000Y-67250000D03*
X220010000Y-67250000D03*
X217470000Y-67250000D03*
X217470000Y-88250000D03*
X220010000Y-88250000D03*
X222550000Y-88250000D03*
X230170000Y-88250000D03*
X232710000Y-88250000D03*
X235250000Y-88250000D03*
%TD*%
D14*
%TO.C,H3*%
X211000000Y-85750000D03*
%TD*%
D12*
%TO.C,J1*%
X273250000Y-94700000D03*
X273250000Y-82000000D03*
D13*
X268930000Y-91920000D03*
X270710000Y-90900000D03*
X268930000Y-89880000D03*
X270710000Y-88860000D03*
X268930000Y-87840000D03*
X270710000Y-86820000D03*
X268930000Y-85800000D03*
X270710000Y-84780000D03*
%TD*%
D16*
%TO.C,C1*%
X146250000Y-69250000D03*
D17*
X148750000Y-69250000D03*
%TD*%
D11*
%TO.C,J7*%
X255250000Y-58750000D03*
X250250000Y-58750000D03*
X245250000Y-58750000D03*
X240250000Y-58750000D03*
%TD*%
D18*
%TO.C,C8*%
X275800000Y-74500000D03*
D17*
X273300000Y-74500000D03*
%TD*%
D14*
%TO.C,H1*%
X165000000Y-57500000D03*
%TD*%
D12*
%TO.C,J4*%
X276500000Y-58500000D03*
X263800000Y-58500000D03*
D13*
X273720000Y-62820000D03*
X272700000Y-61040000D03*
X271680000Y-62820000D03*
X270660000Y-61040000D03*
X269640000Y-62820000D03*
X268620000Y-61040000D03*
X267600000Y-62820000D03*
X266580000Y-61040000D03*
%TD*%
D14*
%TO.C,H4*%
X251000000Y-85750000D03*
%TD*%
M02*
