M48
; DRILL file KiCad 10.0.4 date 2026-07-16T16:18:56
; FORMAT={-:-/ absolute / metric / decimal}
; #@! TF.CreationDate,2026-07-16T16:18:56+02:00
; #@! TF.GenerationSoftware,Kicad,Pcbnew,10.0.4
; #@! TF.FileFunction,Plated,1,2,PTH
FMAT,2
METRIC
; #@! TA.AperFunction,Plated,PTH,ViaDrill
T1C0.300
; #@! TA.AperFunction,Plated,PTH,ViaDrill
T2C0.400
; #@! TA.AperFunction,Plated,PTH,ComponentDrill
T3C0.800
; #@! TA.AperFunction,Plated,PTH,ComponentDrill
T4C0.900
; #@! TA.AperFunction,Plated,PTH,ComponentDrill
T5C1.020
; #@! TA.AperFunction,Plated,PTH,ComponentDrill
T6C1.194
; #@! TA.AperFunction,Plated,PTH,ComponentDrill
T7C1.300
%
G90
G05
T1
X169.5Y-65.2
X183.2Y-66.1
X183.2Y-67.1
X189.2Y-66.4
X189.2Y-67.2
X190.7Y-66.4
X190.7Y-67.2
X198.3Y-63.2
X199.8Y-64.6
X204.5Y-59.1
X205.2Y-58.6
X214.0Y-62.9
X214.5Y-65.5
X216.3Y-61.7
X218.6Y-64.7
X221.7Y-60.4
X228.0Y-71.1
X229.2Y-62.4
X229.5Y-61.2
X229.6Y-71.1
X230.4Y-61.2
X230.7Y-65.2
X239.5Y-60.6
X239.5Y-62.9
X241.0Y-62.9
X243.2Y-58.6
X247.7Y-65.1
X253.2Y-63.5
X263.9Y-62.2
X266.0Y-58.7
X266.8Y-57.9
T2
X167.7Y-84.1
X169.3Y-84.1
X173.3Y-84.1
X174.3Y-86.1
X174.9Y-84.1
X176.6Y-72.4
X177.1Y-86.1
X177.7Y-73.5
X179.0Y-71.0
X179.8Y-74.0
X181.4Y-71.0
X181.4Y-74.0
X183.0Y-61.9
X221.0Y-86.6
X222.6Y-91.1
X223.1Y-84.1
X224.7Y-84.1
X230.2Y-91.1
X235.2Y-91.1
X244.2Y-78.0
X245.2Y-66.3
X245.8Y-78.0
X248.7Y-78.0
X249.1Y-66.6
X250.2Y-65.5
X250.3Y-78.0
X251.1Y-69.5
X251.7Y-65.7
X252.2Y-70.6
X253.3Y-65.7
T3
X146.25Y-69.25
X148.75Y-69.25
X273.3Y-74.5
X275.8Y-74.5
T4
X150.97Y-81.02
X150.97Y-83.06
X150.97Y-85.1
X150.97Y-87.14
X152.75Y-80.0
X152.75Y-82.04
X152.75Y-84.08
X152.75Y-86.12
X200.53Y-61.04
X201.55Y-62.82
X202.57Y-61.04
X203.59Y-62.82
X204.61Y-61.04
X205.63Y-62.82
X206.65Y-61.04
X207.67Y-62.82
X266.58Y-61.04
X267.6Y-62.82
X268.62Y-61.04
X268.93Y-85.8
X268.93Y-87.84
X268.93Y-89.88
X268.93Y-91.92
X269.64Y-62.82
X270.66Y-61.04
X270.71Y-84.78
X270.71Y-86.82
X270.71Y-88.86
X270.71Y-90.9
X271.68Y-62.82
X272.7Y-61.04
X273.72Y-62.82
T5
X161.88Y-67.25
X161.88Y-88.25
X164.42Y-67.25
X164.42Y-88.25
X166.96Y-67.25
X166.96Y-88.25
X169.5Y-67.25
X169.5Y-88.25
X172.04Y-67.25
X172.04Y-88.25
X174.58Y-67.25
X174.58Y-88.25
X177.12Y-67.25
X177.12Y-88.25
X179.66Y-67.25
X179.66Y-88.25
X217.47Y-67.25
X217.47Y-88.25
X220.01Y-67.25
X220.01Y-88.25
X222.55Y-67.25
X222.55Y-88.25
X225.09Y-67.25
X225.09Y-88.25
X227.63Y-67.25
X227.63Y-88.25
X230.17Y-67.25
X230.17Y-88.25
X232.71Y-67.25
X232.71Y-88.25
X235.25Y-67.25
X235.25Y-88.25
T6
X146.93Y-58.5
X151.93Y-58.5
T7
X175.0Y-58.75
X180.0Y-58.75
X185.0Y-58.75
X190.0Y-58.75
X240.25Y-58.75
X245.25Y-58.75
X250.25Y-58.75
X255.25Y-58.75
M30
