%TF.GenerationSoftware,KiCad,Pcbnew,10.0.4*%
%TF.CreationDate,2026-07-16T16:17:47+02:00*%
%TF.ProjectId,HBDV3,48424456-332e-46b6-9963-61645f706362,rev?*%
%TF.SameCoordinates,Original*%
%TF.FileFunction,Copper,L1,Top*%
%TF.FilePolarity,Positive*%
%FSLAX46Y46*%
G04 Gerber Fmt 4.6, Leading zero omitted, Abs format (unit mm)*
G04 Created by KiCad (PCBNEW 10.0.4) date 2026-07-16 16:17:47*
%MOMM*%
%LPD*%
G01*
G04 APERTURE LIST*
G04 Aperture macros list*
%AMRoundRect*
0 Rectangle with rounded corners*
0 $1 Rounding radius*
0 $2 $3 $4 $5 $6 $7 $8 $9 X,Y pos of 4 corners*
0 Add a 4 corners polygon primitive as box body*
4,1,4,$2,$3,$4,$5,$6,$7,$8,$9,$2,$3,0*
0 Add four circle primitives for the rounded corners*
1,1,$1+$1,$2,$3*
1,1,$1+$1,$4,$5*
1,1,$1+$1,$6,$7*
1,1,$1+$1,$8,$9*
0 Add four rect primitives between the rounded corners*
20,1,$1+$1,$2,$3,$4,$5,0*
20,1,$1+$1,$4,$5,$6,$7,0*
20,1,$1+$1,$6,$7,$8,$9,0*
20,1,$1+$1,$8,$9,$2,$3,0*%
G04 Aperture macros list end*
%TA.AperFunction,SMDPad,CuDef*%
%ADD10RoundRect,0.249999X1.425001X-0.450001X1.425001X0.450001X-1.425001X0.450001X-1.425001X-0.450001X0*%
%TD*%
%TA.AperFunction,ComponentPad*%
%ADD11C,1.530000*%
%TD*%
%TA.AperFunction,ComponentPad*%
%ADD12C,1.950000*%
%TD*%
%TA.AperFunction,SMDPad,CuDef*%
%ADD13RoundRect,0.250000X0.625000X-0.400000X0.625000X0.400000X-0.625000X0.400000X-0.625000X-0.400000X0*%
%TD*%
%TA.AperFunction,SMDPad,CuDef*%
%ADD14RoundRect,0.250000X0.337500X0.475000X-0.337500X0.475000X-0.337500X-0.475000X0.337500X-0.475000X0*%
%TD*%
%TA.AperFunction,SMDPad,CuDef*%
%ADD15RoundRect,0.250000X-0.400000X-0.625000X0.400000X-0.625000X0.400000X0.625000X-0.400000X0.625000X0*%
%TD*%
%TA.AperFunction,ComponentPad*%
%ADD16C,1.400000*%
%TD*%
%TA.AperFunction,SMDPad,CuDef*%
%ADD17RoundRect,0.250000X0.250000X-0.250000X0.250000X0.250000X-0.250000X0.250000X-0.250000X-0.250000X0*%
%TD*%
%TA.AperFunction,SMDPad,CuDef*%
%ADD18RoundRect,0.249999X-0.450001X-1.425001X0.450001X-1.425001X0.450001X1.425001X-0.450001X1.425001X0*%
%TD*%
%TA.AperFunction,SMDPad,CuDef*%
%ADD19RoundRect,0.249999X-1.425001X0.450001X-1.425001X-0.450001X1.425001X-0.450001X1.425001X0.450001X0*%
%TD*%
%TA.AperFunction,SMDPad,CuDef*%
%ADD20RoundRect,0.250000X-0.337500X-0.475000X0.337500X-0.475000X0.337500X0.475000X-0.337500X0.475000X0*%
%TD*%
%TA.AperFunction,SMDPad,CuDef*%
%ADD21R,1.200000X1.200000*%
%TD*%
%TA.AperFunction,SMDPad,CuDef*%
%ADD22RoundRect,0.250000X-0.475000X0.337500X-0.475000X-0.337500X0.475000X-0.337500X0.475000X0.337500X0*%
%TD*%
%TA.AperFunction,SMDPad,CuDef*%
%ADD23RoundRect,0.249999X0.450001X1.425001X-0.450001X1.425001X-0.450001X-1.425001X0.450001X-1.425001X0*%
%TD*%
%TA.AperFunction,ComponentPad*%
%ADD24RoundRect,0.250000X-0.550000X-0.550000X0.550000X-0.550000X0.550000X0.550000X-0.550000X0.550000X0*%
%TD*%
%TA.AperFunction,ComponentPad*%
%ADD25C,1.600000*%
%TD*%
%TA.AperFunction,ComponentPad*%
%ADD26RoundRect,0.250000X0.550000X0.550000X-0.550000X0.550000X-0.550000X-0.550000X0.550000X-0.550000X0*%
%TD*%
%TA.AperFunction,ViaPad*%
%ADD27C,0.500000*%
%TD*%
%TA.AperFunction,ViaPad*%
%ADD28C,0.600000*%
%TD*%
%TA.AperFunction,Conductor*%
%ADD29C,0.500000*%
%TD*%
%TA.AperFunction,Conductor*%
%ADD30C,0.200000*%
%TD*%
G04 APERTURE END LIST*
D10*
%TO.P,R9,1*%
%TO.N,/OUTB*%
X202750000Y-84050000D03*
%TO.P,R9,2*%
%TO.N,/VOUTB*%
X202750000Y-77950000D03*
%TD*%
D11*
%TO.P,U1,*%
%TO.N,*%
X172040000Y-88250000D03*
X169500000Y-88250000D03*
%TO.P,U1,1,INA_1*%
%TO.N,Phase 0*%
X179660000Y-67250000D03*
%TO.P,U1,2,INB_2*%
%TO.N,Phase 180*%
X177120000Y-67250000D03*
%TO.P,U1,3,VDDI_3*%
%TO.N,+16.5V*%
X174580000Y-67250000D03*
%TO.P,U1,4,GNDI_4*%
%TO.N,GND*%
X172040000Y-67250000D03*
%TO.P,U1,5,EN_5*%
%TO.N,/ENABLE*%
X169500000Y-67250000D03*
%TO.P,U1,6,STP/DTC_6*%
%TO.N,/STP U1*%
X166960000Y-67250000D03*
%TO.P,U1,7,N.C._7*%
%TO.N,unconnected-(U1-N.C.-Pad7)*%
X164420000Y-67250000D03*
%TO.P,U1,8,VDDI_8*%
%TO.N,+16.5V*%
X161880000Y-67250000D03*
%TO.P,U1,9,GNDB_9*%
%TO.N,/GNDB*%
X161880000Y-88250000D03*
%TO.P,U1,10,OUTB_10*%
%TO.N,/OUTB*%
X164420000Y-88250000D03*
%TO.P,U1,11,VDDB_11*%
%TO.N,+16.5V*%
X166960000Y-88250000D03*
%TO.P,U1,12,GNDA_12*%
%TO.N,/GNDA*%
X174580000Y-88250000D03*
%TO.P,U1,13,OUTA_13*%
%TO.N,/OUTA*%
X177120000Y-88250000D03*
%TO.P,U1,14,VDDA_14*%
%TO.N,/VDDA*%
X179660000Y-88250000D03*
%TD*%
D12*
%TO.P,J6,1,Pin_1_1*%
%TO.N,/VOUTB*%
X190000000Y-58750000D03*
%TO.P,J6,2,Pin_2_2*%
%TO.N,/GNDB*%
X185000000Y-58750000D03*
%TO.P,J6,3,Pin_3_3*%
%TO.N,/GNDA*%
X180000000Y-58750000D03*
%TO.P,J6,4,Pin_4_4*%
%TO.N,/VOUTA*%
X175000000Y-58750000D03*
%TD*%
D13*
%TO.P,R28,1*%
%TO.N,/VOUTB_B*%
X266250000Y-76550000D03*
%TO.P,R28,2*%
%TO.N,Net-(D10-A)*%
X266250000Y-73450000D03*
%TD*%
D14*
%TO.P,C3,1*%
%TO.N,+16.5V*%
X158537500Y-67250000D03*
%TO.P,C3,2*%
%TO.N,GND*%
X156462500Y-67250000D03*
%TD*%
D10*
%TO.P,R18,1*%
%TO.N,/OUTA_B*%
X231500000Y-84100000D03*
%TO.P,R18,2*%
%TO.N,/VOUTA_B*%
X231500000Y-78000000D03*
%TD*%
%TO.P,R17,1*%
%TO.N,/OUTA_B*%
X226590000Y-84100000D03*
%TO.P,R17,2*%
%TO.N,Net-(D6-K)*%
X226590000Y-78000000D03*
%TD*%
%TO.P,R2,1*%
%TO.N,/OUTA*%
X166250000Y-84100000D03*
%TO.P,R2,2*%
%TO.N,Net-(D1-K)*%
X166250000Y-78000000D03*
%TD*%
D15*
%TO.P,R1,1*%
%TO.N,GND*%
X161200000Y-70750000D03*
%TO.P,R1,2*%
%TO.N,/STP U1*%
X164300000Y-70750000D03*
%TD*%
D10*
%TO.P,R4,1*%
%TO.N,/OUTA*%
X176340000Y-84100000D03*
%TO.P,R4,2*%
%TO.N,/VOUTA*%
X176340000Y-78000000D03*
%TD*%
%TO.P,R3,1*%
%TO.N,/OUTA*%
X171250000Y-84100000D03*
%TO.P,R3,2*%
%TO.N,Net-(D1-K)*%
X171250000Y-78000000D03*
%TD*%
D16*
%TO.P,J2,1*%
%TO.N,GND*%
X152750000Y-80000000D03*
%TO.P,J2,2*%
%TO.N,+16.5V*%
X150970000Y-81020000D03*
%TO.P,J2,3*%
%TO.N,GND*%
X152750000Y-82040000D03*
%TO.P,J2,4*%
%TO.N,+16.5V*%
X150970000Y-83060000D03*
%TO.P,J2,5*%
%TO.N,GND*%
X152750000Y-84080000D03*
%TO.P,J2,6*%
%TO.N,+16.5V*%
X150970000Y-85100000D03*
%TO.P,J2,7*%
%TO.N,GND*%
X152750000Y-86120000D03*
%TO.P,J2,8*%
%TO.N,+16.5V*%
X150970000Y-87140000D03*
%TD*%
D14*
%TO.P,C12,1*%
%TO.N,/VDDA_B*%
X231500000Y-95250000D03*
%TO.P,C12,2*%
%TO.N,/GNDA_B*%
X229425000Y-95250000D03*
%TD*%
D17*
%TO.P,D5,1,K_1*%
%TO.N,/VOUTB*%
X202750000Y-75750000D03*
%TO.P,D5,2,A_2*%
%TO.N,Net-(D5-A)*%
X202750000Y-73250000D03*
%TD*%
%TO.P,D9,1,K_1*%
%TO.N,/VOUTA_B*%
X234500000Y-73750000D03*
%TO.P,D9,2,A_2*%
%TO.N,Net-(D9-A)*%
X234500000Y-71250000D03*
%TD*%
D18*
%TO.P,R26,1*%
%TO.N,+16.5V*%
X219950000Y-93750000D03*
%TO.P,R26,2*%
%TO.N,Net-(D8-A)*%
X226050000Y-93750000D03*
%TD*%
D19*
%TO.P,R10,1*%
%TO.N,/GNDA*%
X186500000Y-67950000D03*
%TO.P,R10,2*%
%TO.N,Net-(D4-A)*%
X186500000Y-74050000D03*
%TD*%
D14*
%TO.P,C4,1*%
%TO.N,+16.5V*%
X162037500Y-94750000D03*
%TO.P,C4,2*%
%TO.N,/GNDB*%
X159962500Y-94750000D03*
%TD*%
D10*
%TO.P,R22,1*%
%TO.N,/OUTB_B*%
X252250000Y-78050000D03*
%TO.P,R22,2*%
%TO.N,/VOUTB_B*%
X252250000Y-71950000D03*
%TD*%
%TO.P,R5,1*%
%TO.N,/OUTA*%
X181500000Y-84100000D03*
%TO.P,R5,2*%
%TO.N,/VOUTA*%
X181500000Y-78000000D03*
%TD*%
%TO.P,R7,1*%
%TO.N,/OUTB*%
X192660000Y-84100000D03*
%TO.P,R7,2*%
%TO.N,Net-(D2-K)*%
X192660000Y-78000000D03*
%TD*%
D16*
%TO.P,J5,1*%
%TO.N,unconnected-(J5-Pad1)*%
X207670000Y-62820000D03*
%TO.P,J5,2*%
%TO.N,unconnected-(J5-Pad2)*%
X206650000Y-61040000D03*
%TO.P,J5,3*%
%TO.N,unconnected-(J5-Pad3)*%
X205630000Y-62820000D03*
%TO.P,J5,4*%
%TO.N,/ENABLE*%
X204610000Y-61040000D03*
%TO.P,J5,5*%
%TO.N,Phase 90*%
X203590000Y-62820000D03*
%TO.P,J5,6*%
%TO.N,Phase 270*%
X202570000Y-61040000D03*
%TO.P,J5,7*%
%TO.N,Phase 0*%
X201550000Y-62820000D03*
%TO.P,J5,8*%
%TO.N,Phase 180*%
X200530000Y-61040000D03*
%TD*%
D14*
%TO.P,C7,1*%
%TO.N,/VDDA*%
X176120000Y-95250000D03*
%TO.P,C7,2*%
%TO.N,/GNDA*%
X174045000Y-95250000D03*
%TD*%
D20*
%TO.P,C6,1*%
%TO.N,+16.5V*%
X155500000Y-94750000D03*
%TO.P,C6,2*%
%TO.N,/GNDB*%
X157575000Y-94750000D03*
%TD*%
D10*
%TO.P,R16,1*%
%TO.N,/OUTA_B*%
X221680000Y-84100000D03*
%TO.P,R16,2*%
%TO.N,Net-(D6-K)*%
X221680000Y-78000000D03*
%TD*%
%TO.P,R19,1*%
%TO.N,/OUTA_B*%
X236500000Y-84100000D03*
%TO.P,R19,2*%
%TO.N,/VOUTA_B*%
X236500000Y-78000000D03*
%TD*%
%TO.P,R21,1*%
%TO.N,/OUTB_B*%
X247250000Y-78050000D03*
%TO.P,R21,2*%
%TO.N,Net-(D7-K)*%
X247250000Y-71950000D03*
%TD*%
%TO.P,R20,1*%
%TO.N,/OUTB_B*%
X242250000Y-78050000D03*
%TO.P,R20,2*%
%TO.N,Net-(D7-K)*%
X242250000Y-71950000D03*
%TD*%
D12*
%TO.P,J3,1,Pin_1_1*%
%TO.N,GND*%
X151930000Y-58500000D03*
%TO.P,J3,2,Pin_2_2*%
%TO.N,+16.5V*%
X146930000Y-58500000D03*
%TD*%
D17*
%TO.P,D4,1,K_1*%
%TO.N,/VOUTA*%
X178750000Y-73750000D03*
%TO.P,D4,2,A_2*%
%TO.N,Net-(D4-A)*%
X178750000Y-71250000D03*
%TD*%
D14*
%TO.P,C10,1*%
%TO.N,+16.5V*%
X217250000Y-63500000D03*
%TO.P,C10,2*%
%TO.N,GND*%
X215175000Y-63500000D03*
%TD*%
D21*
%TO.P,D3,1,K_1*%
%TO.N,/VDDA*%
X179750000Y-92350000D03*
%TO.P,D3,2,A_2*%
%TO.N,Net-(D3-A)*%
X179750000Y-95150000D03*
%TD*%
D14*
%TO.P,C5,1*%
%TO.N,/VDDA*%
X176120000Y-92000000D03*
%TO.P,C5,2*%
%TO.N,/GNDA*%
X174045000Y-92000000D03*
%TD*%
D18*
%TO.P,R25,1*%
%TO.N,/GNDB_B*%
X253700000Y-68000000D03*
%TO.P,R25,2*%
%TO.N,Net-(D10-A)*%
X259800000Y-68000000D03*
%TD*%
D11*
%TO.P,U2,*%
%TO.N,*%
X227630000Y-88250000D03*
X225090000Y-88250000D03*
%TO.P,U2,1,INA_1*%
%TO.N,Phase 180*%
X235250000Y-67250000D03*
%TO.P,U2,2,INB_2*%
%TO.N,Phase 0*%
X232710000Y-67250000D03*
%TO.P,U2,3,VDDI_3*%
%TO.N,+16.5V*%
X230170000Y-67250000D03*
%TO.P,U2,4,GNDI_4*%
%TO.N,GND*%
X227630000Y-67250000D03*
%TO.P,U2,5,EN_5*%
%TO.N,/ENABLE*%
X225090000Y-67250000D03*
%TO.P,U2,6,STP/DTC_6*%
%TO.N,/STP U2*%
X222550000Y-67250000D03*
%TO.P,U2,7,N.C._7*%
%TO.N,unconnected-(U2-N.C.-Pad7)*%
X220010000Y-67250000D03*
%TO.P,U2,8,VDDI_8*%
%TO.N,+16.5V*%
X217470000Y-67250000D03*
%TO.P,U2,9,GNDB_9*%
%TO.N,/GNDB_B*%
X217470000Y-88250000D03*
%TO.P,U2,10,OUTB_10*%
%TO.N,/OUTB_B*%
X220010000Y-88250000D03*
%TO.P,U2,11,VDDB_11*%
%TO.N,+16.5V*%
X222550000Y-88250000D03*
%TO.P,U2,12,GNDA_12*%
%TO.N,/GNDA_B*%
X230170000Y-88250000D03*
%TO.P,U2,13,OUTA_13*%
%TO.N,/OUTA_B*%
X232710000Y-88250000D03*
%TO.P,U2,14,VDDA_14*%
%TO.N,/VDDA_B*%
X235250000Y-88250000D03*
%TD*%
D22*
%TO.P,C9,1*%
%TO.N,+16.5V*%
X269250000Y-73462500D03*
%TO.P,C9,2*%
%TO.N,GND*%
X269250000Y-75537500D03*
%TD*%
D23*
%TO.P,R24,1*%
%TO.N,/GNDA_B*%
X245050000Y-67750000D03*
%TO.P,R24,2*%
%TO.N,Net-(D9-A)*%
X238950000Y-67750000D03*
%TD*%
D10*
%TO.P,R23,1*%
%TO.N,/OUTB_B*%
X257250000Y-78050000D03*
%TO.P,R23,2*%
%TO.N,/VOUTB_B*%
X257250000Y-71950000D03*
%TD*%
D21*
%TO.P,D2,1,K_1*%
%TO.N,Net-(D2-K)*%
X193850000Y-74250000D03*
%TO.P,D2,2,A_2*%
%TO.N,/VOUTB*%
X196650000Y-74250000D03*
%TD*%
D19*
%TO.P,R11,1*%
%TO.N,/GNDB*%
X210500000Y-72400000D03*
%TO.P,R11,2*%
%TO.N,Net-(D5-A)*%
X210500000Y-78500000D03*
%TD*%
D16*
%TO.P,J1,1*%
%TO.N,GND*%
X268930000Y-91920000D03*
%TO.P,J1,2*%
%TO.N,+16.5V*%
X270710000Y-90900000D03*
%TO.P,J1,3*%
%TO.N,GND*%
X268930000Y-89880000D03*
%TO.P,J1,4*%
%TO.N,+16.5V*%
X270710000Y-88860000D03*
%TO.P,J1,5*%
%TO.N,GND*%
X268930000Y-87840000D03*
%TO.P,J1,6*%
%TO.N,+16.5V*%
X270710000Y-86820000D03*
%TO.P,J1,7*%
%TO.N,GND*%
X268930000Y-85800000D03*
%TO.P,J1,8*%
%TO.N,+16.5V*%
X270710000Y-84780000D03*
%TD*%
D13*
%TO.P,R27,1*%
%TO.N,/VOUTA_B*%
X238000000Y-74050000D03*
%TO.P,R27,2*%
%TO.N,Net-(D9-A)*%
X238000000Y-70950000D03*
%TD*%
D10*
%TO.P,R6,1*%
%TO.N,/OUTB*%
X187750000Y-84100000D03*
%TO.P,R6,2*%
%TO.N,Net-(D2-K)*%
X187750000Y-78000000D03*
%TD*%
D24*
%TO.P,C1,1*%
%TO.N,+16.5V*%
X146250000Y-69250000D03*
D25*
%TO.P,C1,2*%
%TO.N,GND*%
X148750000Y-69250000D03*
%TD*%
D17*
%TO.P,D10,1,K_1*%
%TO.N,/VOUTB_B*%
X262500000Y-76250000D03*
%TO.P,D10,2,A_2*%
%TO.N,Net-(D10-A)*%
X262500000Y-73750000D03*
%TD*%
D12*
%TO.P,J7,1,Pin_1_1*%
%TO.N,/VOUTB_B*%
X255250000Y-58750000D03*
%TO.P,J7,2,Pin_2_2*%
%TO.N,/GNDB_B*%
X250250000Y-58750000D03*
%TO.P,J7,3,Pin_3_3*%
%TO.N,/GNDA_B*%
X245250000Y-58750000D03*
%TO.P,J7,4,Pin_4_4*%
%TO.N,/VOUTA_B*%
X240250000Y-58750000D03*
%TD*%
D13*
%TO.P,R14,1*%
%TO.N,/VOUTB*%
X206250000Y-76050000D03*
%TO.P,R14,2*%
%TO.N,Net-(D5-A)*%
X206250000Y-72950000D03*
%TD*%
D15*
%TO.P,R15,1*%
%TO.N,GND*%
X216900000Y-70750000D03*
%TO.P,R15,2*%
%TO.N,/STP U2*%
X220000000Y-70750000D03*
%TD*%
D13*
%TO.P,R13,1*%
%TO.N,/VOUTA*%
X182250000Y-74050000D03*
%TO.P,R13,2*%
%TO.N,Net-(D4-A)*%
X182250000Y-70950000D03*
%TD*%
D21*
%TO.P,D6,1,K_1*%
%TO.N,Net-(D6-K)*%
X228350000Y-73500000D03*
%TO.P,D6,2,A_2*%
%TO.N,/VOUTA_B*%
X231150000Y-73500000D03*
%TD*%
D14*
%TO.P,C14,1*%
%TO.N,/VDDA_B*%
X231500000Y-91980000D03*
%TO.P,C14,2*%
%TO.N,/GNDA_B*%
X229425000Y-91980000D03*
%TD*%
D18*
%TO.P,R12,1*%
%TO.N,+16.5V*%
X164700000Y-93750000D03*
%TO.P,R12,2*%
%TO.N,Net-(D3-A)*%
X170800000Y-93750000D03*
%TD*%
D22*
%TO.P,C2,1*%
%TO.N,+16.5V*%
X152500000Y-65712500D03*
%TO.P,C2,2*%
%TO.N,GND*%
X152500000Y-67787500D03*
%TD*%
D26*
%TO.P,C8,1*%
%TO.N,+16.5V*%
X275800000Y-74500000D03*
D25*
%TO.P,C8,2*%
%TO.N,GND*%
X273300000Y-74500000D03*
%TD*%
D16*
%TO.P,J4,1*%
%TO.N,+16.5V*%
X273720000Y-62820000D03*
%TO.P,J4,2*%
%TO.N,GND*%
X272700000Y-61040000D03*
%TO.P,J4,3*%
%TO.N,unconnected-(J4-Pad3)*%
X271680000Y-62820000D03*
%TO.P,J4,4*%
%TO.N,/ENABLE*%
X270660000Y-61040000D03*
%TO.P,J4,5*%
%TO.N,Phase 0*%
X269640000Y-62820000D03*
%TO.P,J4,6*%
%TO.N,Phase 180*%
X268620000Y-61040000D03*
%TO.P,J4,7*%
%TO.N,Phase 90*%
X267600000Y-62820000D03*
%TO.P,J4,8*%
%TO.N,Phase 270*%
X266580000Y-61040000D03*
%TD*%
D21*
%TO.P,D1,1,K_1*%
%TO.N,Net-(D1-K)*%
X172350000Y-73500000D03*
%TO.P,D1,2,A_2*%
%TO.N,/VOUTA*%
X175150000Y-73500000D03*
%TD*%
D10*
%TO.P,R8,1*%
%TO.N,/OUTB*%
X197750000Y-84050000D03*
%TO.P,R8,2*%
%TO.N,/VOUTB*%
X197750000Y-77950000D03*
%TD*%
D14*
%TO.P,C11,1*%
%TO.N,+16.5V*%
X217287500Y-94750000D03*
%TO.P,C11,2*%
%TO.N,/GNDB_B*%
X215212500Y-94750000D03*
%TD*%
D21*
%TO.P,D8,1,K_1*%
%TO.N,/VDDA_B*%
X235250000Y-92310000D03*
%TO.P,D8,2,A_2*%
%TO.N,Net-(D8-A)*%
X235250000Y-95110000D03*
%TD*%
%TO.P,D7,1,K_1*%
%TO.N,Net-(D7-K)*%
X248700000Y-68200000D03*
%TO.P,D7,2,A_2*%
%TO.N,/VOUTB_B*%
X251500000Y-68200000D03*
%TD*%
D20*
%TO.P,C13,1*%
%TO.N,+16.5V*%
X210712500Y-94750000D03*
%TO.P,C13,2*%
%TO.N,/GNDB_B*%
X212787500Y-94750000D03*
%TD*%
D27*
%TO.N,Phase 0*%
X183200000Y-67099999D03*
X239500000Y-60600000D03*
X189200000Y-67200000D03*
X199800000Y-64599999D03*
X230700000Y-65200000D03*
X218600000Y-64700000D03*
X214500000Y-65500000D03*
X243200000Y-58600000D03*
X190700000Y-67200000D03*
%TO.N,Phase 180*%
X198300000Y-63200000D03*
X183200000Y-66099999D03*
X239500000Y-62900000D03*
X241000000Y-62900000D03*
X228000000Y-71100000D03*
X263899999Y-62200000D03*
X247700000Y-65099999D03*
X190700000Y-66400000D03*
X229600000Y-71100000D03*
X189200000Y-66400000D03*
X253200000Y-63500000D03*
D28*
%TO.N,+16.5V*%
X221000000Y-86600000D03*
X253300000Y-65700000D03*
X251700000Y-65700000D03*
X222600000Y-91100000D03*
D27*
%TO.N,/ENABLE*%
X169500000Y-65200000D03*
X229500000Y-61200000D03*
X221700000Y-60400000D03*
X205200000Y-58600000D03*
D28*
%TO.N,/GNDA*%
X183000000Y-61900000D03*
X174300000Y-86100000D03*
%TO.N,/OUTA*%
X174900000Y-84100000D03*
X169300000Y-84100000D03*
X173300000Y-84100000D03*
X177100000Y-86100000D03*
X167700000Y-84100000D03*
%TO.N,/VOUTA*%
X176600000Y-72400000D03*
X179800000Y-74000000D03*
X181400000Y-74000000D03*
X177700000Y-73500000D03*
%TO.N,/VOUTB_B*%
X251100000Y-69500000D03*
X252200000Y-70600000D03*
%TO.N,/OUTA_B*%
X223100000Y-84100000D03*
X224700000Y-84100000D03*
%TO.N,/VDDA_B*%
X235200000Y-91100000D03*
%TO.N,/GNDA_B*%
X230200000Y-91100000D03*
X245200000Y-66300000D03*
%TO.N,Net-(D4-A)*%
X181400000Y-71000000D03*
X179000000Y-71000000D03*
%TO.N,/OUTB_B*%
X245800000Y-78000000D03*
X248700000Y-78000000D03*
X244200000Y-78000000D03*
X250300000Y-78000000D03*
D27*
%TO.N,Phase 90*%
X266000000Y-58700000D03*
X230400000Y-61200000D03*
X216300000Y-61700000D03*
X214000000Y-62900000D03*
X229200000Y-62400000D03*
X266800000Y-57900000D03*
%TO.N,Phase 270*%
X204500000Y-59100000D03*
D28*
%TO.N,/GNDB_B*%
X250200000Y-65500000D03*
X249100000Y-66599999D03*
%TD*%
%TO.N,/OUTB*%
D29*
X197800000Y-84000000D02*
X197750000Y-84050000D01*
X192700000Y-84100000D02*
X192660000Y-84100000D01*
X187800000Y-84100000D02*
X192700000Y-84100000D01*
X187800000Y-84100000D02*
X183700000Y-88200000D01*
X197800000Y-84000000D02*
X202800000Y-84000000D01*
X192800000Y-84000000D02*
X197800000Y-84000000D01*
X165700000Y-86900000D02*
X164400000Y-88200000D01*
X183700000Y-88200000D02*
X181400000Y-88200000D01*
X202800000Y-84000000D02*
X202750000Y-84050000D01*
X187750000Y-84100000D02*
X187800000Y-84100000D01*
X181400000Y-88200000D02*
X180200000Y-87000000D01*
X179900000Y-87000000D02*
X179800000Y-86900000D01*
X192700000Y-84100000D02*
X192800000Y-84000000D01*
X179800000Y-86900000D02*
X165700000Y-86900000D01*
X180200000Y-87000000D02*
X179900000Y-87000000D01*
%TO.N,/VOUTB*%
X196600000Y-74200000D02*
X197800000Y-75400000D01*
X190000000Y-67600000D02*
X190000000Y-58800000D01*
X202800000Y-78000000D02*
X202750000Y-77950000D01*
X206200000Y-76000000D02*
X206250000Y-76050000D01*
X197800000Y-78000000D02*
X197750000Y-77950000D01*
X202800000Y-78000000D02*
X202800000Y-75800000D01*
X196650000Y-74250000D02*
X196600000Y-74200000D01*
X197800000Y-78000000D02*
X202800000Y-78000000D01*
X196600000Y-74200000D02*
X190000000Y-67600000D01*
X202800000Y-76000000D02*
X206200000Y-76000000D01*
X197800000Y-75400000D02*
X197800000Y-78000000D01*
X202800000Y-75800000D02*
X202750000Y-75750000D01*
%TO.N,Phase 0*%
D30*
X266800000Y-63600000D02*
X267100000Y-63900000D01*
X268500000Y-63900000D02*
X269600000Y-62800000D01*
X183400000Y-66900000D02*
X183200000Y-67099999D01*
X197200000Y-67200000D02*
X190700000Y-67200000D01*
X261800000Y-59100000D02*
X262000000Y-59300000D01*
X267100000Y-63900000D02*
X268500000Y-63900000D01*
X261800000Y-57500000D02*
X261800000Y-59100000D01*
X262000000Y-59300000D02*
X262000000Y-59500000D01*
X245700000Y-61100000D02*
X249500000Y-57300000D01*
X189200000Y-67200000D02*
X188500000Y-67200000D01*
X220400000Y-62900000D02*
X218600000Y-64700000D01*
X265300000Y-62800000D02*
X265700000Y-62800000D01*
X232700000Y-67200000D02*
X239300000Y-60600000D01*
X239300000Y-60600000D02*
X239500000Y-60600000D01*
X214500000Y-65500000D02*
X213400000Y-64400000D01*
X265700000Y-62800000D02*
X266500000Y-63600000D01*
X243200000Y-58600000D02*
X245700000Y-61100000D01*
X228400000Y-62900000D02*
X220400000Y-62900000D01*
X230700000Y-65200000D02*
X228400000Y-62900000D01*
X203200000Y-64400000D02*
X201600000Y-62800000D01*
X261600000Y-57300000D02*
X261800000Y-57500000D01*
X188200000Y-66900000D02*
X183400000Y-66900000D01*
X262000000Y-59500000D02*
X265300000Y-62800000D01*
X199800000Y-64599999D02*
X197200000Y-67200000D01*
X249500000Y-57300000D02*
X261600000Y-57300000D01*
X188500000Y-67200000D02*
X188200000Y-66900000D01*
X266500000Y-63600000D02*
X266800000Y-63600000D01*
X213400000Y-64400000D02*
X203200000Y-64400000D01*
%TO.N,Phase 180*%
X232300000Y-68400000D02*
X234000000Y-68400000D01*
X218100000Y-72800000D02*
X226300000Y-72800000D01*
X194700000Y-66800000D02*
X191200000Y-66800000D01*
X226300000Y-72800000D02*
X228000000Y-71100000D01*
X235200000Y-67200000D02*
X239500000Y-62900000D01*
X234000000Y-68400000D02*
X235200000Y-67200000D01*
X253200000Y-63500000D02*
X255700000Y-61000000D01*
X189200000Y-66400000D02*
X189000000Y-66599999D01*
X255700000Y-61000000D02*
X262700000Y-61000000D01*
X216200000Y-72000000D02*
X217300000Y-72000000D01*
X262700000Y-61000000D02*
X263899999Y-62200000D01*
X241000000Y-62900000D02*
X242900000Y-61000000D01*
X242900000Y-61000000D02*
X243600000Y-61000000D01*
X217300000Y-72000000D02*
X218100000Y-72800000D01*
X188400000Y-66500000D02*
X183600000Y-66500000D01*
X204400000Y-67200000D02*
X211400000Y-67200000D01*
X188500000Y-66599999D02*
X188400000Y-66500000D01*
X243600000Y-61000000D02*
X247700000Y-65099999D01*
X191200000Y-66800000D02*
X190800000Y-66400000D01*
X189000000Y-66599999D02*
X188500000Y-66599999D01*
X211400000Y-67200000D02*
X216200000Y-72000000D01*
X183600000Y-66500000D02*
X183200000Y-66099999D01*
X200500000Y-63300000D02*
X204400000Y-67200000D01*
X229600000Y-71100000D02*
X232300000Y-68400000D01*
X198300000Y-63200000D02*
X194700000Y-66800000D01*
X200500000Y-61000000D02*
X200500000Y-63300000D01*
%TO.N,+16.5V*%
D29*
X151000000Y-83100000D02*
X151000000Y-85100000D01*
X269200000Y-73700000D02*
X270000000Y-74500000D01*
X148400000Y-67000000D02*
X146900000Y-65500000D01*
X272700000Y-73200000D02*
X274500000Y-73200000D01*
X228200000Y-66000000D02*
X227900000Y-66000000D01*
X240500000Y-57200000D02*
X239800000Y-57200000D01*
X239600000Y-57400000D02*
X239500000Y-57400000D01*
X216300000Y-63400000D02*
X216300000Y-62700000D01*
X202100000Y-59800000D02*
X198800000Y-56500000D01*
X270000000Y-74500000D02*
X271400000Y-74500000D01*
X146200000Y-69200000D02*
X151000000Y-74000000D01*
X239800000Y-57200000D02*
X239600000Y-57400000D01*
X217300000Y-94800000D02*
X217100000Y-94800000D01*
X250500000Y-66900000D02*
X240900000Y-57300000D01*
X174400000Y-57200000D02*
X173500000Y-58100000D01*
X222600000Y-91100000D02*
X220000000Y-93700000D01*
X167000000Y-91500000D02*
X167000000Y-88200000D01*
X218800000Y-65900000D02*
X216300000Y-63400000D01*
X215800000Y-62200000D02*
X209600000Y-62200000D01*
X161900000Y-67200000D02*
X158500000Y-67200000D01*
X211900000Y-96000000D02*
X210700000Y-94800000D01*
X210700000Y-94800000D02*
X210713000Y-94750000D01*
X160800000Y-96000000D02*
X162000000Y-94800000D01*
X198400000Y-56500000D02*
X198300000Y-56400000D01*
X148400000Y-67000000D02*
X146200000Y-69200000D01*
X223100000Y-76800000D02*
X219900000Y-76800000D01*
X217200000Y-63500000D02*
X217250000Y-63500000D01*
X219500000Y-77200000D02*
X219500000Y-85100000D01*
X217100000Y-94800000D02*
X215900000Y-96000000D01*
X198300000Y-56400000D02*
X185400000Y-56400000D01*
X163000000Y-93800000D02*
X164700000Y-93800000D01*
X152500000Y-65700000D02*
X151200000Y-67000000D01*
X172300000Y-66000000D02*
X172200000Y-65900000D01*
X227500000Y-72400000D02*
X223100000Y-76800000D01*
X270700000Y-86800000D02*
X270700000Y-88900000D01*
X173500000Y-58100000D02*
X173500000Y-66099999D01*
X173500000Y-66099999D02*
X173100000Y-66500000D01*
X151000000Y-81000000D02*
X151000000Y-83100000D01*
X162000000Y-94800000D02*
X163000000Y-93800000D01*
X228800000Y-67800000D02*
X228800000Y-72200000D01*
X269200000Y-73500000D02*
X269200000Y-73700000D01*
X151000000Y-74000000D02*
X151000000Y-81000000D01*
X230200000Y-66700000D02*
X230200000Y-67200000D01*
X158500000Y-67200000D02*
X157000000Y-65700000D01*
X216800000Y-63900000D02*
X217200000Y-63500000D01*
X155500000Y-94800000D02*
X155500000Y-94750000D01*
X228600000Y-72400000D02*
X227500000Y-72400000D01*
X219900000Y-76800000D02*
X219500000Y-77200000D01*
X269200000Y-73500000D02*
X262899999Y-67200000D01*
X268000000Y-82100000D02*
X270700000Y-84800000D01*
X156900000Y-96000000D02*
X160800000Y-96000000D01*
X209600000Y-62200000D02*
X207200000Y-59800000D01*
X218800000Y-65900000D02*
X217500000Y-67200000D01*
X164700000Y-93800000D02*
X167000000Y-91500000D01*
X271400000Y-74500000D02*
X272700000Y-73200000D01*
X215900000Y-96000000D02*
X211900000Y-96000000D01*
X164700000Y-93800000D02*
X164700000Y-93750000D01*
X163200000Y-65900000D02*
X161900000Y-67200000D01*
X274500000Y-73200000D02*
X275800000Y-74500000D01*
X268000000Y-74900000D02*
X268000000Y-82100000D01*
X146900000Y-65500000D02*
X146900000Y-58500000D01*
X240900000Y-57300000D02*
X240600000Y-57300000D01*
X217300000Y-94800000D02*
X217287000Y-94750000D01*
X151200000Y-67000000D02*
X148400000Y-67000000D01*
X219500000Y-85100000D02*
X221000000Y-86600000D01*
X219000000Y-94800000D02*
X217300000Y-94800000D01*
X157000000Y-65700000D02*
X152500000Y-65700000D01*
X220000000Y-93700000D02*
X220000000Y-93800000D01*
X162000000Y-94800000D02*
X162037000Y-94750000D01*
X155500000Y-94800000D02*
X155700000Y-94800000D01*
X239500000Y-57400000D02*
X230200000Y-66700000D01*
X269250000Y-73463000D02*
X269200000Y-73500000D01*
X220000000Y-93800000D02*
X219950000Y-93750000D01*
X185400000Y-56400000D02*
X184600000Y-57200000D01*
X184600000Y-57200000D02*
X174400000Y-57200000D01*
X262899999Y-67200000D02*
X262000000Y-67200000D01*
X198800000Y-56500000D02*
X198400000Y-56500000D01*
X262000000Y-67200000D02*
X260600000Y-65800000D01*
X216300000Y-62700000D02*
X215800000Y-62200000D01*
X251700000Y-65700000D02*
X250500000Y-66900000D01*
X273700000Y-73200000D02*
X273700000Y-62800000D01*
X220000000Y-93800000D02*
X219000000Y-94800000D01*
X172200000Y-65900000D02*
X163200000Y-65900000D01*
X240600000Y-57300000D02*
X240500000Y-57200000D01*
X270700000Y-88900000D02*
X270700000Y-90900000D01*
X155500000Y-91600000D02*
X155500000Y-94800000D01*
X173100000Y-66500000D02*
X172600000Y-66000000D01*
X207200000Y-59800000D02*
X202100000Y-59800000D01*
X151000000Y-87100000D02*
X155500000Y-91600000D01*
X260600000Y-65800000D02*
X253400000Y-65800000D01*
X172600000Y-66000000D02*
X172300000Y-66000000D01*
X151000000Y-85100000D02*
X151000000Y-87100000D01*
X158500000Y-67200000D02*
X158537000Y-67250000D01*
X229400000Y-67200000D02*
X228800000Y-67800000D01*
X229400000Y-67200000D02*
X228200000Y-66000000D01*
X227900000Y-66000000D02*
X227800000Y-65900000D01*
X227800000Y-65900000D02*
X218800000Y-65900000D01*
X228800000Y-72200000D02*
X228600000Y-72400000D01*
X155700000Y-94800000D02*
X156900000Y-96000000D01*
X270700000Y-84800000D02*
X270700000Y-86800000D01*
X173500000Y-66099999D02*
X174600000Y-67200000D01*
X269200000Y-73700000D02*
X268000000Y-74900000D01*
%TO.N,GND*%
X218300000Y-72200000D02*
X216900000Y-70800000D01*
X160100000Y-70800000D02*
X161200000Y-70800000D01*
X216900000Y-70800000D02*
X215200000Y-69100000D01*
X273300000Y-74500000D02*
X272300000Y-75500000D01*
X227600000Y-67200000D02*
X224000000Y-70800000D01*
X216900000Y-70800000D02*
X216900000Y-70750000D01*
X224000000Y-70800000D02*
X222100000Y-70800000D01*
X215200000Y-69100000D02*
X215200000Y-63500000D01*
X269200000Y-75500000D02*
X269250000Y-75537000D01*
X156500000Y-67200000D02*
X160100000Y-70800000D01*
X152500000Y-67800000D02*
X152500000Y-67787000D01*
X156500000Y-67200000D02*
X156463000Y-67250000D01*
X215200000Y-63500000D02*
X215175000Y-63500000D01*
X222100000Y-70800000D02*
X220700000Y-72200000D01*
X220700000Y-72200000D02*
X218300000Y-72200000D01*
X152500000Y-67800000D02*
X153100000Y-67200000D01*
X153100000Y-67200000D02*
X156500000Y-67200000D01*
X272300000Y-75500000D02*
X269200000Y-75500000D01*
X150200000Y-67800000D02*
X152500000Y-67800000D01*
X148750000Y-69250000D02*
X148800000Y-69200000D01*
X148800000Y-69200000D02*
X150200000Y-67800000D01*
X161200000Y-70800000D02*
X161200000Y-70750000D01*
X227630000Y-67250000D02*
X227600000Y-67200000D01*
%TO.N,/ENABLE*%
D30*
X211000000Y-56500000D02*
X209100000Y-56500000D01*
X221700000Y-60400000D02*
X221600000Y-60500000D01*
X201500000Y-58400000D02*
X199000000Y-55900000D01*
X215300000Y-60500000D02*
X211500000Y-56700000D01*
X267100000Y-57300000D02*
X270700000Y-60900000D01*
X211500000Y-56700000D02*
X211200000Y-56700000D01*
X180100000Y-56600000D02*
X174200000Y-56600000D01*
X205200000Y-58600000D02*
X204900000Y-58600000D01*
X198500000Y-55800000D02*
X180900000Y-55800000D01*
X199000000Y-55900000D02*
X198600000Y-55900000D01*
X169500000Y-61300000D02*
X169500000Y-65200000D01*
X267000000Y-57300000D02*
X267100000Y-57300000D01*
X207000000Y-58600000D02*
X205200000Y-58600000D01*
X209100000Y-56500000D02*
X207000000Y-58600000D01*
X204700000Y-58400000D02*
X201500000Y-58400000D01*
X263399999Y-55500000D02*
X265200000Y-55500000D01*
X263300000Y-55600000D02*
X263399999Y-55500000D01*
X198600000Y-55900000D02*
X198500000Y-55800000D01*
X174200000Y-56600000D02*
X169500000Y-61300000D01*
X229500000Y-61200000D02*
X230200000Y-60500000D01*
X180900000Y-55800000D02*
X180100000Y-56600000D01*
X221600000Y-60500000D02*
X215300000Y-60500000D01*
X239300000Y-55600000D02*
X263300000Y-55600000D01*
X265200000Y-55500000D02*
X267000000Y-57300000D01*
X211200000Y-56700000D02*
X211000000Y-56500000D01*
X230200000Y-60500000D02*
X234400000Y-60500000D01*
X204900000Y-58600000D02*
X204700000Y-58400000D01*
X234400000Y-60500000D02*
X239300000Y-55600000D01*
%TO.N,/STP U1*%
X167000000Y-67200000D02*
X164300000Y-69900000D01*
X164300000Y-69900000D02*
X164300000Y-70800000D01*
X164300000Y-70800000D02*
X164300000Y-70750000D01*
%TO.N,/GNDB*%
D29*
X168500000Y-84800000D02*
X167100000Y-86200000D01*
X195800000Y-59300000D02*
X195800000Y-59500000D01*
X181700000Y-66500000D02*
X181700000Y-68400000D01*
X160000000Y-90100000D02*
X160000000Y-94800000D01*
X163900000Y-86200000D02*
X161900000Y-88200000D01*
X195600000Y-57500000D02*
X195600000Y-59100000D01*
X176300000Y-74300000D02*
X173500000Y-77100000D01*
X185000000Y-58800000D02*
X186400000Y-60200000D01*
X178800000Y-72800000D02*
X178500000Y-72800000D01*
X176300000Y-73800000D02*
X176300000Y-74300000D01*
X179500000Y-64300000D02*
X181700000Y-66500000D01*
X195300000Y-57200000D02*
X195600000Y-57500000D01*
X168500000Y-83700000D02*
X168500000Y-84800000D01*
X195800000Y-59500000D02*
X196100000Y-59800000D01*
X189800000Y-57200000D02*
X195300000Y-57200000D01*
X160000000Y-94800000D02*
X157600000Y-94800000D01*
X185000000Y-58800000D02*
X179500000Y-64300000D01*
X178500000Y-72800000D02*
X178400000Y-72700000D01*
X160000000Y-94800000D02*
X159963000Y-94750000D01*
X179800000Y-71800000D02*
X178800000Y-72800000D01*
X173500000Y-78700000D02*
X168500000Y-83700000D01*
X161900000Y-88200000D02*
X160000000Y-90100000D01*
X181700000Y-68400000D02*
X179800000Y-70300000D01*
X177400000Y-72700000D02*
X176300000Y-73800000D01*
X189700000Y-57300000D02*
X189800000Y-57200000D01*
X167100000Y-86200000D02*
X163900000Y-86200000D01*
X186400000Y-60200000D02*
X189300000Y-57300000D01*
X189300000Y-57300000D02*
X189700000Y-57300000D01*
X196100000Y-59900000D02*
X208600000Y-72400000D01*
X179800000Y-70300000D02*
X179800000Y-71800000D01*
X195600000Y-59100000D02*
X195800000Y-59300000D01*
X173500000Y-77100000D02*
X173500000Y-78700000D01*
X196100000Y-59800000D02*
X196100000Y-59900000D01*
X208600000Y-72400000D02*
X210500000Y-72400000D01*
X178400000Y-72700000D02*
X177400000Y-72700000D01*
X157600000Y-94800000D02*
X157575000Y-94750000D01*
%TO.N,/GNDA*%
X169600000Y-92000000D02*
X169600000Y-95500000D01*
X169600000Y-95500000D02*
X170100000Y-96000000D01*
X182500000Y-68600000D02*
X182500000Y-62400000D01*
X180400000Y-76800000D02*
X179700000Y-76800000D01*
X180600000Y-70500000D02*
X180600000Y-76600000D01*
X182500000Y-62400000D02*
X183000000Y-61900000D01*
X178500000Y-82700000D02*
X178300000Y-82900000D01*
X186500000Y-67950000D02*
X186500000Y-68000000D01*
X172300000Y-95200000D02*
X174000000Y-95200000D01*
X174100000Y-85900000D02*
X174300000Y-86100000D01*
X174100000Y-83400000D02*
X174100000Y-85900000D01*
X178600000Y-78500000D02*
X178500000Y-78600000D01*
X174000000Y-88800000D02*
X174000000Y-92000000D01*
X170100000Y-96000000D02*
X171500000Y-96000000D01*
X178300000Y-82900000D02*
X174600000Y-82900000D01*
X174600000Y-88200000D02*
X174000000Y-88800000D01*
X181300000Y-69800000D02*
X180600000Y-70500000D01*
X178500000Y-78000000D02*
X178500000Y-78400000D01*
X181300000Y-69800000D02*
X182500000Y-68600000D01*
X186500000Y-68000000D02*
X184700000Y-69800000D01*
X174000000Y-92000000D02*
X174045000Y-92000000D01*
X179700000Y-76800000D02*
X178500000Y-78000000D01*
X174600000Y-82900000D02*
X174100000Y-83400000D01*
X171500000Y-96000000D02*
X172300000Y-95200000D01*
X178500000Y-78400000D02*
X178600000Y-78500000D01*
X171100000Y-90500000D02*
X169600000Y-92000000D01*
X174000000Y-90500000D02*
X171100000Y-90500000D01*
X184700000Y-69800000D02*
X181300000Y-69800000D01*
X180600000Y-76600000D02*
X180400000Y-76800000D01*
X178500000Y-78600000D02*
X178500000Y-82700000D01*
X174000000Y-95200000D02*
X174045000Y-95250000D01*
%TO.N,/OUTA*%
X171200000Y-84100000D02*
X169300000Y-84100000D01*
X166200000Y-84100000D02*
X166250000Y-84100000D01*
X169300000Y-84100000D02*
X169575000Y-84100000D01*
X176340000Y-84100000D02*
X176300000Y-84100000D01*
X177100000Y-84100000D02*
X177100000Y-86100000D01*
X171200000Y-84100000D02*
X171250000Y-84100000D01*
X176300000Y-84100000D02*
X181500000Y-84100000D01*
X176300000Y-84100000D02*
X174900000Y-84100000D01*
X167700000Y-84100000D02*
X166200000Y-84100000D01*
X173300000Y-84100000D02*
X171200000Y-84100000D01*
%TO.N,/VDDA*%
X178900000Y-96300000D02*
X177800000Y-95200000D01*
X177800000Y-95200000D02*
X176100000Y-95200000D01*
X179800000Y-92000000D02*
X176100000Y-92000000D01*
X179800000Y-92400000D02*
X179750000Y-92350000D01*
X180900000Y-96000000D02*
X180600000Y-96300000D01*
X180900000Y-93500000D02*
X180900000Y-96000000D01*
X176100000Y-95200000D02*
X176120000Y-95250000D01*
X179800000Y-88300000D02*
X179800000Y-92400000D01*
X180600000Y-96300000D02*
X178900000Y-96300000D01*
X179800000Y-92400000D02*
X180900000Y-93500000D01*
%TO.N,/VOUTA*%
X179800000Y-74000000D02*
X179250000Y-74000000D01*
X176300000Y-78000000D02*
X176340000Y-78000000D01*
X178500000Y-73500000D02*
X178800000Y-73800000D01*
X182200000Y-74000000D02*
X182250000Y-74050000D01*
X175200000Y-73200000D02*
X175200000Y-73500000D01*
X181000000Y-67700000D02*
X178500000Y-70200000D01*
X181000000Y-66800000D02*
X181000000Y-67700000D01*
X175200000Y-59000000D02*
X175200000Y-61000000D01*
X179000000Y-74000000D02*
X179800000Y-74000000D01*
X176300000Y-72100000D02*
X176600000Y-72400000D01*
X178800000Y-73800000D02*
X178750000Y-73750000D01*
X181400000Y-74000000D02*
X182200000Y-74000000D01*
X177700000Y-73500000D02*
X177100000Y-74100000D01*
X178200000Y-70200000D02*
X175200000Y-73200000D01*
X177100000Y-74100000D02*
X177100000Y-77200000D01*
X178800000Y-73800000D02*
X179000000Y-74000000D01*
X175200000Y-61000000D02*
X181000000Y-66800000D01*
X177100000Y-77200000D02*
X176300000Y-78000000D01*
X178500000Y-70200000D02*
X178200000Y-70200000D01*
X177700000Y-73500000D02*
X178500000Y-73500000D01*
X175200000Y-73500000D02*
X175150000Y-73500000D01*
X181500000Y-74000000D02*
X181500000Y-78000000D01*
%TO.N,/VOUTB_B*%
X262500000Y-76200000D02*
X262899999Y-76600000D01*
X251500000Y-68200000D02*
X252500000Y-67200000D01*
X252200000Y-70600000D02*
X252200000Y-72000000D01*
X261399999Y-76200000D02*
X262500000Y-76200000D01*
X252200000Y-72000000D02*
X252250000Y-71950000D01*
X251100000Y-69500000D02*
X251100000Y-68800000D01*
X262899999Y-76600000D02*
X266200000Y-76600000D01*
X257200000Y-72000000D02*
X257250000Y-71950000D01*
X257200000Y-72000000D02*
X261399999Y-76200000D01*
X252500000Y-67200000D02*
X252500000Y-61500000D01*
X266200000Y-76600000D02*
X266250000Y-76550000D01*
X252200000Y-72000000D02*
X257200000Y-72000000D01*
X251900000Y-68600000D02*
X251900000Y-68700000D01*
X251900000Y-68700000D02*
X251100000Y-69500000D01*
X251500000Y-68200000D02*
X251900000Y-68600000D01*
X262500000Y-76200000D02*
X262500000Y-76250000D01*
X252500000Y-61500000D02*
X255200000Y-58800000D01*
%TO.N,Net-(D10-A)*%
X259800000Y-71100000D02*
X259800000Y-68000000D01*
X262899999Y-73400000D02*
X266200000Y-73400000D01*
X262500000Y-73800000D02*
X259800000Y-71100000D01*
X262500000Y-73750000D02*
X262500000Y-73800000D01*
X266200000Y-73400000D02*
X266250000Y-73450000D01*
X262500000Y-73800000D02*
X262899999Y-73400000D01*
%TO.N,/OUTA_B*%
X224700000Y-84100000D02*
X224915000Y-84100000D01*
X221700000Y-84100000D02*
X221680000Y-84100000D01*
X231500000Y-84100000D02*
X232700000Y-85300000D01*
X232700000Y-85300000D02*
X233900000Y-84100000D01*
X233900000Y-84100000D02*
X236500000Y-84100000D01*
X226600000Y-84100000D02*
X224700000Y-84100000D01*
X231500000Y-84100000D02*
X226600000Y-84100000D01*
X223100000Y-84100000D02*
X221700000Y-84100000D01*
X232700000Y-85300000D02*
X232700000Y-88200000D01*
%TO.N,/VOUTA_B*%
X234500000Y-73800000D02*
X234200000Y-73500000D01*
X238000000Y-74000000D02*
X240100000Y-71900000D01*
X240100000Y-69500000D02*
X240200000Y-69400000D01*
X238000000Y-74050000D02*
X238000000Y-74000000D01*
X238000000Y-74000000D02*
X237800000Y-73800000D01*
X240100000Y-71500000D02*
X240000000Y-71400000D01*
X240000000Y-71400000D02*
X240100000Y-71300000D01*
X237800000Y-73800000D02*
X234500000Y-73800000D01*
X234500000Y-73800000D02*
X234500000Y-73750000D01*
X240200000Y-69400000D02*
X240200000Y-58800000D01*
X240100000Y-71300000D02*
X240100000Y-69500000D01*
X231500000Y-73500000D02*
X231500000Y-78000000D01*
X240100000Y-71900000D02*
X240100000Y-71500000D01*
X236500000Y-73800000D02*
X236500000Y-78000000D01*
X234200000Y-73500000D02*
X231200000Y-73500000D01*
X231200000Y-73500000D02*
X231150000Y-73500000D01*
%TO.N,Net-(D6-K)*%
X226600000Y-78000000D02*
X221700000Y-78000000D01*
X221700000Y-78000000D02*
X221680000Y-78000000D01*
X228400000Y-73500000D02*
X228350000Y-73500000D01*
X228400000Y-76200000D02*
X228400000Y-73500000D01*
X226600000Y-78000000D02*
X228400000Y-76200000D01*
%TO.N,Net-(D1-K)*%
X171250000Y-78000000D02*
X171200000Y-78000000D01*
X166200000Y-78000000D02*
X166250000Y-78000000D01*
X172400000Y-73500000D02*
X172350000Y-73500000D01*
X172400000Y-76800000D02*
X172400000Y-73500000D01*
X171200000Y-78000000D02*
X172400000Y-76800000D01*
X171200000Y-78000000D02*
X166200000Y-78000000D01*
%TO.N,/VDDA_B*%
X231500000Y-92000000D02*
X231800000Y-92300000D01*
X235200000Y-93100000D02*
X236400000Y-94300000D01*
X235200000Y-92300000D02*
X235200000Y-91100000D01*
X236400000Y-94300000D02*
X236400000Y-95900000D01*
X236000000Y-96300000D02*
X232600000Y-96300000D01*
X231800000Y-92300000D02*
X235200000Y-92300000D01*
X236400000Y-95900000D02*
X236000000Y-96300000D01*
X235200000Y-91100000D02*
X235200000Y-91710000D01*
X232600000Y-96300000D02*
X231500000Y-95200000D01*
X231500000Y-95200000D02*
X231500000Y-95250000D01*
X235200000Y-92300000D02*
X235250000Y-92310000D01*
X235200000Y-92300000D02*
X235200000Y-93100000D01*
%TO.N,/GNDA_B*%
X226800000Y-91500000D02*
X225300000Y-91500000D01*
X229400000Y-95200000D02*
X229425000Y-95250000D01*
X230200000Y-88200000D02*
X230800000Y-88200000D01*
X229400000Y-92000000D02*
X229425000Y-91980000D01*
X235600000Y-89600000D02*
X235800000Y-89400000D01*
X245200000Y-67600000D02*
X245200000Y-66300000D01*
X229400000Y-92000000D02*
X227300000Y-92000000D01*
X245000000Y-80300000D02*
X245000000Y-67800000D01*
X228600000Y-96000000D02*
X229400000Y-95200000D01*
X235800000Y-89400000D02*
X235900000Y-89400000D01*
X245000000Y-67800000D02*
X245050000Y-67750000D01*
X225300000Y-96000000D02*
X228600000Y-96000000D01*
X235900000Y-89400000D02*
X245000000Y-80300000D01*
X227300000Y-92000000D02*
X226800000Y-91500000D01*
X224800000Y-95500000D02*
X225300000Y-96000000D01*
X230200000Y-91200000D02*
X229400000Y-92000000D01*
X232200000Y-89600000D02*
X235600000Y-89600000D01*
X230800000Y-88200000D02*
X232200000Y-89600000D01*
X245000000Y-67800000D02*
X245200000Y-67600000D01*
X224800000Y-92000000D02*
X224800000Y-95500000D01*
X225300000Y-91500000D02*
X224800000Y-92000000D01*
%TO.N,Net-(D5-A)*%
X207700000Y-75700000D02*
X207700000Y-74500000D01*
X206200000Y-73000000D02*
X206250000Y-72950000D01*
X206200000Y-73000000D02*
X206000000Y-73200000D01*
X210500000Y-78500000D02*
X207700000Y-75700000D01*
X207700000Y-74500000D02*
X206200000Y-73000000D01*
X202800000Y-73200000D02*
X202750000Y-73250000D01*
X206000000Y-73200000D02*
X202800000Y-73200000D01*
%TO.N,Net-(D9-A)*%
X238000000Y-71000000D02*
X237800000Y-71200000D01*
X234500000Y-71200000D02*
X234500000Y-71250000D01*
X239000000Y-67800000D02*
X238000000Y-68800000D01*
X238950000Y-67750000D02*
X239000000Y-67800000D01*
X238000000Y-68800000D02*
X238000000Y-71000000D01*
X237800000Y-71200000D02*
X234500000Y-71200000D01*
X238000000Y-71000000D02*
X238000000Y-70950000D01*
%TO.N,Net-(D8-A)*%
X234100000Y-94000000D02*
X235200000Y-95100000D01*
X226050000Y-93750000D02*
X226000000Y-93800000D01*
X227300000Y-95100000D02*
X227700000Y-95100000D01*
X226000000Y-93800000D02*
X227300000Y-95100000D01*
X228800000Y-94000000D02*
X234100000Y-94000000D01*
X227700000Y-95100000D02*
X228800000Y-94000000D01*
X235200000Y-95100000D02*
X235250000Y-95110000D01*
%TO.N,Net-(D4-A)*%
X186500000Y-74000000D02*
X183500000Y-71000000D01*
X186500000Y-74050000D02*
X186500000Y-74000000D01*
X183500000Y-71000000D02*
X182200000Y-71000000D01*
X178800000Y-71200000D02*
X178750000Y-71250000D01*
X182200000Y-71000000D02*
X182250000Y-70950000D01*
X179000000Y-71000000D02*
X178800000Y-71200000D01*
X182200000Y-71000000D02*
X181400000Y-71000000D01*
%TO.N,/OUTB_B*%
X252200000Y-78000000D02*
X252250000Y-78050000D01*
X257200000Y-78000000D02*
X257250000Y-78050000D01*
X242200000Y-78000000D02*
X244200000Y-78000000D01*
X244200000Y-78000000D02*
X243925000Y-78000000D01*
X220600000Y-88200000D02*
X220000000Y-88200000D01*
X223900000Y-84900000D02*
X220600000Y-88200000D01*
X250300000Y-78000000D02*
X250575000Y-78000000D01*
X224800000Y-82900000D02*
X223900000Y-83800000D01*
X237300000Y-82900000D02*
X224800000Y-82900000D01*
X245800000Y-78000000D02*
X247200000Y-78000000D01*
X252200000Y-78000000D02*
X257200000Y-78000000D01*
X247200000Y-78000000D02*
X247250000Y-78050000D01*
X242200000Y-78000000D02*
X237300000Y-82900000D01*
X247200000Y-78000000D02*
X248700000Y-78000000D01*
X223900000Y-83800000D02*
X223900000Y-84900000D01*
X242250000Y-78050000D02*
X242200000Y-78000000D01*
X250300000Y-78000000D02*
X252200000Y-78000000D01*
%TO.N,Net-(D2-K)*%
X192700000Y-78000000D02*
X193800000Y-76900000D01*
X192700000Y-78000000D02*
X187800000Y-78000000D01*
X193800000Y-76900000D02*
X193800000Y-74200000D01*
X193800000Y-74200000D02*
X193850000Y-74250000D01*
X192660000Y-78000000D02*
X192700000Y-78000000D01*
X187800000Y-78000000D02*
X187750000Y-78000000D01*
%TO.N,Phase 90*%
D30*
X266800000Y-62800000D02*
X267600000Y-62800000D01*
X204100000Y-62800000D02*
X205200000Y-63900000D01*
X266600000Y-57900000D02*
X266800000Y-57900000D01*
X216300000Y-61700000D02*
X217000000Y-62400000D01*
X264700000Y-56200000D02*
X264899999Y-56200000D01*
X230500000Y-61300000D02*
X234200000Y-61300000D01*
X234200000Y-61300000D02*
X239400000Y-56100000D01*
X266200000Y-59900000D02*
X265500000Y-60600000D01*
X266000000Y-58700000D02*
X266200000Y-58900000D01*
X205200000Y-63900000D02*
X213800000Y-63900000D01*
X266200000Y-58900000D02*
X266200000Y-59900000D01*
X214000000Y-63700000D02*
X214000000Y-62900000D01*
X230400000Y-61200000D02*
X230500000Y-61300000D01*
X264500000Y-56000000D02*
X264700000Y-56200000D01*
X265500000Y-60600000D02*
X265500000Y-61500000D01*
X264899999Y-56200000D02*
X266600000Y-57900000D01*
X265500000Y-61500000D02*
X266800000Y-62800000D01*
X239400000Y-56100000D02*
X263300000Y-56100000D01*
X203600000Y-62800000D02*
X204100000Y-62800000D01*
X217000000Y-62400000D02*
X229200000Y-62400000D01*
X213800000Y-63900000D02*
X214000000Y-63700000D01*
X263399999Y-56000000D02*
X264500000Y-56000000D01*
X263300000Y-56100000D02*
X263399999Y-56000000D01*
%TO.N,Phase 270*%
X208700000Y-59400000D02*
X208700000Y-59500000D01*
X222400000Y-61000000D02*
X222500000Y-61100000D01*
X234300000Y-61800000D02*
X239500000Y-56600000D01*
X222500000Y-61100000D02*
X222800000Y-61100000D01*
X224800000Y-61700000D02*
X224900000Y-61800000D01*
X208500000Y-59200000D02*
X208700000Y-59400000D01*
X224500000Y-61700000D02*
X224800000Y-61700000D01*
X224400000Y-61600000D02*
X224500000Y-61700000D01*
X224000000Y-61600000D02*
X224400000Y-61600000D01*
X208900000Y-59700000D02*
X208900000Y-59800000D01*
X263399999Y-56500000D02*
X264399999Y-56500000D01*
X208700000Y-59500000D02*
X208900000Y-59700000D01*
X210100000Y-61000000D02*
X222400000Y-61000000D01*
X266600000Y-58500000D02*
X266600000Y-61000000D01*
X204500000Y-59100000D02*
X204600000Y-59200000D01*
X204600000Y-59200000D02*
X208500000Y-59200000D01*
X223000000Y-61300000D02*
X223400000Y-61300000D01*
X223500000Y-61400000D02*
X223800000Y-61400000D01*
X264600000Y-56700000D02*
X264800000Y-56700000D01*
X223400000Y-61300000D02*
X223500000Y-61400000D01*
X222800000Y-61100000D02*
X223000000Y-61300000D01*
X224900000Y-61800000D02*
X234300000Y-61800000D01*
X208900000Y-59800000D02*
X210100000Y-61000000D01*
X239500000Y-56600000D02*
X263300000Y-56600000D01*
X264800000Y-56700000D02*
X266600000Y-58500000D01*
X263300000Y-56600000D02*
X263399999Y-56500000D01*
X264399999Y-56500000D02*
X264600000Y-56700000D01*
X223800000Y-61400000D02*
X224000000Y-61600000D01*
%TO.N,Net-(D7-K)*%
D29*
X247250000Y-71950000D02*
X247200000Y-72000000D01*
X242200000Y-72000000D02*
X242250000Y-71950000D01*
X248700000Y-70500000D02*
X248700000Y-68200000D01*
X242200000Y-67600000D02*
X242200000Y-72000000D01*
X248700000Y-68400000D02*
X245800000Y-65500000D01*
X244300000Y-65500000D02*
X242200000Y-67600000D01*
X247200000Y-72000000D02*
X248700000Y-70500000D01*
X245800000Y-65500000D02*
X244300000Y-65500000D01*
%TO.N,Net-(D3-A)*%
X179750000Y-95150000D02*
X179800000Y-95200000D01*
X178400000Y-93800000D02*
X170800000Y-93800000D01*
X170800000Y-93800000D02*
X170800000Y-93750000D01*
X179800000Y-95200000D02*
X178400000Y-93800000D01*
%TO.N,/GNDB_B*%
X240100000Y-88200000D02*
X238100000Y-88200000D01*
X219600000Y-90300000D02*
X215200000Y-94700000D01*
X215200000Y-94800000D02*
X215213000Y-94750000D01*
X250200000Y-67700000D02*
X249100000Y-66599999D01*
X250900000Y-70800000D02*
X250800000Y-70700000D01*
X250200000Y-65500000D02*
X250200000Y-58800000D01*
X212800000Y-94800000D02*
X212787000Y-94750000D01*
X215200000Y-94700000D02*
X215200000Y-94800000D01*
X236000000Y-90300000D02*
X219600000Y-90300000D01*
X238100000Y-88200000D02*
X236000000Y-90300000D01*
X249700000Y-70700000D02*
X249500000Y-70900000D01*
X219600000Y-90300000D02*
X217500000Y-88200000D01*
X253700000Y-68000000D02*
X250900000Y-70800000D01*
X249500000Y-78800000D02*
X240100000Y-88200000D01*
X250800000Y-70700000D02*
X249700000Y-70700000D01*
X215200000Y-94800000D02*
X212800000Y-94800000D01*
X250200000Y-70700000D02*
X250200000Y-67700000D01*
X249500000Y-70900000D02*
X249500000Y-78800000D01*
%TO.N,/STP U2*%
D30*
X220000000Y-70750000D02*
X220000000Y-70800000D01*
X222600000Y-68200000D02*
X222600000Y-67200000D01*
X220000000Y-70800000D02*
X222600000Y-68200000D01*
%TD*%
M02*
