%TF.GenerationSoftware,KiCad,Pcbnew,10.0.4*%
%TF.CreationDate,2026-07-16T16:17:47+02:00*%
%TF.ProjectId,HBDV3,48424456-332e-46b6-9963-61645f706362,rev?*%
%TF.SameCoordinates,Original*%
%TF.FileFunction,Copper,L2,Bot*%
%TF.FilePolarity,Positive*%
%FSLAX46Y46*%
G04 Gerber Fmt 4.6, Leading zero omitted, Abs format (unit mm)*
G04 Created by KiCad (PCBNEW 10.0.4) date 2026-07-16 16:17:47*
%MOMM*%
%LPD*%
G01*
G04 APERTURE LIST*
G04 Aperture macros list*
%AMRoundRect*
0 Rectangle with rounded corners*
0 $1 Rounding radius*
0 $2 $3 $4 $5 $6 $7 $8 $9 X,Y pos of 4 corners*
0 Add a 4 corners polygon primitive as box body*
4,1,4,$2,$3,$4,$5,$6,$7,$8,$9,$2,$3,0*
0 Add four circle primitives for the rounded corners*
1,1,$1+$1,$2,$3*
1,1,$1+$1,$4,$5*
1,1,$1+$1,$6,$7*
1,1,$1+$1,$8,$9*
0 Add four rect primitives between the rounded corners*
20,1,$1+$1,$2,$3,$4,$5,0*
20,1,$1+$1,$4,$5,$6,$7,0*
20,1,$1+$1,$6,$7,$8,$9,0*
20,1,$1+$1,$8,$9,$2,$3,0*%
G04 Aperture macros list end*
%TA.AperFunction,ComponentPad*%
%ADD10C,1.530000*%
%TD*%
%TA.AperFunction,ComponentPad*%
%ADD11C,1.950000*%
%TD*%
%TA.AperFunction,ComponentPad*%
%ADD12C,1.400000*%
%TD*%
%TA.AperFunction,ComponentPad*%
%ADD13RoundRect,0.250000X-0.550000X-0.550000X0.550000X-0.550000X0.550000X0.550000X-0.550000X0.550000X0*%
%TD*%
%TA.AperFunction,ComponentPad*%
%ADD14C,1.600000*%
%TD*%
%TA.AperFunction,ComponentPad*%
%ADD15RoundRect,0.250000X0.550000X0.550000X-0.550000X0.550000X-0.550000X-0.550000X0.550000X-0.550000X0*%
%TD*%
%TA.AperFunction,ViaPad*%
%ADD16C,0.500000*%
%TD*%
%TA.AperFunction,ViaPad*%
%ADD17C,0.600000*%
%TD*%
%TA.AperFunction,Conductor*%
%ADD18C,0.200000*%
%TD*%
%TA.AperFunction,Conductor*%
%ADD19C,0.500000*%
%TD*%
G04 APERTURE END LIST*
D10*
%TO.P,U1,*%
%TO.N,*%
X172040000Y-88250000D03*
X169500000Y-88250000D03*
%TO.P,U1,1,INA_1*%
%TO.N,Phase 0*%
X179660000Y-67250000D03*
%TO.P,U1,2,INB_2*%
%TO.N,Phase 180*%
X177120000Y-67250000D03*
%TO.P,U1,3,VDDI_3*%
%TO.N,+16.5V*%
X174580000Y-67250000D03*
%TO.P,U1,4,GNDI_4*%
%TO.N,GND*%
X172040000Y-67250000D03*
%TO.P,U1,5,EN_5*%
%TO.N,/ENABLE*%
X169500000Y-67250000D03*
%TO.P,U1,6,STP/DTC_6*%
%TO.N,/STP U1*%
X166960000Y-67250000D03*
%TO.P,U1,7,N.C._7*%
%TO.N,unconnected-(U1-N.C.-Pad7)*%
X164420000Y-67250000D03*
%TO.P,U1,8,VDDI_8*%
%TO.N,+16.5V*%
X161880000Y-67250000D03*
%TO.P,U1,9,GNDB_9*%
%TO.N,/GNDB*%
X161880000Y-88250000D03*
%TO.P,U1,10,OUTB_10*%
%TO.N,/OUTB*%
X164420000Y-88250000D03*
%TO.P,U1,11,VDDB_11*%
%TO.N,+16.5V*%
X166960000Y-88250000D03*
%TO.P,U1,12,GNDA_12*%
%TO.N,/GNDA*%
X174580000Y-88250000D03*
%TO.P,U1,13,OUTA_13*%
%TO.N,/OUTA*%
X177120000Y-88250000D03*
%TO.P,U1,14,VDDA_14*%
%TO.N,/VDDA*%
X179660000Y-88250000D03*
%TD*%
D11*
%TO.P,J6,1,Pin_1_1*%
%TO.N,/VOUTB*%
X190000000Y-58750000D03*
%TO.P,J6,2,Pin_2_2*%
%TO.N,/GNDB*%
X185000000Y-58750000D03*
%TO.P,J6,3,Pin_3_3*%
%TO.N,/GNDA*%
X180000000Y-58750000D03*
%TO.P,J6,4,Pin_4_4*%
%TO.N,/VOUTA*%
X175000000Y-58750000D03*
%TD*%
D12*
%TO.P,J2,1*%
%TO.N,GND*%
X152750000Y-80000000D03*
%TO.P,J2,2*%
%TO.N,+16.5V*%
X150970000Y-81020000D03*
%TO.P,J2,3*%
%TO.N,GND*%
X152750000Y-82040000D03*
%TO.P,J2,4*%
%TO.N,+16.5V*%
X150970000Y-83060000D03*
%TO.P,J2,5*%
%TO.N,GND*%
X152750000Y-84080000D03*
%TO.P,J2,6*%
%TO.N,+16.5V*%
X150970000Y-85100000D03*
%TO.P,J2,7*%
%TO.N,GND*%
X152750000Y-86120000D03*
%TO.P,J2,8*%
%TO.N,+16.5V*%
X150970000Y-87140000D03*
%TD*%
%TO.P,J5,1*%
%TO.N,unconnected-(J5-Pad1)*%
X207670000Y-62820000D03*
%TO.P,J5,2*%
%TO.N,unconnected-(J5-Pad2)*%
X206650000Y-61040000D03*
%TO.P,J5,3*%
%TO.N,unconnected-(J5-Pad3)*%
X205630000Y-62820000D03*
%TO.P,J5,4*%
%TO.N,/ENABLE*%
X204610000Y-61040000D03*
%TO.P,J5,5*%
%TO.N,Phase 90*%
X203590000Y-62820000D03*
%TO.P,J5,6*%
%TO.N,Phase 270*%
X202570000Y-61040000D03*
%TO.P,J5,7*%
%TO.N,Phase 0*%
X201550000Y-62820000D03*
%TO.P,J5,8*%
%TO.N,Phase 180*%
X200530000Y-61040000D03*
%TD*%
D11*
%TO.P,J3,1,Pin_1_1*%
%TO.N,GND*%
X151930000Y-58500000D03*
%TO.P,J3,2,Pin_2_2*%
%TO.N,+16.5V*%
X146930000Y-58500000D03*
%TD*%
D10*
%TO.P,U2,*%
%TO.N,*%
X227630000Y-88250000D03*
X225090000Y-88250000D03*
%TO.P,U2,1,INA_1*%
%TO.N,Phase 180*%
X235250000Y-67250000D03*
%TO.P,U2,2,INB_2*%
%TO.N,Phase 0*%
X232710000Y-67250000D03*
%TO.P,U2,3,VDDI_3*%
%TO.N,+16.5V*%
X230170000Y-67250000D03*
%TO.P,U2,4,GNDI_4*%
%TO.N,GND*%
X227630000Y-67250000D03*
%TO.P,U2,5,EN_5*%
%TO.N,/ENABLE*%
X225090000Y-67250000D03*
%TO.P,U2,6,STP/DTC_6*%
%TO.N,/STP U2*%
X222550000Y-67250000D03*
%TO.P,U2,7,N.C._7*%
%TO.N,unconnected-(U2-N.C.-Pad7)*%
X220010000Y-67250000D03*
%TO.P,U2,8,VDDI_8*%
%TO.N,+16.5V*%
X217470000Y-67250000D03*
%TO.P,U2,9,GNDB_9*%
%TO.N,/GNDB_B*%
X217470000Y-88250000D03*
%TO.P,U2,10,OUTB_10*%
%TO.N,/OUTB_B*%
X220010000Y-88250000D03*
%TO.P,U2,11,VDDB_11*%
%TO.N,+16.5V*%
X222550000Y-88250000D03*
%TO.P,U2,12,GNDA_12*%
%TO.N,/GNDA_B*%
X230170000Y-88250000D03*
%TO.P,U2,13,OUTA_13*%
%TO.N,/OUTA_B*%
X232710000Y-88250000D03*
%TO.P,U2,14,VDDA_14*%
%TO.N,/VDDA_B*%
X235250000Y-88250000D03*
%TD*%
D12*
%TO.P,J1,1*%
%TO.N,GND*%
X268930000Y-91920000D03*
%TO.P,J1,2*%
%TO.N,+16.5V*%
X270710000Y-90900000D03*
%TO.P,J1,3*%
%TO.N,GND*%
X268930000Y-89880000D03*
%TO.P,J1,4*%
%TO.N,+16.5V*%
X270710000Y-88860000D03*
%TO.P,J1,5*%
%TO.N,GND*%
X268930000Y-87840000D03*
%TO.P,J1,6*%
%TO.N,+16.5V*%
X270710000Y-86820000D03*
%TO.P,J1,7*%
%TO.N,GND*%
X268930000Y-85800000D03*
%TO.P,J1,8*%
%TO.N,+16.5V*%
X270710000Y-84780000D03*
%TD*%
D13*
%TO.P,C1,1*%
%TO.N,+16.5V*%
X146250000Y-69250000D03*
D14*
%TO.P,C1,2*%
%TO.N,GND*%
X148750000Y-69250000D03*
%TD*%
D11*
%TO.P,J7,1,Pin_1_1*%
%TO.N,/VOUTB_B*%
X255250000Y-58750000D03*
%TO.P,J7,2,Pin_2_2*%
%TO.N,/GNDB_B*%
X250250000Y-58750000D03*
%TO.P,J7,3,Pin_3_3*%
%TO.N,/GNDA_B*%
X245250000Y-58750000D03*
%TO.P,J7,4,Pin_4_4*%
%TO.N,/VOUTA_B*%
X240250000Y-58750000D03*
%TD*%
D15*
%TO.P,C8,1*%
%TO.N,+16.5V*%
X275800000Y-74500000D03*
D14*
%TO.P,C8,2*%
%TO.N,GND*%
X273300000Y-74500000D03*
%TD*%
D12*
%TO.P,J4,1*%
%TO.N,+16.5V*%
X273720000Y-62820000D03*
%TO.P,J4,2*%
%TO.N,GND*%
X272700000Y-61040000D03*
%TO.P,J4,3*%
%TO.N,unconnected-(J4-Pad3)*%
X271680000Y-62820000D03*
%TO.P,J4,4*%
%TO.N,/ENABLE*%
X270660000Y-61040000D03*
%TO.P,J4,5*%
%TO.N,Phase 0*%
X269640000Y-62820000D03*
%TO.P,J4,6*%
%TO.N,Phase 180*%
X268620000Y-61040000D03*
%TO.P,J4,7*%
%TO.N,Phase 90*%
X267600000Y-62820000D03*
%TO.P,J4,8*%
%TO.N,Phase 270*%
X266580000Y-61040000D03*
%TD*%
D16*
%TO.N,Phase 0*%
X183200000Y-67099999D03*
X239500000Y-60600000D03*
X189200000Y-67200000D03*
X199800000Y-64599999D03*
X230700000Y-65200000D03*
X218600000Y-64700000D03*
X214500000Y-65500000D03*
X243200000Y-58600000D03*
X190700000Y-67200000D03*
%TO.N,Phase 180*%
X198300000Y-63200000D03*
X183200000Y-66099999D03*
X239500000Y-62900000D03*
X241000000Y-62900000D03*
X228000000Y-71100000D03*
X263899999Y-62200000D03*
X247700000Y-65099999D03*
X190700000Y-66400000D03*
X229600000Y-71100000D03*
X189200000Y-66400000D03*
X253200000Y-63500000D03*
D17*
%TO.N,+16.5V*%
X221000000Y-86600000D03*
X253300000Y-65700000D03*
X251700000Y-65700000D03*
X222600000Y-91100000D03*
D16*
%TO.N,/ENABLE*%
X169500000Y-65200000D03*
X229500000Y-61200000D03*
X221700000Y-60400000D03*
X205200000Y-58600000D03*
D17*
%TO.N,/GNDA*%
X183000000Y-61900000D03*
X174300000Y-86100000D03*
%TO.N,/OUTA*%
X174900000Y-84100000D03*
X169300000Y-84100000D03*
X173300000Y-84100000D03*
X177100000Y-86100000D03*
X167700000Y-84100000D03*
%TO.N,/VOUTA*%
X176600000Y-72400000D03*
X179800000Y-74000000D03*
X181400000Y-74000000D03*
X177700000Y-73500000D03*
%TO.N,/VOUTB_B*%
X251100000Y-69500000D03*
X252200000Y-70600000D03*
%TO.N,/OUTA_B*%
X223100000Y-84100000D03*
X224700000Y-84100000D03*
%TO.N,/VDDA_B*%
X235200000Y-91100000D03*
%TO.N,/GNDA_B*%
X230200000Y-91100000D03*
X245200000Y-66300000D03*
%TO.N,Net-(D4-A)*%
X181400000Y-71000000D03*
X179000000Y-71000000D03*
%TO.N,/OUTB_B*%
X245800000Y-78000000D03*
X248700000Y-78000000D03*
X244200000Y-78000000D03*
X250300000Y-78000000D03*
D16*
%TO.N,Phase 90*%
X266000000Y-58700000D03*
X230400000Y-61200000D03*
X216300000Y-61700000D03*
X214000000Y-62900000D03*
X229200000Y-62400000D03*
X266800000Y-57900000D03*
%TO.N,Phase 270*%
X204500000Y-59100000D03*
D17*
%TO.N,/GNDB_B*%
X250200000Y-65500000D03*
X249100000Y-66599999D03*
%TD*%
%TO.N,Phase 0*%
D18*
X217800000Y-65500000D02*
X214500000Y-65500000D01*
X232700000Y-67200000D02*
X230700000Y-65200000D01*
X218600000Y-64700000D02*
X217800000Y-65500000D01*
X183200000Y-67099999D02*
X179800000Y-67099999D01*
X190700000Y-67200000D02*
X189200000Y-67200000D01*
X201600000Y-62800000D02*
X199800000Y-64599999D01*
X241200000Y-60600000D02*
X243200000Y-58600000D01*
X239500000Y-60600000D02*
X241200000Y-60600000D01*
%TO.N,Phase 180*%
X249300000Y-63500000D02*
X253200000Y-63500000D01*
X178200000Y-66099999D02*
X177100000Y-67200000D01*
X247700000Y-65099999D02*
X249300000Y-63500000D01*
X267500000Y-59900000D02*
X268600000Y-61000000D01*
X183200000Y-66099999D02*
X178200000Y-66099999D01*
X239500000Y-62900000D02*
X241000000Y-62900000D01*
X228000000Y-71100000D02*
X229600000Y-71100000D01*
X266200000Y-59900000D02*
X267500000Y-59900000D01*
X200500000Y-61000000D02*
X198300000Y-63200000D01*
X263899999Y-62200000D02*
X266200000Y-59900000D01*
X190700000Y-66400000D02*
X189200000Y-66400000D01*
%TO.N,+16.5V*%
D19*
X221000000Y-86600000D02*
X222600000Y-88200000D01*
X222600000Y-88200000D02*
X222600000Y-91100000D01*
X253300000Y-65700000D02*
X251700000Y-65700000D01*
%TO.N,/ENABLE*%
D18*
X169500000Y-65200000D02*
X169500000Y-67200000D01*
X226800000Y-65500000D02*
X221700000Y-60400000D01*
X225100000Y-67200000D02*
X228500000Y-63800000D01*
X228500000Y-63800000D02*
X228500000Y-62200000D01*
X205200000Y-60400000D02*
X204600000Y-61000000D01*
X205200000Y-58600000D02*
X205200000Y-60400000D01*
X228500000Y-62200000D02*
X229500000Y-61200000D01*
%TO.N,/GNDA*%
D19*
X183000000Y-61900000D02*
X180000000Y-58900000D01*
X174300000Y-86100000D02*
X174300000Y-87900000D01*
X174300000Y-87900000D02*
X174600000Y-88200000D01*
%TO.N,/OUTA*%
X177100000Y-86100000D02*
X177100000Y-88200000D01*
X174900000Y-84100000D02*
X173300000Y-84100000D01*
X169300000Y-84100000D02*
X167700000Y-84100000D01*
%TO.N,/VOUTA*%
X176600000Y-72400000D02*
X177700000Y-73500000D01*
X179800000Y-74000000D02*
X181400000Y-74000000D01*
%TO.N,/VOUTB_B*%
X251100000Y-69500000D02*
X252200000Y-70600000D01*
%TO.N,/OUTA_B*%
X224700000Y-84100000D02*
X223100000Y-84100000D01*
%TO.N,/VDDA_B*%
X235200000Y-91100000D02*
X235200000Y-88200000D01*
%TO.N,/GNDA_B*%
X245200000Y-66300000D02*
X245200000Y-58800000D01*
X230200000Y-88200000D02*
X230200000Y-91100000D01*
%TO.N,Net-(D4-A)*%
X181400000Y-71000000D02*
X179000000Y-71000000D01*
%TO.N,/OUTB_B*%
X248700000Y-78000000D02*
X250300000Y-78000000D01*
X244200000Y-78000000D02*
X245800000Y-78000000D01*
%TO.N,Phase 90*%
D18*
X214000000Y-62900000D02*
X215100000Y-62900000D01*
X266800000Y-57900000D02*
X266000000Y-58700000D01*
X229200000Y-62400000D02*
X230400000Y-61200000D01*
X215100000Y-62900000D02*
X216300000Y-61700000D01*
%TO.N,Phase 270*%
X202600000Y-61000000D02*
X204500000Y-59100000D01*
%TO.N,/GNDB_B*%
D19*
X249100000Y-66599999D02*
X250200000Y-65500000D01*
%TD*%
%TA.AperFunction,Conductor*%
%TO.N,GND*%
G36*
X163806631Y-53520185D02*
G01*
X163852386Y-53572989D01*
X163862330Y-53642147D01*
X163833305Y-53705703D01*
X163775588Y-53743160D01*
X163730709Y-53756773D01*
X163667510Y-53775945D01*
X163308904Y-53924485D01*
X163308899Y-53924487D01*
X162966599Y-54107450D01*
X162966581Y-54107461D01*
X162643860Y-54323096D01*
X162643846Y-54323106D01*
X162343801Y-54569347D01*
X162069347Y-54843801D01*
X161823106Y-55143846D01*
X161823096Y-55143860D01*
X161607461Y-55466581D01*
X161607450Y-55466599D01*
X161424487Y-55808899D01*
X161424485Y-55808904D01*
X161275945Y-56167510D01*
X161163267Y-56538958D01*
X161163264Y-56538969D01*
X161087547Y-56919635D01*
X161087544Y-56919652D01*
X161064840Y-57150173D01*
X161049500Y-57305924D01*
X161049500Y-57694076D01*
X161055817Y-57758210D01*
X161087544Y-58080347D01*
X161087547Y-58080364D01*
X161163264Y-58461030D01*
X161163267Y-58461041D01*
X161275945Y-58832489D01*
X161365197Y-59047961D01*
X161422236Y-59185667D01*
X161424485Y-59191095D01*
X161424487Y-59191100D01*
X161607450Y-59533400D01*
X161607461Y-59533418D01*
X161823096Y-59856139D01*
X161823106Y-59856153D01*
X162069347Y-60156198D01*
X162343801Y-60430652D01*
X162343806Y-60430656D01*
X162343807Y-60430657D01*
X162643852Y-60676898D01*
X162966588Y-60892543D01*
X162966597Y-60892548D01*
X162966599Y-60892549D01*
X163308899Y-61075512D01*
X163308901Y-61075512D01*
X163308907Y-61075516D01*
X163667512Y-61224055D01*
X164038949Y-61336730D01*
X164038955Y-61336731D01*
X164038958Y-61336732D01*
X164038969Y-61336735D01*
X164277680Y-61384216D01*
X164419642Y-61412454D01*
X164805924Y-61450500D01*
X164805927Y-61450500D01*
X165194073Y-61450500D01*
X165194076Y-61450500D01*
X165580358Y-61412454D01*
X165768788Y-61374973D01*
X165961030Y-61336735D01*
X165961041Y-61336732D01*
X165961041Y-61336731D01*
X165961051Y-61336730D01*
X166332488Y-61224055D01*
X166691093Y-61075516D01*
X167033412Y-60892543D01*
X167356148Y-60676898D01*
X167656193Y-60430657D01*
X167930657Y-60156193D01*
X168176898Y-59856148D01*
X168392543Y-59533412D01*
X168575516Y-59191093D01*
X168724055Y-58832488D01*
X168784306Y-58633870D01*
X173524500Y-58633870D01*
X173524500Y-58866129D01*
X173560831Y-59095514D01*
X173632601Y-59316400D01*
X173706395Y-59461226D01*
X173738039Y-59523331D01*
X173874551Y-59711224D01*
X174038776Y-59875449D01*
X174226669Y-60011961D01*
X174317061Y-60058018D01*
X174433599Y-60117398D01*
X174433601Y-60117398D01*
X174433604Y-60117400D01*
X174654486Y-60189169D01*
X174772668Y-60207886D01*
X174883871Y-60225500D01*
X174883876Y-60225500D01*
X175116129Y-60225500D01*
X175217502Y-60209443D01*
X175345514Y-60189169D01*
X175566396Y-60117400D01*
X175773331Y-60011961D01*
X175961224Y-59875449D01*
X176125449Y-59711224D01*
X176261961Y-59523331D01*
X176367400Y-59316396D01*
X176439169Y-59095514D01*
X176461345Y-58955495D01*
X176475500Y-58866129D01*
X176475500Y-58633870D01*
X178524500Y-58633870D01*
X178524500Y-58866129D01*
X178560831Y-59095514D01*
X178632601Y-59316400D01*
X178706395Y-59461226D01*
X178738039Y-59523331D01*
X178874551Y-59711224D01*
X179038776Y-59875449D01*
X179226669Y-60011961D01*
X179317061Y-60058018D01*
X179433599Y-60117398D01*
X179433601Y-60117398D01*
X179433604Y-60117400D01*
X179654486Y-60189169D01*
X179772668Y-60207886D01*
X179883871Y-60225500D01*
X179883876Y-60225500D01*
X180116122Y-60225500D01*
X180116124Y-60225500D01*
X180181493Y-60215146D01*
X180250783Y-60224100D01*
X180288570Y-60249938D01*
X182253926Y-62215293D01*
X182280805Y-62255519D01*
X182290603Y-62279172D01*
X182290606Y-62279178D01*
X182290609Y-62279185D01*
X182378210Y-62410288D01*
X182378213Y-62410292D01*
X182489707Y-62521786D01*
X182489711Y-62521789D01*
X182620814Y-62609390D01*
X182620827Y-62609397D01*
X182766498Y-62669735D01*
X182766503Y-62669737D01*
X182921153Y-62700499D01*
X182921156Y-62700500D01*
X182921158Y-62700500D01*
X183078844Y-62700500D01*
X183078845Y-62700499D01*
X183233497Y-62669737D01*
X183360698Y-62617049D01*
X183379172Y-62609397D01*
X183379172Y-62609396D01*
X183379179Y-62609394D01*
X183510289Y-62521789D01*
X183621789Y-62410289D01*
X183709394Y-62279179D01*
X183769737Y-62133497D01*
X183800500Y-61978842D01*
X183800500Y-61821158D01*
X183800500Y-61821155D01*
X183800499Y-61821153D01*
X183792900Y-61782951D01*
X183769737Y-61666503D01*
X183750268Y-61619500D01*
X183709397Y-61520827D01*
X183709390Y-61520814D01*
X183621789Y-61389711D01*
X183621786Y-61389707D01*
X183510292Y-61278213D01*
X183510288Y-61278210D01*
X183379185Y-61190609D01*
X183379180Y-61190607D01*
X183379179Y-61190606D01*
X183355519Y-61180805D01*
X183315293Y-61153926D01*
X181448196Y-59286828D01*
X181414711Y-59225505D01*
X181417945Y-59160831D01*
X181439169Y-59095514D01*
X181460915Y-58958210D01*
X181475500Y-58866129D01*
X181475500Y-58633870D01*
X183524500Y-58633870D01*
X183524500Y-58866129D01*
X183560831Y-59095514D01*
X183632601Y-59316400D01*
X183706395Y-59461226D01*
X183738039Y-59523331D01*
X183874551Y-59711224D01*
X184038776Y-59875449D01*
X184226669Y-60011961D01*
X184317061Y-60058018D01*
X184433599Y-60117398D01*
X184433601Y-60117398D01*
X184433604Y-60117400D01*
X184654486Y-60189169D01*
X184772668Y-60207886D01*
X184883871Y-60225500D01*
X184883876Y-60225500D01*
X185116129Y-60225500D01*
X185217502Y-60209443D01*
X185345514Y-60189169D01*
X185566396Y-60117400D01*
X185773331Y-60011961D01*
X185961224Y-59875449D01*
X186125449Y-59711224D01*
X186261961Y-59523331D01*
X186367400Y-59316396D01*
X186439169Y-59095514D01*
X186461345Y-58955495D01*
X186475500Y-58866129D01*
X186475500Y-58633870D01*
X188524500Y-58633870D01*
X188524500Y-58866129D01*
X188560831Y-59095514D01*
X188632601Y-59316400D01*
X188706395Y-59461226D01*
X188738039Y-59523331D01*
X188874551Y-59711224D01*
X189038776Y-59875449D01*
X189226669Y-60011961D01*
X189317061Y-60058018D01*
X189433599Y-60117398D01*
X189433601Y-60117398D01*
X189433604Y-60117400D01*
X189654486Y-60189169D01*
X189772668Y-60207886D01*
X189883871Y-60225500D01*
X189883876Y-60225500D01*
X190116129Y-60225500D01*
X190217502Y-60209443D01*
X190345514Y-60189169D01*
X190566396Y-60117400D01*
X190773331Y-60011961D01*
X190961224Y-59875449D01*
X191125449Y-59711224D01*
X191261961Y-59523331D01*
X191367400Y-59316396D01*
X191439169Y-59095514D01*
X191461345Y-58955495D01*
X191475500Y-58866129D01*
X191475500Y-58633870D01*
X191443989Y-58434919D01*
X191439169Y-58404486D01*
X191432472Y-58383876D01*
X191430794Y-58378711D01*
X195899500Y-58378711D01*
X195899500Y-58621288D01*
X195930077Y-58853553D01*
X195931162Y-58861789D01*
X195946470Y-58918917D01*
X195993947Y-59096104D01*
X196067357Y-59273331D01*
X196086776Y-59320212D01*
X196208064Y-59530289D01*
X196208066Y-59530292D01*
X196208067Y-59530293D01*
X196355733Y-59722736D01*
X196355739Y-59722743D01*
X196527256Y-59894260D01*
X196527263Y-59894266D01*
X196583284Y-59937252D01*
X196719711Y-60041936D01*
X196929788Y-60163224D01*
X197153900Y-60256054D01*
X197388211Y-60318838D01*
X197549434Y-60340063D01*
X197628711Y-60350500D01*
X197628712Y-60350500D01*
X197871289Y-60350500D01*
X197950566Y-60340063D01*
X198111789Y-60318838D01*
X198346100Y-60256054D01*
X198570212Y-60163224D01*
X198780289Y-60041936D01*
X198972738Y-59894265D01*
X199144265Y-59722738D01*
X199291936Y-59530289D01*
X199413224Y-59320212D01*
X199506054Y-59096100D01*
X199568838Y-58861789D01*
X199600500Y-58621288D01*
X199600500Y-58378712D01*
X199600461Y-58378419D01*
X199584278Y-58255495D01*
X199568838Y-58138211D01*
X199506054Y-57903900D01*
X199413224Y-57679788D01*
X199291936Y-57469711D01*
X199174794Y-57317048D01*
X199144266Y-57277263D01*
X199144260Y-57277256D01*
X198972743Y-57105739D01*
X198972736Y-57105733D01*
X198780293Y-56958067D01*
X198780292Y-56958066D01*
X198780289Y-56958064D01*
X198570212Y-56836776D01*
X198570205Y-56836773D01*
X198346104Y-56743947D01*
X198111785Y-56681161D01*
X197871289Y-56649500D01*
X197871288Y-56649500D01*
X197628712Y-56649500D01*
X197628711Y-56649500D01*
X197388214Y-56681161D01*
X197153895Y-56743947D01*
X196929794Y-56836773D01*
X196929785Y-56836777D01*
X196719706Y-56958067D01*
X196527263Y-57105733D01*
X196527256Y-57105739D01*
X196355739Y-57277256D01*
X196355733Y-57277263D01*
X196208067Y-57469706D01*
X196086777Y-57679785D01*
X196086773Y-57679794D01*
X195993947Y-57903895D01*
X195931161Y-58138214D01*
X195899500Y-58378711D01*
X191430794Y-58378711D01*
X191390759Y-58255495D01*
X191367400Y-58183604D01*
X191367398Y-58183601D01*
X191367398Y-58183599D01*
X191285242Y-58022361D01*
X191261961Y-57976669D01*
X191125449Y-57788776D01*
X190961224Y-57624551D01*
X190773331Y-57488039D01*
X190566400Y-57382601D01*
X190345514Y-57310831D01*
X190116129Y-57274500D01*
X190116124Y-57274500D01*
X189883876Y-57274500D01*
X189883871Y-57274500D01*
X189654485Y-57310831D01*
X189433599Y-57382601D01*
X189226668Y-57488039D01*
X189038773Y-57624553D01*
X188874553Y-57788773D01*
X188738039Y-57976668D01*
X188632601Y-58183599D01*
X188560831Y-58404485D01*
X188524500Y-58633870D01*
X186475500Y-58633870D01*
X186451596Y-58482948D01*
X186439169Y-58404486D01*
X186367400Y-58183604D01*
X186367398Y-58183601D01*
X186367398Y-58183599D01*
X186285242Y-58022361D01*
X186261961Y-57976669D01*
X186125449Y-57788776D01*
X185961224Y-57624551D01*
X185773331Y-57488039D01*
X185566400Y-57382601D01*
X185345514Y-57310831D01*
X185116129Y-57274500D01*
X185116124Y-57274500D01*
X184883876Y-57274500D01*
X184883871Y-57274500D01*
X184654485Y-57310831D01*
X184433599Y-57382601D01*
X184226668Y-57488039D01*
X184038773Y-57624553D01*
X183874553Y-57788773D01*
X183738039Y-57976668D01*
X183632601Y-58183599D01*
X183560831Y-58404485D01*
X183524500Y-58633870D01*
X181475500Y-58633870D01*
X181451596Y-58482948D01*
X181439169Y-58404486D01*
X181367400Y-58183604D01*
X181367398Y-58183601D01*
X181367398Y-58183599D01*
X181285242Y-58022361D01*
X181261961Y-57976669D01*
X181125449Y-57788776D01*
X180961224Y-57624551D01*
X180773331Y-57488039D01*
X180566400Y-57382601D01*
X180345514Y-57310831D01*
X180116129Y-57274500D01*
X180116124Y-57274500D01*
X179883876Y-57274500D01*
X179883871Y-57274500D01*
X179654485Y-57310831D01*
X179433599Y-57382601D01*
X179226668Y-57488039D01*
X179038773Y-57624553D01*
X178874553Y-57788773D01*
X178738039Y-57976668D01*
X178632601Y-58183599D01*
X178560831Y-58404485D01*
X178524500Y-58633870D01*
X176475500Y-58633870D01*
X176451596Y-58482948D01*
X176439169Y-58404486D01*
X176367400Y-58183604D01*
X176367398Y-58183601D01*
X176367398Y-58183599D01*
X176285242Y-58022361D01*
X176261961Y-57976669D01*
X176125449Y-57788776D01*
X175961224Y-57624551D01*
X175773331Y-57488039D01*
X175566400Y-57382601D01*
X175345514Y-57310831D01*
X175116129Y-57274500D01*
X175116124Y-57274500D01*
X174883876Y-57274500D01*
X174883871Y-57274500D01*
X174654485Y-57310831D01*
X174433599Y-57382601D01*
X174226668Y-57488039D01*
X174038773Y-57624553D01*
X173874553Y-57788773D01*
X173738039Y-57976668D01*
X173632601Y-58183599D01*
X173560831Y-58404485D01*
X173524500Y-58633870D01*
X168784306Y-58633870D01*
X168836730Y-58461051D01*
X168836733Y-58461034D01*
X168836735Y-58461030D01*
X168879802Y-58244511D01*
X168912454Y-58080358D01*
X168950500Y-57694076D01*
X168950500Y-57305924D01*
X168912454Y-56919642D01*
X168858720Y-56649500D01*
X168836735Y-56538969D01*
X168836732Y-56538958D01*
X168836731Y-56538955D01*
X168836730Y-56538949D01*
X168724055Y-56167512D01*
X168575516Y-55808907D01*
X168392543Y-55466588D01*
X168176898Y-55143852D01*
X167930657Y-54843807D01*
X167930656Y-54843806D01*
X167930652Y-54843801D01*
X167656198Y-54569347D01*
X167356153Y-54323106D01*
X167356152Y-54323105D01*
X167356148Y-54323102D01*
X167033412Y-54107457D01*
X167033407Y-54107454D01*
X167033400Y-54107450D01*
X166691100Y-53924487D01*
X166691095Y-53924485D01*
X166332489Y-53775945D01*
X166287832Y-53762398D01*
X166224411Y-53743160D01*
X166165974Y-53704863D01*
X166137518Y-53641051D01*
X166148078Y-53571984D01*
X166194302Y-53519590D01*
X166260408Y-53500500D01*
X223739592Y-53500500D01*
X223806631Y-53520185D01*
X223852386Y-53572989D01*
X223862330Y-53642147D01*
X223833305Y-53705703D01*
X223775588Y-53743160D01*
X223730709Y-53756773D01*
X223667510Y-53775945D01*
X223308904Y-53924485D01*
X223308899Y-53924487D01*
X222966599Y-54107450D01*
X222966581Y-54107461D01*
X222643860Y-54323096D01*
X222643846Y-54323106D01*
X222343801Y-54569347D01*
X222069347Y-54843801D01*
X221823106Y-55143846D01*
X221823096Y-55143860D01*
X221607461Y-55466581D01*
X221607450Y-55466599D01*
X221424487Y-55808899D01*
X221424485Y-55808904D01*
X221275945Y-56167510D01*
X221163267Y-56538958D01*
X221163264Y-56538969D01*
X221087547Y-56919635D01*
X221087544Y-56919652D01*
X221064840Y-57150173D01*
X221049500Y-57305924D01*
X221049500Y-57694076D01*
X221055817Y-57758210D01*
X221087544Y-58080347D01*
X221087547Y-58080364D01*
X221163264Y-58461030D01*
X221163267Y-58461041D01*
X221275945Y-58832489D01*
X221365197Y-59047961D01*
X221422236Y-59185667D01*
X221424485Y-59191095D01*
X221424487Y-59191100D01*
X221586519Y-59494240D01*
X221600761Y-59562643D01*
X221575761Y-59627886D01*
X221519456Y-59669257D01*
X221501355Y-59674310D01*
X221481089Y-59678341D01*
X221481082Y-59678343D01*
X221344511Y-59734912D01*
X221344498Y-59734919D01*
X221221584Y-59817048D01*
X221221580Y-59817051D01*
X221117051Y-59921580D01*
X221117048Y-59921584D01*
X221034919Y-60044498D01*
X221034912Y-60044511D01*
X220978343Y-60181082D01*
X220978340Y-60181092D01*
X220949500Y-60326079D01*
X220949500Y-60326082D01*
X220949500Y-60473918D01*
X220949500Y-60473920D01*
X220949499Y-60473920D01*
X220978340Y-60618907D01*
X220978343Y-60618917D01*
X221034912Y-60755488D01*
X221034919Y-60755501D01*
X221117048Y-60878415D01*
X221117051Y-60878419D01*
X221221580Y-60982948D01*
X221221584Y-60982951D01*
X221344498Y-61065080D01*
X221344511Y-61065087D01*
X221477374Y-61120120D01*
X221481087Y-61121658D01*
X221558212Y-61136999D01*
X221620119Y-61169382D01*
X221621699Y-61170934D01*
X225863083Y-65412318D01*
X225896568Y-65473641D01*
X225891584Y-65543333D01*
X225863083Y-65587680D01*
X225473111Y-65977652D01*
X225411788Y-66011137D01*
X225366033Y-66012444D01*
X225189597Y-65984500D01*
X224990403Y-65984500D01*
X224985605Y-65985260D01*
X224793659Y-66015661D01*
X224793656Y-66015661D01*
X224604219Y-66077213D01*
X224426733Y-66167647D01*
X224352397Y-66221656D01*
X224265582Y-66284731D01*
X224265580Y-66284733D01*
X224265579Y-66284733D01*
X224124733Y-66425579D01*
X224124733Y-66425580D01*
X224124731Y-66425582D01*
X224092650Y-66469738D01*
X224007647Y-66586733D01*
X223930485Y-66738172D01*
X223882510Y-66788968D01*
X223814689Y-66805763D01*
X223748554Y-66783225D01*
X223709515Y-66738172D01*
X223640240Y-66602213D01*
X223632353Y-66586734D01*
X223515269Y-66425582D01*
X223374418Y-66284731D01*
X223213266Y-66167647D01*
X223133058Y-66126779D01*
X223035780Y-66077213D01*
X222846342Y-66015661D01*
X222654395Y-65985260D01*
X222649597Y-65984500D01*
X222450403Y-65984500D01*
X222445605Y-65985260D01*
X222253659Y-66015661D01*
X222253656Y-66015661D01*
X222064219Y-66077213D01*
X221886733Y-66167647D01*
X221812397Y-66221656D01*
X221725582Y-66284731D01*
X221725580Y-66284733D01*
X221725579Y-66284733D01*
X221584733Y-66425579D01*
X221584733Y-66425580D01*
X221584731Y-66425582D01*
X221552650Y-66469738D01*
X221467647Y-66586733D01*
X221390485Y-66738172D01*
X221342510Y-66788968D01*
X221274689Y-66805763D01*
X221208554Y-66783225D01*
X221169515Y-66738172D01*
X221100240Y-66602213D01*
X221092353Y-66586734D01*
X220975269Y-66425582D01*
X220834418Y-66284731D01*
X220673266Y-66167647D01*
X220593058Y-66126779D01*
X220495780Y-66077213D01*
X220306342Y-66015661D01*
X220114395Y-65985260D01*
X220109597Y-65984500D01*
X219910403Y-65984500D01*
X219905605Y-65985260D01*
X219713659Y-66015661D01*
X219713656Y-66015661D01*
X219524219Y-66077213D01*
X219346733Y-66167647D01*
X219272397Y-66221656D01*
X219185582Y-66284731D01*
X219185580Y-66284733D01*
X219185579Y-66284733D01*
X219044733Y-66425579D01*
X219044733Y-66425580D01*
X219044731Y-66425582D01*
X219012650Y-66469738D01*
X218927647Y-66586733D01*
X218850485Y-66738172D01*
X218802510Y-66788968D01*
X218734689Y-66805763D01*
X218668554Y-66783225D01*
X218629515Y-66738172D01*
X218560240Y-66602213D01*
X218552353Y-66586734D01*
X218435269Y-66425582D01*
X218294418Y-66284731D01*
X218171714Y-66195581D01*
X218159924Y-66187015D01*
X218117259Y-66131685D01*
X218111280Y-66062071D01*
X218143886Y-66000276D01*
X218146702Y-65997471D01*
X218157641Y-65986913D01*
X218168716Y-65980520D01*
X218280520Y-65868716D01*
X218280521Y-65868713D01*
X218678301Y-65470932D01*
X218739622Y-65437449D01*
X218741644Y-65437027D01*
X218818913Y-65421658D01*
X218955495Y-65365084D01*
X219078416Y-65282951D01*
X219182951Y-65178416D01*
X219265084Y-65055495D01*
X219321658Y-64918913D01*
X219336459Y-64844505D01*
X219350500Y-64773920D01*
X219350500Y-64626079D01*
X219321659Y-64481092D01*
X219321658Y-64481091D01*
X219321658Y-64481087D01*
X219302533Y-64434915D01*
X219265087Y-64344511D01*
X219265080Y-64344498D01*
X219182951Y-64221584D01*
X219182948Y-64221580D01*
X219078419Y-64117051D01*
X219078415Y-64117048D01*
X218955501Y-64034919D01*
X218955488Y-64034912D01*
X218818917Y-63978343D01*
X218818907Y-63978340D01*
X218673920Y-63949500D01*
X218673918Y-63949500D01*
X218526082Y-63949500D01*
X218526080Y-63949500D01*
X218381092Y-63978340D01*
X218381082Y-63978343D01*
X218244511Y-64034912D01*
X218244498Y-64034919D01*
X218121584Y-64117048D01*
X218121580Y-64117051D01*
X218017051Y-64221580D01*
X218017048Y-64221584D01*
X217934919Y-64344498D01*
X217934912Y-64344511D01*
X217878342Y-64481084D01*
X217878340Y-64481092D01*
X217863000Y-64558210D01*
X217830615Y-64620121D01*
X217829065Y-64621699D01*
X217587582Y-64863182D01*
X217526262Y-64896666D01*
X217499903Y-64899500D01*
X214989767Y-64899500D01*
X214922728Y-64879815D01*
X214920876Y-64878602D01*
X214855501Y-64834919D01*
X214855488Y-64834912D01*
X214718917Y-64778343D01*
X214718907Y-64778340D01*
X214573920Y-64749500D01*
X214573918Y-64749500D01*
X214426082Y-64749500D01*
X214426080Y-64749500D01*
X214281092Y-64778340D01*
X214281082Y-64778343D01*
X214144511Y-64834912D01*
X214144498Y-64834919D01*
X214021584Y-64917048D01*
X214021580Y-64917051D01*
X213917051Y-65021580D01*
X213917048Y-65021584D01*
X213834919Y-65144498D01*
X213834912Y-65144511D01*
X213778343Y-65281082D01*
X213778340Y-65281092D01*
X213749500Y-65426079D01*
X213749500Y-65426082D01*
X213749500Y-65573918D01*
X213749500Y-65573920D01*
X213749499Y-65573920D01*
X213778340Y-65718907D01*
X213778343Y-65718917D01*
X213834912Y-65855488D01*
X213834919Y-65855501D01*
X213917048Y-65978415D01*
X213917051Y-65978419D01*
X214021580Y-66082948D01*
X214021584Y-66082951D01*
X214144498Y-66165080D01*
X214144511Y-66165087D01*
X214279880Y-66221158D01*
X214281087Y-66221658D01*
X214281091Y-66221658D01*
X214281092Y-66221659D01*
X214426079Y-66250500D01*
X214426082Y-66250500D01*
X214573920Y-66250500D01*
X214683858Y-66228631D01*
X214718913Y-66221658D01*
X214848269Y-66168077D01*
X214855488Y-66165087D01*
X214855488Y-66165086D01*
X214855495Y-66165084D01*
X214920876Y-66121398D01*
X214987553Y-66100520D01*
X214989767Y-66100500D01*
X216530451Y-66100500D01*
X216597490Y-66120185D01*
X216643245Y-66172989D01*
X216653189Y-66242147D01*
X216624164Y-66305703D01*
X216618132Y-66312181D01*
X216504733Y-66425579D01*
X216504733Y-66425580D01*
X216504731Y-66425582D01*
X216472650Y-66469738D01*
X216387647Y-66586733D01*
X216297213Y-66764219D01*
X216235661Y-66953656D01*
X216235661Y-66953659D01*
X216217276Y-67069737D01*
X216204500Y-67150403D01*
X216204500Y-67349597D01*
X216207690Y-67369736D01*
X216235661Y-67546340D01*
X216235661Y-67546343D01*
X216297213Y-67735780D01*
X216387514Y-67913005D01*
X216387647Y-67913266D01*
X216504731Y-68074418D01*
X216645582Y-68215269D01*
X216806734Y-68332353D01*
X216901548Y-68380663D01*
X216984219Y-68422786D01*
X217173657Y-68484338D01*
X217173658Y-68484338D01*
X217173661Y-68484339D01*
X217370403Y-68515500D01*
X217370404Y-68515500D01*
X217569596Y-68515500D01*
X217569597Y-68515500D01*
X217766339Y-68484339D01*
X217766342Y-68484338D01*
X217766343Y-68484338D01*
X217955780Y-68422786D01*
X217955780Y-68422785D01*
X217955783Y-68422785D01*
X218133266Y-68332353D01*
X218294418Y-68215269D01*
X218435269Y-68074418D01*
X218552353Y-67913266D01*
X218629515Y-67761827D01*
X218677490Y-67711031D01*
X218745311Y-67694236D01*
X218811446Y-67716773D01*
X218850485Y-67761827D01*
X218927647Y-67913266D01*
X219044731Y-68074418D01*
X219185582Y-68215269D01*
X219346734Y-68332353D01*
X219441548Y-68380663D01*
X219524219Y-68422786D01*
X219713657Y-68484338D01*
X219713658Y-68484338D01*
X219713661Y-68484339D01*
X219910403Y-68515500D01*
X219910404Y-68515500D01*
X220109596Y-68515500D01*
X220109597Y-68515500D01*
X220306339Y-68484339D01*
X220306342Y-68484338D01*
X220306343Y-68484338D01*
X220495780Y-68422786D01*
X220495780Y-68422785D01*
X220495783Y-68422785D01*
X220673266Y-68332353D01*
X220834418Y-68215269D01*
X220975269Y-68074418D01*
X221092353Y-67913266D01*
X221169515Y-67761827D01*
X221217490Y-67711031D01*
X221285311Y-67694236D01*
X221351446Y-67716773D01*
X221390485Y-67761827D01*
X221467647Y-67913266D01*
X221584731Y-68074418D01*
X221725582Y-68215269D01*
X221886734Y-68332353D01*
X221981548Y-68380663D01*
X222064219Y-68422786D01*
X222253657Y-68484338D01*
X222253658Y-68484338D01*
X222253661Y-68484339D01*
X222450403Y-68515500D01*
X222450404Y-68515500D01*
X222649596Y-68515500D01*
X222649597Y-68515500D01*
X222846339Y-68484339D01*
X222846342Y-68484338D01*
X222846343Y-68484338D01*
X223035780Y-68422786D01*
X223035780Y-68422785D01*
X223035783Y-68422785D01*
X223213266Y-68332353D01*
X223374418Y-68215269D01*
X223515269Y-68074418D01*
X223632353Y-67913266D01*
X223709515Y-67761827D01*
X223757490Y-67711031D01*
X223825311Y-67694236D01*
X223891446Y-67716773D01*
X223930485Y-67761827D01*
X224007647Y-67913266D01*
X224124731Y-68074418D01*
X224265582Y-68215269D01*
X224426734Y-68332353D01*
X224521548Y-68380663D01*
X224604219Y-68422786D01*
X224793657Y-68484338D01*
X224793658Y-68484338D01*
X224793661Y-68484339D01*
X224990403Y-68515500D01*
X224990404Y-68515500D01*
X225189596Y-68515500D01*
X225189597Y-68515500D01*
X225386339Y-68484339D01*
X225386342Y-68484338D01*
X225386343Y-68484338D01*
X225575780Y-68422786D01*
X225575780Y-68422785D01*
X225575783Y-68422785D01*
X225753266Y-68332353D01*
X225914418Y-68215269D01*
X226055269Y-68074418D01*
X226172353Y-67913266D01*
X226249795Y-67761276D01*
X226297769Y-67710481D01*
X226365590Y-67693686D01*
X226431725Y-67716223D01*
X226470765Y-67761277D01*
X226548077Y-67913008D01*
X226575580Y-67950863D01*
X226575581Y-67950864D01*
X227138871Y-67387574D01*
X227154755Y-67446853D01*
X227221898Y-67563147D01*
X227316853Y-67658102D01*
X227433147Y-67725245D01*
X227492425Y-67741128D01*
X226929134Y-68304417D01*
X226966994Y-68331924D01*
X227144405Y-68422320D01*
X227333777Y-68483852D01*
X227530437Y-68515000D01*
X227729563Y-68515000D01*
X227926222Y-68483852D01*
X228115594Y-68422320D01*
X228293005Y-68331924D01*
X228330863Y-68304418D01*
X228330863Y-68304417D01*
X227767574Y-67741128D01*
X227826853Y-67725245D01*
X227943147Y-67658102D01*
X228038102Y-67563147D01*
X228105245Y-67446853D01*
X228121128Y-67387574D01*
X228684417Y-67950863D01*
X228684418Y-67950863D01*
X228711924Y-67913005D01*
X228789234Y-67761277D01*
X228837208Y-67710481D01*
X228905029Y-67693686D01*
X228971164Y-67716223D01*
X229010204Y-67761277D01*
X229087514Y-67913005D01*
X229087647Y-67913266D01*
X229204731Y-68074418D01*
X229345582Y-68215269D01*
X229506734Y-68332353D01*
X229601548Y-68380663D01*
X229684219Y-68422786D01*
X229873657Y-68484338D01*
X229873658Y-68484338D01*
X229873661Y-68484339D01*
X230070403Y-68515500D01*
X230070404Y-68515500D01*
X230269596Y-68515500D01*
X230269597Y-68515500D01*
X230466339Y-68484339D01*
X230466342Y-68484338D01*
X230466343Y-68484338D01*
X230655780Y-68422786D01*
X230655780Y-68422785D01*
X230655783Y-68422785D01*
X230833266Y-68332353D01*
X230994418Y-68215269D01*
X231135269Y-68074418D01*
X231252353Y-67913266D01*
X231329515Y-67761827D01*
X231377490Y-67711031D01*
X231445311Y-67694236D01*
X231511446Y-67716773D01*
X231550485Y-67761827D01*
X231627647Y-67913266D01*
X231744731Y-68074418D01*
X231885582Y-68215269D01*
X232046734Y-68332353D01*
X232141548Y-68380663D01*
X232224219Y-68422786D01*
X232413657Y-68484338D01*
X232413658Y-68484338D01*
X232413661Y-68484339D01*
X232610403Y-68515500D01*
X232610404Y-68515500D01*
X232809596Y-68515500D01*
X232809597Y-68515500D01*
X233006339Y-68484339D01*
X233006342Y-68484338D01*
X233006343Y-68484338D01*
X233195780Y-68422786D01*
X233195780Y-68422785D01*
X233195783Y-68422785D01*
X233373266Y-68332353D01*
X233534418Y-68215269D01*
X233675269Y-68074418D01*
X233792353Y-67913266D01*
X233869515Y-67761827D01*
X233917490Y-67711031D01*
X233985311Y-67694236D01*
X234051446Y-67716773D01*
X234090485Y-67761827D01*
X234167647Y-67913266D01*
X234284731Y-68074418D01*
X234425582Y-68215269D01*
X234586734Y-68332353D01*
X234681548Y-68380663D01*
X234764219Y-68422786D01*
X234953657Y-68484338D01*
X234953658Y-68484338D01*
X234953661Y-68484339D01*
X235150403Y-68515500D01*
X235150404Y-68515500D01*
X235349596Y-68515500D01*
X235349597Y-68515500D01*
X235546339Y-68484339D01*
X235546342Y-68484338D01*
X235546343Y-68484338D01*
X235735780Y-68422786D01*
X235735780Y-68422785D01*
X235735783Y-68422785D01*
X235913266Y-68332353D01*
X236074418Y-68215269D01*
X236215269Y-68074418D01*
X236332353Y-67913266D01*
X236422785Y-67735783D01*
X236431006Y-67710481D01*
X236484338Y-67546343D01*
X236484338Y-67546342D01*
X236484339Y-67546339D01*
X236515500Y-67349597D01*
X236515500Y-67150403D01*
X236484339Y-66953661D01*
X236484338Y-66953657D01*
X236484338Y-66953656D01*
X236422786Y-66764219D01*
X236347783Y-66617018D01*
X236332353Y-66586734D01*
X236215269Y-66425582D01*
X236074418Y-66284731D01*
X235913266Y-66167647D01*
X235833058Y-66126779D01*
X235735780Y-66077213D01*
X235546342Y-66015661D01*
X235354395Y-65985260D01*
X235349597Y-65984500D01*
X235150403Y-65984500D01*
X235145605Y-65985260D01*
X234953659Y-66015661D01*
X234953656Y-66015661D01*
X234764219Y-66077213D01*
X234586733Y-66167647D01*
X234512397Y-66221656D01*
X234425582Y-66284731D01*
X234425580Y-66284733D01*
X234425579Y-66284733D01*
X234284733Y-66425579D01*
X234284733Y-66425580D01*
X234284731Y-66425582D01*
X234252650Y-66469738D01*
X234167647Y-66586733D01*
X234090485Y-66738172D01*
X234042510Y-66788968D01*
X233974689Y-66805763D01*
X233908554Y-66783225D01*
X233869515Y-66738172D01*
X233800240Y-66602213D01*
X233792353Y-66586734D01*
X233675269Y-66425582D01*
X233534418Y-66284731D01*
X233373266Y-66167647D01*
X233293058Y-66126779D01*
X233195780Y-66077213D01*
X233006342Y-66015661D01*
X232814395Y-65985260D01*
X232809597Y-65984500D01*
X232610403Y-65984500D01*
X232433965Y-66012444D01*
X232364672Y-66003489D01*
X232326887Y-65977652D01*
X231470934Y-65121699D01*
X231437449Y-65060376D01*
X231437025Y-65058346D01*
X231421658Y-64981087D01*
X231404665Y-64940062D01*
X231365087Y-64844511D01*
X231365080Y-64844498D01*
X231282951Y-64721584D01*
X231282948Y-64721580D01*
X231178419Y-64617051D01*
X231178415Y-64617048D01*
X231055501Y-64534919D01*
X231055488Y-64534912D01*
X230918917Y-64478343D01*
X230918907Y-64478340D01*
X230773920Y-64449500D01*
X230773918Y-64449500D01*
X230626082Y-64449500D01*
X230626080Y-64449500D01*
X230481092Y-64478340D01*
X230481082Y-64478343D01*
X230344511Y-64534912D01*
X230344498Y-64534919D01*
X230221584Y-64617048D01*
X230221580Y-64617051D01*
X230117051Y-64721580D01*
X230117048Y-64721584D01*
X230034919Y-64844498D01*
X230034912Y-64844511D01*
X229978343Y-64981082D01*
X229978340Y-64981092D01*
X229949500Y-65126079D01*
X229949500Y-65126082D01*
X229949500Y-65273918D01*
X229949500Y-65273920D01*
X229949499Y-65273920D01*
X229978340Y-65418907D01*
X229978343Y-65418917D01*
X230034912Y-65555488D01*
X230034919Y-65555501D01*
X230117048Y-65678415D01*
X230117051Y-65678419D01*
X230211451Y-65772819D01*
X230244936Y-65834142D01*
X230239952Y-65903834D01*
X230198080Y-65959767D01*
X230132616Y-65984184D01*
X230123770Y-65984500D01*
X230070403Y-65984500D01*
X230065605Y-65985260D01*
X229873659Y-66015661D01*
X229873656Y-66015661D01*
X229684219Y-66077213D01*
X229506733Y-66167647D01*
X229432397Y-66221656D01*
X229345582Y-66284731D01*
X229345580Y-66284733D01*
X229345579Y-66284733D01*
X229204733Y-66425579D01*
X229204733Y-66425580D01*
X229204731Y-66425582D01*
X229172650Y-66469738D01*
X229087645Y-66586735D01*
X229010203Y-66738723D01*
X228962229Y-66789518D01*
X228894408Y-66806313D01*
X228828273Y-66783775D01*
X228789234Y-66738722D01*
X228711924Y-66586994D01*
X228684417Y-66549135D01*
X228684417Y-66549134D01*
X228121128Y-67112424D01*
X228105245Y-67053147D01*
X228038102Y-66936853D01*
X227943147Y-66841898D01*
X227826853Y-66774755D01*
X227767574Y-66758871D01*
X228330864Y-66195581D01*
X228330863Y-66195580D01*
X228293008Y-66168077D01*
X228115594Y-66077679D01*
X227926222Y-66016147D01*
X227729563Y-65985000D01*
X227530441Y-65985000D01*
X227472248Y-65994216D01*
X227402955Y-65985260D01*
X227349504Y-65940263D01*
X227328865Y-65873511D01*
X227347591Y-65806198D01*
X227365163Y-65784070D01*
X228858506Y-64290728D01*
X228858511Y-64290724D01*
X228868714Y-64280520D01*
X228868716Y-64280520D01*
X228980520Y-64168716D01*
X229057769Y-64034916D01*
X229059577Y-64031785D01*
X229100500Y-63879057D01*
X229100500Y-63720943D01*
X229100500Y-63274500D01*
X229120185Y-63207461D01*
X229172989Y-63161706D01*
X229224500Y-63150500D01*
X229273920Y-63150500D01*
X229371462Y-63131096D01*
X229418913Y-63121658D01*
X229555495Y-63065084D01*
X229678416Y-62982951D01*
X229687447Y-62973920D01*
X238749499Y-62973920D01*
X238778340Y-63118907D01*
X238778343Y-63118917D01*
X238834912Y-63255488D01*
X238834919Y-63255501D01*
X238917048Y-63378415D01*
X238917051Y-63378419D01*
X239021580Y-63482948D01*
X239021584Y-63482951D01*
X239144498Y-63565080D01*
X239144511Y-63565087D01*
X239233809Y-63602075D01*
X239281087Y-63621658D01*
X239281091Y-63621658D01*
X239281092Y-63621659D01*
X239426079Y-63650500D01*
X239426082Y-63650500D01*
X239573920Y-63650500D01*
X239671462Y-63631096D01*
X239718913Y-63621658D01*
X239834168Y-63573918D01*
X239855488Y-63565087D01*
X239855488Y-63565086D01*
X239855495Y-63565084D01*
X239869846Y-63555495D01*
X239920876Y-63521398D01*
X239987553Y-63500520D01*
X239989767Y-63500500D01*
X240510233Y-63500500D01*
X240577272Y-63520185D01*
X240579124Y-63521398D01*
X240644498Y-63565080D01*
X240644511Y-63565087D01*
X240733809Y-63602075D01*
X240781087Y-63621658D01*
X240781091Y-63621658D01*
X240781092Y-63621659D01*
X240926079Y-63650500D01*
X240926082Y-63650500D01*
X241073920Y-63650500D01*
X241171462Y-63631096D01*
X241218913Y-63621658D01*
X241334168Y-63573918D01*
X241355488Y-63565087D01*
X241355488Y-63565086D01*
X241355495Y-63565084D01*
X241478416Y-63482951D01*
X241582951Y-63378416D01*
X241665084Y-63255495D01*
X241721658Y-63118913D01*
X241732366Y-63065080D01*
X241750500Y-62973920D01*
X241750500Y-62826079D01*
X241721659Y-62681092D01*
X241721658Y-62681091D01*
X241721658Y-62681087D01*
X241716956Y-62669735D01*
X241665087Y-62544511D01*
X241665080Y-62544498D01*
X241582951Y-62421584D01*
X241582948Y-62421580D01*
X241478419Y-62317051D01*
X241478415Y-62317048D01*
X241355501Y-62234919D01*
X241355488Y-62234912D01*
X241218917Y-62178343D01*
X241218907Y-62178340D01*
X241073920Y-62149500D01*
X241073918Y-62149500D01*
X240926082Y-62149500D01*
X240926080Y-62149500D01*
X240781092Y-62178340D01*
X240781082Y-62178343D01*
X240644511Y-62234912D01*
X240644498Y-62234919D01*
X240579124Y-62278602D01*
X240512447Y-62299480D01*
X240510233Y-62299500D01*
X239989767Y-62299500D01*
X239922728Y-62279815D01*
X239920876Y-62278602D01*
X239855501Y-62234919D01*
X239855488Y-62234912D01*
X239718917Y-62178343D01*
X239718907Y-62178340D01*
X239573920Y-62149500D01*
X239573918Y-62149500D01*
X239426082Y-62149500D01*
X239426080Y-62149500D01*
X239281092Y-62178340D01*
X239281082Y-62178343D01*
X239144511Y-62234912D01*
X239144498Y-62234919D01*
X239021584Y-62317048D01*
X239021580Y-62317051D01*
X238917051Y-62421580D01*
X238917048Y-62421584D01*
X238834919Y-62544498D01*
X238834912Y-62544511D01*
X238778343Y-62681082D01*
X238778340Y-62681092D01*
X238749500Y-62826079D01*
X238749500Y-62826082D01*
X238749500Y-62973918D01*
X238749500Y-62973920D01*
X238749499Y-62973920D01*
X229687447Y-62973920D01*
X229782951Y-62878416D01*
X229865084Y-62755495D01*
X229921658Y-62618913D01*
X229936999Y-62541786D01*
X229969381Y-62479879D01*
X229970894Y-62478340D01*
X230478301Y-61970932D01*
X230539622Y-61937449D01*
X230541644Y-61937027D01*
X230618913Y-61921658D01*
X230755495Y-61865084D01*
X230878416Y-61782951D01*
X230982951Y-61678416D01*
X231065084Y-61555495D01*
X231121658Y-61418913D01*
X231136459Y-61344505D01*
X231150500Y-61273920D01*
X231150500Y-61126079D01*
X231121659Y-60981092D01*
X231121658Y-60981091D01*
X231121658Y-60981087D01*
X231111060Y-60955501D01*
X231065087Y-60844511D01*
X231065080Y-60844498D01*
X230982951Y-60721584D01*
X230982948Y-60721580D01*
X230935288Y-60673920D01*
X238749499Y-60673920D01*
X238778340Y-60818907D01*
X238778343Y-60818917D01*
X238834912Y-60955488D01*
X238834919Y-60955501D01*
X238917048Y-61078415D01*
X238917051Y-61078419D01*
X239021580Y-61182948D01*
X239021584Y-61182951D01*
X239144498Y-61265080D01*
X239144511Y-61265087D01*
X239218481Y-61295726D01*
X239281087Y-61321658D01*
X239281091Y-61321658D01*
X239281092Y-61321659D01*
X239426079Y-61350500D01*
X239426082Y-61350500D01*
X239573920Y-61350500D01*
X239671462Y-61331096D01*
X239718913Y-61321658D01*
X239855495Y-61265084D01*
X239903030Y-61233322D01*
X239920876Y-61221398D01*
X239987553Y-61200520D01*
X239989767Y-61200500D01*
X241113331Y-61200500D01*
X241113347Y-61200501D01*
X241120943Y-61200501D01*
X241279054Y-61200501D01*
X241279057Y-61200501D01*
X241431785Y-61159577D01*
X241482558Y-61130263D01*
X241568716Y-61080520D01*
X241680520Y-60968716D01*
X241680520Y-60968714D01*
X241690724Y-60958511D01*
X241690728Y-60958506D01*
X243278301Y-59370932D01*
X243339622Y-59337449D01*
X243341644Y-59337027D01*
X243418913Y-59321658D01*
X243555495Y-59265084D01*
X243674351Y-59185666D01*
X243741028Y-59164789D01*
X243808408Y-59183273D01*
X243855099Y-59235252D01*
X243861172Y-59250447D01*
X243865926Y-59265080D01*
X243882601Y-59316400D01*
X243956395Y-59461226D01*
X243988039Y-59523331D01*
X244124551Y-59711224D01*
X244124553Y-59711226D01*
X244288779Y-59875452D01*
X244398384Y-59955083D01*
X244441051Y-60010413D01*
X244449500Y-60055402D01*
X244449500Y-65995396D01*
X244440062Y-66042844D01*
X244432099Y-66062071D01*
X244430262Y-66066506D01*
X244430260Y-66066511D01*
X244399500Y-66221153D01*
X244399500Y-66378846D01*
X244430261Y-66533489D01*
X244430264Y-66533501D01*
X244490602Y-66679172D01*
X244490609Y-66679185D01*
X244578210Y-66810288D01*
X244578213Y-66810292D01*
X244689707Y-66921786D01*
X244689711Y-66921789D01*
X244820814Y-67009390D01*
X244820827Y-67009397D01*
X244966498Y-67069735D01*
X244966503Y-67069737D01*
X245121153Y-67100499D01*
X245121156Y-67100500D01*
X245121158Y-67100500D01*
X245278844Y-67100500D01*
X245278845Y-67100499D01*
X245433497Y-67069737D01*
X245579179Y-67009394D01*
X245710289Y-66921789D01*
X245821789Y-66810289D01*
X245909394Y-66679179D01*
X245969737Y-66533497D01*
X245972193Y-66521152D01*
X248299500Y-66521152D01*
X248299500Y-66678845D01*
X248330261Y-66833488D01*
X248330264Y-66833500D01*
X248390602Y-66979171D01*
X248390609Y-66979184D01*
X248478210Y-67110287D01*
X248478213Y-67110291D01*
X248589707Y-67221785D01*
X248589711Y-67221788D01*
X248720814Y-67309389D01*
X248720827Y-67309396D01*
X248866498Y-67369734D01*
X248866503Y-67369736D01*
X249021153Y-67400498D01*
X249021156Y-67400499D01*
X249021158Y-67400499D01*
X249178844Y-67400499D01*
X249178845Y-67400498D01*
X249333497Y-67369736D01*
X249479179Y-67309393D01*
X249610289Y-67221788D01*
X249721789Y-67110288D01*
X249809394Y-66979178D01*
X249819192Y-66955521D01*
X249846069Y-66915296D01*
X250515295Y-66246070D01*
X250555519Y-66219193D01*
X250579179Y-66209394D01*
X250710289Y-66121789D01*
X250789760Y-66042317D01*
X250851081Y-66008834D01*
X250920773Y-66013818D01*
X250976707Y-66055689D01*
X250987190Y-66074100D01*
X250987736Y-66073809D01*
X250990609Y-66079184D01*
X251078210Y-66210288D01*
X251078213Y-66210292D01*
X251189707Y-66321786D01*
X251189711Y-66321789D01*
X251320814Y-66409390D01*
X251320827Y-66409397D01*
X251420060Y-66450500D01*
X251466503Y-66469737D01*
X251621153Y-66500499D01*
X251621156Y-66500500D01*
X251621158Y-66500500D01*
X251778844Y-66500500D01*
X251778845Y-66500499D01*
X251855152Y-66485320D01*
X251933488Y-66469739D01*
X251933489Y-66469738D01*
X251933497Y-66469737D01*
X251957155Y-66459937D01*
X252004604Y-66450500D01*
X252995396Y-66450500D01*
X253042844Y-66459937D01*
X253066503Y-66469737D01*
X253066508Y-66469738D01*
X253066511Y-66469739D01*
X253221153Y-66500499D01*
X253221156Y-66500500D01*
X253221158Y-66500500D01*
X253378844Y-66500500D01*
X253378845Y-66500499D01*
X253533497Y-66469737D01*
X253679179Y-66409394D01*
X253810289Y-66321789D01*
X253921789Y-66210289D01*
X253986360Y-66113652D01*
X254009391Y-66079184D01*
X254009392Y-66079181D01*
X254009394Y-66079179D01*
X254069737Y-65933497D01*
X254100500Y-65778842D01*
X254100500Y-65621158D01*
X254100500Y-65621155D01*
X254100499Y-65621153D01*
X254087437Y-65555488D01*
X254069737Y-65466503D01*
X254069735Y-65466498D01*
X254009397Y-65320827D01*
X254009390Y-65320814D01*
X253921789Y-65189711D01*
X253921786Y-65189707D01*
X253810292Y-65078213D01*
X253810288Y-65078210D01*
X253679185Y-64990609D01*
X253679172Y-64990602D01*
X253533501Y-64930264D01*
X253533489Y-64930261D01*
X253378845Y-64899500D01*
X253378842Y-64899500D01*
X253221158Y-64899500D01*
X253221155Y-64899500D01*
X253066511Y-64930260D01*
X253066506Y-64930262D01*
X253066504Y-64930262D01*
X253066503Y-64930263D01*
X253042844Y-64940062D01*
X252995396Y-64949500D01*
X252004604Y-64949500D01*
X251957155Y-64940062D01*
X251933497Y-64930263D01*
X251933493Y-64930262D01*
X251933488Y-64930260D01*
X251778845Y-64899500D01*
X251778842Y-64899500D01*
X251621158Y-64899500D01*
X251621155Y-64899500D01*
X251466510Y-64930261D01*
X251466498Y-64930264D01*
X251320827Y-64990602D01*
X251320814Y-64990609D01*
X251189711Y-65078210D01*
X251110240Y-65157681D01*
X251048916Y-65191165D01*
X250979225Y-65186181D01*
X250923291Y-65144309D01*
X250912810Y-65125898D01*
X250912264Y-65126191D01*
X250909390Y-65120814D01*
X250821789Y-64989711D01*
X250821786Y-64989707D01*
X250710292Y-64878213D01*
X250710288Y-64878210D01*
X250579185Y-64790609D01*
X250579172Y-64790602D01*
X250433501Y-64730264D01*
X250433489Y-64730261D01*
X250278845Y-64699500D01*
X250278842Y-64699500D01*
X250121158Y-64699500D01*
X250121155Y-64699500D01*
X249966510Y-64730261D01*
X249966498Y-64730264D01*
X249820827Y-64790602D01*
X249820814Y-64790609D01*
X249689711Y-64878210D01*
X249689707Y-64878213D01*
X249578213Y-64989707D01*
X249578207Y-64989715D01*
X249490607Y-65120818D01*
X249490606Y-65120819D01*
X249480805Y-65144480D01*
X249453927Y-65184703D01*
X248784704Y-65853926D01*
X248744480Y-65880804D01*
X248720822Y-65890604D01*
X248720818Y-65890606D01*
X248589715Y-65978206D01*
X248589707Y-65978212D01*
X248478213Y-66089706D01*
X248478210Y-66089710D01*
X248390609Y-66220813D01*
X248390602Y-66220826D01*
X248330264Y-66366497D01*
X248330261Y-66366509D01*
X248299500Y-66521152D01*
X245972193Y-66521152D01*
X245976301Y-66500499D01*
X245978216Y-66490873D01*
X245978216Y-66490872D01*
X246000499Y-66378846D01*
X246000500Y-66378844D01*
X246000500Y-66221155D01*
X246000499Y-66221153D01*
X245969739Y-66066511D01*
X245969738Y-66066508D01*
X245969737Y-66066503D01*
X245959937Y-66042844D01*
X245950500Y-65995396D01*
X245950500Y-65173919D01*
X246949499Y-65173919D01*
X246978340Y-65318906D01*
X246978343Y-65318916D01*
X247034912Y-65455487D01*
X247034919Y-65455500D01*
X247117048Y-65578414D01*
X247117051Y-65578418D01*
X247221580Y-65682947D01*
X247221584Y-65682950D01*
X247344498Y-65765079D01*
X247344511Y-65765086D01*
X247469960Y-65817048D01*
X247481087Y-65821657D01*
X247481091Y-65821657D01*
X247481092Y-65821658D01*
X247626079Y-65850499D01*
X247626082Y-65850499D01*
X247773920Y-65850499D01*
X247871462Y-65831095D01*
X247918913Y-65821657D01*
X248055495Y-65765083D01*
X248178416Y-65682950D01*
X248282951Y-65578415D01*
X248365084Y-65455494D01*
X248372559Y-65437449D01*
X248397042Y-65378341D01*
X248421658Y-65318912D01*
X248436999Y-65241785D01*
X248469381Y-65179878D01*
X248470873Y-65178359D01*
X249512416Y-64136819D01*
X249573739Y-64103334D01*
X249600097Y-64100500D01*
X252710233Y-64100500D01*
X252777272Y-64120185D01*
X252779124Y-64121398D01*
X252844498Y-64165080D01*
X252844511Y-64165087D01*
X252980899Y-64221580D01*
X252981087Y-64221658D01*
X252981091Y-64221658D01*
X252981092Y-64221659D01*
X253126079Y-64250500D01*
X253126082Y-64250500D01*
X253273920Y-64250500D01*
X253371462Y-64231096D01*
X253418913Y-64221658D01*
X253555495Y-64165084D01*
X253678416Y-64082951D01*
X253782951Y-63978416D01*
X253865084Y-63855495D01*
X253921658Y-63718913D01*
X253935267Y-63650500D01*
X253950500Y-63573920D01*
X253950500Y-63426079D01*
X253921659Y-63281092D01*
X253921658Y-63281091D01*
X253921658Y-63281087D01*
X253911060Y-63255501D01*
X253865087Y-63144511D01*
X253865080Y-63144498D01*
X253782951Y-63021584D01*
X253782948Y-63021580D01*
X253678419Y-62917051D01*
X253678415Y-62917048D01*
X253555501Y-62834919D01*
X253555488Y-62834912D01*
X253418917Y-62778343D01*
X253418907Y-62778340D01*
X253273920Y-62749500D01*
X253273918Y-62749500D01*
X253126082Y-62749500D01*
X253126080Y-62749500D01*
X252981092Y-62778340D01*
X252981082Y-62778343D01*
X252844511Y-62834912D01*
X252844498Y-62834919D01*
X252779124Y-62878602D01*
X252712447Y-62899480D01*
X252710233Y-62899500D01*
X249386670Y-62899500D01*
X249386654Y-62899499D01*
X249379058Y-62899499D01*
X249220943Y-62899499D01*
X249155451Y-62917048D01*
X249068214Y-62940423D01*
X249068209Y-62940426D01*
X248931290Y-63019475D01*
X248931282Y-63019481D01*
X248819478Y-63131286D01*
X247621699Y-64329063D01*
X247560376Y-64362548D01*
X247558210Y-64362999D01*
X247481092Y-64378339D01*
X247481084Y-64378341D01*
X247344511Y-64434911D01*
X247344498Y-64434918D01*
X247221584Y-64517047D01*
X247221580Y-64517050D01*
X247117051Y-64621579D01*
X247117048Y-64621583D01*
X247034919Y-64744497D01*
X247034912Y-64744510D01*
X246978343Y-64881081D01*
X246978340Y-64881091D01*
X246949500Y-65026078D01*
X246949500Y-65026081D01*
X246949500Y-65173917D01*
X246949500Y-65173919D01*
X246949499Y-65173919D01*
X245950500Y-65173919D01*
X245950500Y-60125057D01*
X245970185Y-60058018D01*
X246018209Y-60014570D01*
X246023331Y-60011961D01*
X246211224Y-59875449D01*
X246375449Y-59711224D01*
X246511961Y-59523331D01*
X246617400Y-59316396D01*
X246689169Y-59095514D01*
X246711345Y-58955495D01*
X246725500Y-58866129D01*
X246725500Y-58633870D01*
X248774500Y-58633870D01*
X248774500Y-58866129D01*
X248810831Y-59095514D01*
X248882601Y-59316400D01*
X248956395Y-59461226D01*
X248988039Y-59523331D01*
X249124551Y-59711224D01*
X249288776Y-59875449D01*
X249476669Y-60011961D01*
X249567061Y-60058018D01*
X249683599Y-60117398D01*
X249683601Y-60117398D01*
X249683604Y-60117400D01*
X249904486Y-60189169D01*
X250022668Y-60207886D01*
X250133871Y-60225500D01*
X250133876Y-60225500D01*
X250366129Y-60225500D01*
X250467502Y-60209443D01*
X250595514Y-60189169D01*
X250816396Y-60117400D01*
X251023331Y-60011961D01*
X251211224Y-59875449D01*
X251375449Y-59711224D01*
X251511961Y-59523331D01*
X251617400Y-59316396D01*
X251689169Y-59095514D01*
X251711345Y-58955495D01*
X251725500Y-58866129D01*
X251725500Y-58633870D01*
X253774500Y-58633870D01*
X253774500Y-58866129D01*
X253810831Y-59095514D01*
X253882601Y-59316400D01*
X253956395Y-59461226D01*
X253988039Y-59523331D01*
X254124551Y-59711224D01*
X254288776Y-59875449D01*
X254476669Y-60011961D01*
X254567061Y-60058018D01*
X254683599Y-60117398D01*
X254683601Y-60117398D01*
X254683604Y-60117400D01*
X254904486Y-60189169D01*
X255022668Y-60207886D01*
X255133871Y-60225500D01*
X255133876Y-60225500D01*
X255366129Y-60225500D01*
X255467502Y-60209443D01*
X255595514Y-60189169D01*
X255816396Y-60117400D01*
X256023331Y-60011961D01*
X256211224Y-59875449D01*
X256375449Y-59711224D01*
X256511961Y-59523331D01*
X256617400Y-59316396D01*
X256689169Y-59095514D01*
X256711345Y-58955495D01*
X256725500Y-58866129D01*
X256725500Y-58633870D01*
X256693989Y-58434919D01*
X256689169Y-58404486D01*
X256682472Y-58383876D01*
X256680794Y-58378711D01*
X261949500Y-58378711D01*
X261949500Y-58621288D01*
X261980077Y-58853553D01*
X261981162Y-58861789D01*
X261996470Y-58918917D01*
X262043947Y-59096104D01*
X262117357Y-59273331D01*
X262136776Y-59320212D01*
X262258064Y-59530289D01*
X262258066Y-59530292D01*
X262258067Y-59530293D01*
X262405733Y-59722736D01*
X262405739Y-59722743D01*
X262577256Y-59894260D01*
X262577263Y-59894266D01*
X262633284Y-59937252D01*
X262769711Y-60041936D01*
X262979788Y-60163224D01*
X263203900Y-60256054D01*
X263438211Y-60318838D01*
X263599434Y-60340063D01*
X263678711Y-60350500D01*
X263678712Y-60350500D01*
X263921289Y-60350500D01*
X264000566Y-60340063D01*
X264161789Y-60318838D01*
X264396100Y-60256054D01*
X264620212Y-60163224D01*
X264830289Y-60041936D01*
X264956276Y-59945262D01*
X265021442Y-59920070D01*
X265089887Y-59934108D01*
X265139877Y-59982922D01*
X265155541Y-60051013D01*
X265131905Y-60116764D01*
X265119441Y-60131321D01*
X263821698Y-61429064D01*
X263760375Y-61462549D01*
X263758209Y-61463000D01*
X263681091Y-61478340D01*
X263681083Y-61478342D01*
X263544510Y-61534912D01*
X263544497Y-61534919D01*
X263421583Y-61617048D01*
X263421579Y-61617051D01*
X263317050Y-61721580D01*
X263317047Y-61721584D01*
X263234918Y-61844498D01*
X263234911Y-61844511D01*
X263178342Y-61981082D01*
X263178339Y-61981092D01*
X263149499Y-62126079D01*
X263149499Y-62126082D01*
X263149499Y-62273918D01*
X263149499Y-62273920D01*
X263149498Y-62273920D01*
X263178339Y-62418907D01*
X263178342Y-62418917D01*
X263234911Y-62555488D01*
X263234918Y-62555501D01*
X263317047Y-62678415D01*
X263317050Y-62678419D01*
X263421579Y-62782948D01*
X263421583Y-62782951D01*
X263544497Y-62865080D01*
X263544510Y-62865087D01*
X263681081Y-62921656D01*
X263681086Y-62921658D01*
X263681090Y-62921658D01*
X263681091Y-62921659D01*
X263826078Y-62950500D01*
X263826081Y-62950500D01*
X263973919Y-62950500D01*
X264071461Y-62931096D01*
X264118912Y-62921658D01*
X264255494Y-62865084D01*
X264378415Y-62782951D01*
X264482950Y-62678416D01*
X264565083Y-62555495D01*
X264621657Y-62418913D01*
X264636998Y-62341786D01*
X264669380Y-62279879D01*
X264670873Y-62278359D01*
X265340340Y-61608892D01*
X265401662Y-61575409D01*
X265471354Y-61580393D01*
X265527287Y-61622265D01*
X265538505Y-61640280D01*
X265553240Y-61669199D01*
X265664310Y-61822073D01*
X265797927Y-61955690D01*
X265950801Y-62066760D01*
X266030347Y-62107290D01*
X266119163Y-62152545D01*
X266119165Y-62152545D01*
X266119168Y-62152547D01*
X266208263Y-62181496D01*
X266298881Y-62210940D01*
X266380631Y-62223888D01*
X266443766Y-62253817D01*
X266480697Y-62313129D01*
X266479699Y-62382991D01*
X266479179Y-62384630D01*
X266468041Y-62418912D01*
X266429059Y-62538881D01*
X266399500Y-62725513D01*
X266399500Y-62914486D01*
X266429059Y-63101118D01*
X266487454Y-63280836D01*
X266561460Y-63426079D01*
X266573240Y-63449199D01*
X266684310Y-63602073D01*
X266817927Y-63735690D01*
X266970801Y-63846760D01*
X267034184Y-63879055D01*
X267139163Y-63932545D01*
X267139165Y-63932545D01*
X267139168Y-63932547D01*
X267235497Y-63963846D01*
X267318881Y-63990940D01*
X267505514Y-64020500D01*
X267505519Y-64020500D01*
X267694486Y-64020500D01*
X267881118Y-63990940D01*
X267919653Y-63978419D01*
X268060832Y-63932547D01*
X268229199Y-63846760D01*
X268382073Y-63735690D01*
X268515690Y-63602073D01*
X268519682Y-63596578D01*
X268575009Y-63553913D01*
X268644622Y-63547932D01*
X268706418Y-63580536D01*
X268720314Y-63596573D01*
X268724310Y-63602073D01*
X268857927Y-63735690D01*
X269010801Y-63846760D01*
X269074184Y-63879055D01*
X269179163Y-63932545D01*
X269179165Y-63932545D01*
X269179168Y-63932547D01*
X269275497Y-63963846D01*
X269358881Y-63990940D01*
X269545514Y-64020500D01*
X269545519Y-64020500D01*
X269734486Y-64020500D01*
X269921118Y-63990940D01*
X269959653Y-63978419D01*
X270100832Y-63932547D01*
X270269199Y-63846760D01*
X270422073Y-63735690D01*
X270555690Y-63602073D01*
X270559682Y-63596578D01*
X270615009Y-63553913D01*
X270684622Y-63547932D01*
X270746418Y-63580536D01*
X270760314Y-63596573D01*
X270764310Y-63602073D01*
X270897927Y-63735690D01*
X271050801Y-63846760D01*
X271114184Y-63879055D01*
X271219163Y-63932545D01*
X271219165Y-63932545D01*
X271219168Y-63932547D01*
X271315497Y-63963846D01*
X271398881Y-63990940D01*
X271585514Y-64020500D01*
X271585519Y-64020500D01*
X271774486Y-64020500D01*
X271961118Y-63990940D01*
X271999653Y-63978419D01*
X272140832Y-63932547D01*
X272309199Y-63846760D01*
X272462073Y-63735690D01*
X272595690Y-63602073D01*
X272599682Y-63596578D01*
X272655009Y-63553913D01*
X272724622Y-63547932D01*
X272786418Y-63580536D01*
X272800314Y-63596573D01*
X272804310Y-63602073D01*
X272937927Y-63735690D01*
X273090801Y-63846760D01*
X273154184Y-63879055D01*
X273259163Y-63932545D01*
X273259165Y-63932545D01*
X273259168Y-63932547D01*
X273355497Y-63963846D01*
X273438881Y-63990940D01*
X273625514Y-64020500D01*
X273625519Y-64020500D01*
X273814486Y-64020500D01*
X274001118Y-63990940D01*
X274039653Y-63978419D01*
X274180832Y-63932547D01*
X274349199Y-63846760D01*
X274502073Y-63735690D01*
X274635690Y-63602073D01*
X274746760Y-63449199D01*
X274832547Y-63280832D01*
X274890940Y-63101118D01*
X274903537Y-63021584D01*
X274920500Y-62914486D01*
X274920500Y-62725513D01*
X274890940Y-62538881D01*
X274851959Y-62418912D01*
X274832547Y-62359168D01*
X274832545Y-62359165D01*
X274832545Y-62359163D01*
X274769239Y-62234919D01*
X274746760Y-62190801D01*
X274635690Y-62037927D01*
X274502073Y-61904310D01*
X274349199Y-61793240D01*
X274329000Y-61782948D01*
X274180836Y-61707454D01*
X274001119Y-61649060D01*
X273918868Y-61636032D01*
X273855733Y-61606102D01*
X273818803Y-61546790D01*
X273819801Y-61476928D01*
X273820336Y-61475240D01*
X273870452Y-61320999D01*
X273900000Y-61134447D01*
X273900000Y-60945552D01*
X273870451Y-60758997D01*
X273812085Y-60579362D01*
X273726329Y-60411059D01*
X273707883Y-60385670D01*
X273707882Y-60385669D01*
X273142137Y-60951413D01*
X273119333Y-60866306D01*
X273060090Y-60763694D01*
X272976306Y-60679910D01*
X272873694Y-60620667D01*
X272788584Y-60597861D01*
X273354328Y-60032116D01*
X273328933Y-60013666D01*
X273160637Y-59927914D01*
X272981002Y-59869548D01*
X272794447Y-59840000D01*
X272605553Y-59840000D01*
X272418997Y-59869548D01*
X272239362Y-59927914D01*
X272071060Y-60013669D01*
X272045670Y-60032116D01*
X272045669Y-60032116D01*
X272611415Y-60597861D01*
X272526306Y-60620667D01*
X272423694Y-60679910D01*
X272339910Y-60763694D01*
X272280667Y-60866306D01*
X272257861Y-60951414D01*
X271674971Y-60368524D01*
X271670621Y-60367610D01*
X271666042Y-60363967D01*
X271662797Y-60363033D01*
X271651327Y-60352258D01*
X271636000Y-60340063D01*
X271632279Y-60335815D01*
X271575690Y-60257927D01*
X271442073Y-60124310D01*
X271289199Y-60013240D01*
X271247947Y-59992221D01*
X271120836Y-59927454D01*
X270941118Y-59869059D01*
X270754486Y-59839500D01*
X270754481Y-59839500D01*
X270565519Y-59839500D01*
X270565514Y-59839500D01*
X270378881Y-59869059D01*
X270199163Y-59927454D01*
X270030800Y-60013240D01*
X269943579Y-60076610D01*
X269877927Y-60124310D01*
X269877925Y-60124312D01*
X269877924Y-60124312D01*
X269744312Y-60257924D01*
X269744307Y-60257930D01*
X269740316Y-60263424D01*
X269684985Y-60306088D01*
X269615372Y-60312066D01*
X269553578Y-60279458D01*
X269539684Y-60263424D01*
X269535692Y-60257930D01*
X269535687Y-60257924D01*
X269402075Y-60124312D01*
X269402073Y-60124310D01*
X269249199Y-60013240D01*
X269207947Y-59992221D01*
X269080836Y-59927454D01*
X268901118Y-59869059D01*
X268714486Y-59839500D01*
X268714481Y-59839500D01*
X268525519Y-59839500D01*
X268525512Y-59839500D01*
X268383511Y-59861990D01*
X268314218Y-59853035D01*
X268276433Y-59827198D01*
X267987590Y-59538355D01*
X267987588Y-59538352D01*
X267868717Y-59419481D01*
X267868716Y-59419480D01*
X267781904Y-59369360D01*
X267781904Y-59369359D01*
X267781900Y-59369358D01*
X267731785Y-59340423D01*
X267579057Y-59299499D01*
X267420943Y-59299499D01*
X267413347Y-59299499D01*
X267413331Y-59299500D01*
X266734033Y-59299500D01*
X266666994Y-59279815D01*
X266621239Y-59227011D01*
X266611295Y-59157853D01*
X266630931Y-59106609D01*
X266665080Y-59055501D01*
X266665080Y-59055500D01*
X266665084Y-59055495D01*
X266666741Y-59051496D01*
X266697333Y-58977639D01*
X266721658Y-58918913D01*
X266736999Y-58841786D01*
X266745763Y-58825031D01*
X266749783Y-58806553D01*
X266768522Y-58781520D01*
X266769381Y-58779879D01*
X266770876Y-58778357D01*
X266878301Y-58670932D01*
X266939622Y-58637449D01*
X266941644Y-58637027D01*
X267018913Y-58621658D01*
X267155495Y-58565084D01*
X267278416Y-58482951D01*
X267382951Y-58378416D01*
X267465084Y-58255495D01*
X267521658Y-58118913D01*
X267534081Y-58056462D01*
X267550500Y-57973920D01*
X267550500Y-57826079D01*
X267521659Y-57681092D01*
X267521658Y-57681091D01*
X267521658Y-57681087D01*
X267498240Y-57624551D01*
X267465087Y-57544511D01*
X267465080Y-57544498D01*
X267382951Y-57421584D01*
X267382948Y-57421580D01*
X267278419Y-57317051D01*
X267278415Y-57317048D01*
X267155501Y-57234919D01*
X267155488Y-57234912D01*
X267018917Y-57178343D01*
X267018907Y-57178340D01*
X266873920Y-57149500D01*
X266873918Y-57149500D01*
X266726082Y-57149500D01*
X266726080Y-57149500D01*
X266581092Y-57178340D01*
X266581082Y-57178343D01*
X266444511Y-57234912D01*
X266444498Y-57234919D01*
X266321584Y-57317048D01*
X266321580Y-57317051D01*
X266217051Y-57421580D01*
X266217048Y-57421584D01*
X266134919Y-57544498D01*
X266134912Y-57544511D01*
X266078342Y-57681084D01*
X266078340Y-57681092D01*
X266063000Y-57758210D01*
X266054234Y-57774966D01*
X266050215Y-57793445D01*
X266031472Y-57818481D01*
X266030615Y-57820121D01*
X266029064Y-57821699D01*
X265921699Y-57929064D01*
X265860376Y-57962549D01*
X265858210Y-57963000D01*
X265781092Y-57978340D01*
X265781084Y-57978342D01*
X265727120Y-58000695D01*
X265657650Y-58008164D01*
X265595171Y-57976888D01*
X265559894Y-57918229D01*
X265556054Y-57903900D01*
X265523821Y-57826082D01*
X265463224Y-57679788D01*
X265341936Y-57469711D01*
X265224794Y-57317048D01*
X265194266Y-57277263D01*
X265194260Y-57277256D01*
X265022743Y-57105739D01*
X265022736Y-57105733D01*
X264830293Y-56958067D01*
X264830292Y-56958066D01*
X264830289Y-56958064D01*
X264620212Y-56836776D01*
X264620205Y-56836773D01*
X264396104Y-56743947D01*
X264161785Y-56681161D01*
X263921289Y-56649500D01*
X263921288Y-56649500D01*
X263678712Y-56649500D01*
X263678711Y-56649500D01*
X263438214Y-56681161D01*
X263203895Y-56743947D01*
X262979794Y-56836773D01*
X262979785Y-56836777D01*
X262769706Y-56958067D01*
X262577263Y-57105733D01*
X262577256Y-57105739D01*
X262405739Y-57277256D01*
X262405733Y-57277263D01*
X262258067Y-57469706D01*
X262136777Y-57679785D01*
X262136773Y-57679794D01*
X262043947Y-57903895D01*
X261981161Y-58138214D01*
X261949500Y-58378711D01*
X256680794Y-58378711D01*
X256640759Y-58255495D01*
X256617400Y-58183604D01*
X256617398Y-58183601D01*
X256617398Y-58183599D01*
X256535242Y-58022361D01*
X256511961Y-57976669D01*
X256375449Y-57788776D01*
X256211224Y-57624551D01*
X256023331Y-57488039D01*
X255816400Y-57382601D01*
X255595514Y-57310831D01*
X255366129Y-57274500D01*
X255366124Y-57274500D01*
X255133876Y-57274500D01*
X255133871Y-57274500D01*
X254904485Y-57310831D01*
X254683599Y-57382601D01*
X254476668Y-57488039D01*
X254288773Y-57624553D01*
X254124553Y-57788773D01*
X253988039Y-57976668D01*
X253882601Y-58183599D01*
X253810831Y-58404485D01*
X253774500Y-58633870D01*
X251725500Y-58633870D01*
X251701596Y-58482948D01*
X251689169Y-58404486D01*
X251617400Y-58183604D01*
X251617398Y-58183601D01*
X251617398Y-58183599D01*
X251535242Y-58022361D01*
X251511961Y-57976669D01*
X251375449Y-57788776D01*
X251211224Y-57624551D01*
X251023331Y-57488039D01*
X250816400Y-57382601D01*
X250595514Y-57310831D01*
X250366129Y-57274500D01*
X250366124Y-57274500D01*
X250133876Y-57274500D01*
X250133871Y-57274500D01*
X249904485Y-57310831D01*
X249683599Y-57382601D01*
X249476668Y-57488039D01*
X249288773Y-57624553D01*
X249124553Y-57788773D01*
X248988039Y-57976668D01*
X248882601Y-58183599D01*
X248810831Y-58404485D01*
X248774500Y-58633870D01*
X246725500Y-58633870D01*
X246701596Y-58482948D01*
X246689169Y-58404486D01*
X246617400Y-58183604D01*
X246617398Y-58183601D01*
X246617398Y-58183599D01*
X246535242Y-58022361D01*
X246511961Y-57976669D01*
X246375449Y-57788776D01*
X246211224Y-57624551D01*
X246023331Y-57488039D01*
X245816400Y-57382601D01*
X245595514Y-57310831D01*
X245366129Y-57274500D01*
X245366124Y-57274500D01*
X245133876Y-57274500D01*
X245133871Y-57274500D01*
X244904485Y-57310831D01*
X244683599Y-57382601D01*
X244476668Y-57488039D01*
X244288773Y-57624553D01*
X244124553Y-57788773D01*
X243988035Y-57976673D01*
X243947381Y-58056462D01*
X243899407Y-58107258D01*
X243831586Y-58124053D01*
X243765451Y-58101515D01*
X243749216Y-58087848D01*
X243678419Y-58017051D01*
X243678415Y-58017048D01*
X243555501Y-57934919D01*
X243555488Y-57934912D01*
X243418917Y-57878343D01*
X243418907Y-57878340D01*
X243273920Y-57849500D01*
X243273918Y-57849500D01*
X243126082Y-57849500D01*
X243126080Y-57849500D01*
X242981092Y-57878340D01*
X242981082Y-57878343D01*
X242844511Y-57934912D01*
X242844498Y-57934919D01*
X242721584Y-58017048D01*
X242721580Y-58017051D01*
X242617051Y-58121580D01*
X242617048Y-58121584D01*
X242534919Y-58244498D01*
X242534912Y-58244511D01*
X242478342Y-58381084D01*
X242478340Y-58381092D01*
X242463000Y-58458210D01*
X242430615Y-58520121D01*
X242429064Y-58521699D01*
X241927768Y-59022995D01*
X241866445Y-59056480D01*
X241796753Y-59051496D01*
X241740820Y-59009624D01*
X241716403Y-58944160D01*
X241717614Y-58915915D01*
X241725500Y-58866128D01*
X241725500Y-58633870D01*
X241701596Y-58482948D01*
X241689169Y-58404486D01*
X241617400Y-58183604D01*
X241617398Y-58183601D01*
X241617398Y-58183599D01*
X241535242Y-58022361D01*
X241511961Y-57976669D01*
X241375449Y-57788776D01*
X241211224Y-57624551D01*
X241023331Y-57488039D01*
X240816400Y-57382601D01*
X240595514Y-57310831D01*
X240366129Y-57274500D01*
X240366124Y-57274500D01*
X240133876Y-57274500D01*
X240133871Y-57274500D01*
X239904485Y-57310831D01*
X239683599Y-57382601D01*
X239476668Y-57488039D01*
X239288773Y-57624553D01*
X239124553Y-57788773D01*
X238988039Y-57976668D01*
X238882601Y-58183599D01*
X238810831Y-58404485D01*
X238774500Y-58633870D01*
X238774500Y-58866129D01*
X238810831Y-59095514D01*
X238882601Y-59316400D01*
X238956395Y-59461226D01*
X238988039Y-59523331D01*
X239124551Y-59711224D01*
X239124553Y-59711226D01*
X239159796Y-59746469D01*
X239193281Y-59807792D01*
X239188297Y-59877484D01*
X239146425Y-59933417D01*
X239141007Y-59937252D01*
X239021580Y-60017051D01*
X238917051Y-60121580D01*
X238917048Y-60121584D01*
X238834919Y-60244498D01*
X238834912Y-60244511D01*
X238778343Y-60381082D01*
X238778340Y-60381092D01*
X238749500Y-60526079D01*
X238749500Y-60526082D01*
X238749500Y-60673918D01*
X238749500Y-60673920D01*
X238749499Y-60673920D01*
X230935288Y-60673920D01*
X230878418Y-60617050D01*
X230755501Y-60534919D01*
X230755488Y-60534912D01*
X230618917Y-60478343D01*
X230618907Y-60478340D01*
X230473920Y-60449500D01*
X230473918Y-60449500D01*
X230326082Y-60449500D01*
X230326080Y-60449500D01*
X230181092Y-60478340D01*
X230181082Y-60478343D01*
X230044506Y-60534914D01*
X230044504Y-60534915D01*
X230018889Y-60552031D01*
X229952211Y-60572908D01*
X229884831Y-60554422D01*
X229881111Y-60552031D01*
X229855495Y-60534915D01*
X229855493Y-60534914D01*
X229718917Y-60478343D01*
X229718907Y-60478340D01*
X229573920Y-60449500D01*
X229573918Y-60449500D01*
X229426082Y-60449500D01*
X229426080Y-60449500D01*
X229281092Y-60478340D01*
X229281082Y-60478343D01*
X229144511Y-60534912D01*
X229144498Y-60534919D01*
X229021584Y-60617048D01*
X229021580Y-60617051D01*
X228917051Y-60721580D01*
X228917048Y-60721584D01*
X228834919Y-60844498D01*
X228834912Y-60844511D01*
X228778342Y-60981084D01*
X228778340Y-60981090D01*
X228763000Y-61058210D01*
X228730614Y-61120120D01*
X228729064Y-61121698D01*
X228131286Y-61719478D01*
X228019481Y-61831282D01*
X228019477Y-61831287D01*
X227977319Y-61904309D01*
X227977319Y-61904310D01*
X227940423Y-61968214D01*
X227926781Y-62019124D01*
X227899499Y-62120943D01*
X227899499Y-62120945D01*
X227899499Y-62289046D01*
X227899500Y-62289059D01*
X227899500Y-63499903D01*
X227879815Y-63566942D01*
X227863181Y-63587584D01*
X226887681Y-64563084D01*
X226826358Y-64596569D01*
X226756666Y-64591585D01*
X226712319Y-64563084D01*
X223595218Y-61445983D01*
X223561733Y-61384660D01*
X223566717Y-61314968D01*
X223608589Y-61259035D01*
X223674053Y-61234618D01*
X223718889Y-61239640D01*
X224038949Y-61336730D01*
X224038963Y-61336732D01*
X224038964Y-61336733D01*
X224038969Y-61336735D01*
X224277680Y-61384216D01*
X224419642Y-61412454D01*
X224805924Y-61450500D01*
X224805927Y-61450500D01*
X225194073Y-61450500D01*
X225194076Y-61450500D01*
X225580358Y-61412454D01*
X225768788Y-61374973D01*
X225961030Y-61336735D01*
X225961041Y-61336732D01*
X225961041Y-61336731D01*
X225961051Y-61336730D01*
X226332488Y-61224055D01*
X226691093Y-61075516D01*
X227033412Y-60892543D01*
X227356148Y-60676898D01*
X227656193Y-60430657D01*
X227930657Y-60156193D01*
X228176898Y-59856148D01*
X228392543Y-59533412D01*
X228575516Y-59191093D01*
X228724055Y-58832488D01*
X228836730Y-58461051D01*
X228836732Y-58461041D01*
X228836735Y-58461030D01*
X228879802Y-58244511D01*
X228912454Y-58080358D01*
X228950500Y-57694076D01*
X228950500Y-57305924D01*
X228912454Y-56919642D01*
X228858720Y-56649500D01*
X228836735Y-56538969D01*
X228836732Y-56538958D01*
X228836731Y-56538955D01*
X228836730Y-56538949D01*
X228724055Y-56167512D01*
X228575516Y-55808907D01*
X228392543Y-55466588D01*
X228176898Y-55143852D01*
X227930657Y-54843807D01*
X227930656Y-54843806D01*
X227930652Y-54843801D01*
X227656198Y-54569347D01*
X227356153Y-54323106D01*
X227356152Y-54323105D01*
X227356148Y-54323102D01*
X227033412Y-54107457D01*
X227033407Y-54107454D01*
X227033400Y-54107450D01*
X226691100Y-53924487D01*
X226691095Y-53924485D01*
X226332489Y-53775945D01*
X226287832Y-53762398D01*
X226224411Y-53743160D01*
X226165974Y-53704863D01*
X226137518Y-53641051D01*
X226148078Y-53571984D01*
X226194302Y-53519590D01*
X226260408Y-53500500D01*
X277875500Y-53500500D01*
X277942539Y-53520185D01*
X277988294Y-53572989D01*
X277999500Y-53624500D01*
X277999500Y-57083134D01*
X277979815Y-57150173D01*
X277927011Y-57195928D01*
X277857853Y-57205872D01*
X277794297Y-57176847D01*
X277787819Y-57170815D01*
X277722743Y-57105739D01*
X277722736Y-57105733D01*
X277530293Y-56958067D01*
X277530292Y-56958066D01*
X277530289Y-56958064D01*
X277320212Y-56836776D01*
X277320205Y-56836773D01*
X277096104Y-56743947D01*
X276861785Y-56681161D01*
X276621289Y-56649500D01*
X276621288Y-56649500D01*
X276378712Y-56649500D01*
X276378711Y-56649500D01*
X276138214Y-56681161D01*
X275903895Y-56743947D01*
X275679794Y-56836773D01*
X275679785Y-56836777D01*
X275469706Y-56958067D01*
X275277263Y-57105733D01*
X275277256Y-57105739D01*
X275105739Y-57277256D01*
X275105733Y-57277263D01*
X274958067Y-57469706D01*
X274836777Y-57679785D01*
X274836773Y-57679794D01*
X274743947Y-57903895D01*
X274681161Y-58138214D01*
X274649500Y-58378711D01*
X274649500Y-58621288D01*
X274680077Y-58853553D01*
X274681162Y-58861789D01*
X274696470Y-58918917D01*
X274743947Y-59096104D01*
X274817357Y-59273331D01*
X274836776Y-59320212D01*
X274958064Y-59530289D01*
X274958066Y-59530292D01*
X274958067Y-59530293D01*
X275105733Y-59722736D01*
X275105739Y-59722743D01*
X275277256Y-59894260D01*
X275277263Y-59894266D01*
X275333284Y-59937252D01*
X275469711Y-60041936D01*
X275679788Y-60163224D01*
X275903900Y-60256054D01*
X276138211Y-60318838D01*
X276299434Y-60340063D01*
X276378711Y-60350500D01*
X276378712Y-60350500D01*
X276621289Y-60350500D01*
X276700566Y-60340063D01*
X276861789Y-60318838D01*
X277096100Y-60256054D01*
X277320212Y-60163224D01*
X277530289Y-60041936D01*
X277722738Y-59894265D01*
X277755013Y-59861990D01*
X277787819Y-59829185D01*
X277849142Y-59795700D01*
X277918834Y-59800684D01*
X277974767Y-59842556D01*
X277999184Y-59908020D01*
X277999500Y-59916866D01*
X277999500Y-97375500D01*
X277979815Y-97442539D01*
X277927011Y-97488294D01*
X277875500Y-97499500D01*
X143624500Y-97499500D01*
X143557461Y-97479815D01*
X143511706Y-97427011D01*
X143500500Y-97375500D01*
X143500500Y-94578711D01*
X271399500Y-94578711D01*
X271399500Y-94821288D01*
X271431161Y-95061785D01*
X271493947Y-95296104D01*
X271586773Y-95520205D01*
X271586776Y-95520212D01*
X271708064Y-95730289D01*
X271708066Y-95730292D01*
X271708067Y-95730293D01*
X271855733Y-95922736D01*
X271855739Y-95922743D01*
X272027256Y-96094260D01*
X272027262Y-96094265D01*
X272219711Y-96241936D01*
X272429788Y-96363224D01*
X272653900Y-96456054D01*
X272888211Y-96518838D01*
X273068586Y-96542584D01*
X273128711Y-96550500D01*
X273128712Y-96550500D01*
X273371289Y-96550500D01*
X273419388Y-96544167D01*
X273611789Y-96518838D01*
X273846100Y-96456054D01*
X274070212Y-96363224D01*
X274280289Y-96241936D01*
X274472738Y-96094265D01*
X274644265Y-95922738D01*
X274791936Y-95730289D01*
X274913224Y-95520212D01*
X275006054Y-95296100D01*
X275068838Y-95061789D01*
X275100500Y-94821288D01*
X275100500Y-94578712D01*
X275068838Y-94338211D01*
X275006054Y-94103900D01*
X274913224Y-93879788D01*
X274791936Y-93669711D01*
X274644265Y-93477262D01*
X274644260Y-93477256D01*
X274472743Y-93305739D01*
X274472736Y-93305733D01*
X274280293Y-93158067D01*
X274280292Y-93158066D01*
X274280289Y-93158064D01*
X274070212Y-93036776D01*
X274058887Y-93032085D01*
X273846104Y-92943947D01*
X273611785Y-92881161D01*
X273371289Y-92849500D01*
X273371288Y-92849500D01*
X273128712Y-92849500D01*
X273128711Y-92849500D01*
X272888214Y-92881161D01*
X272653895Y-92943947D01*
X272429794Y-93036773D01*
X272429785Y-93036777D01*
X272219706Y-93158067D01*
X272027263Y-93305733D01*
X272027256Y-93305739D01*
X271855739Y-93477256D01*
X271855733Y-93477263D01*
X271708067Y-93669706D01*
X271586777Y-93879785D01*
X271586773Y-93879794D01*
X271493947Y-94103895D01*
X271431161Y-94338214D01*
X271399500Y-94578711D01*
X143500500Y-94578711D01*
X143500500Y-89798711D01*
X146579500Y-89798711D01*
X146579500Y-90041288D01*
X146611161Y-90281785D01*
X146673947Y-90516104D01*
X146766773Y-90740205D01*
X146766776Y-90740212D01*
X146888064Y-90950289D01*
X146888066Y-90950292D01*
X146888067Y-90950293D01*
X147035733Y-91142736D01*
X147035739Y-91142743D01*
X147207256Y-91314260D01*
X147207263Y-91314266D01*
X147320321Y-91401018D01*
X147399711Y-91461936D01*
X147609788Y-91583224D01*
X147833900Y-91676054D01*
X148068211Y-91738838D01*
X148248586Y-91762584D01*
X148308711Y-91770500D01*
X148308712Y-91770500D01*
X148551289Y-91770500D01*
X148599388Y-91764167D01*
X148791789Y-91738838D01*
X149026100Y-91676054D01*
X149250212Y-91583224D01*
X149460289Y-91461936D01*
X149652738Y-91314265D01*
X149824265Y-91142738D01*
X149971936Y-90950289D01*
X150093224Y-90740212D01*
X150186054Y-90516100D01*
X150248838Y-90281789D01*
X150280500Y-90041288D01*
X150280500Y-89798712D01*
X150278767Y-89785552D01*
X150262562Y-89662455D01*
X150248838Y-89558211D01*
X150186054Y-89323900D01*
X150093224Y-89099788D01*
X149971936Y-88889711D01*
X149839236Y-88716773D01*
X149824266Y-88697263D01*
X149824260Y-88697256D01*
X149652743Y-88525739D01*
X149652736Y-88525733D01*
X149460293Y-88378067D01*
X149460292Y-88378066D01*
X149460289Y-88378064D01*
X149250212Y-88256776D01*
X149250205Y-88256773D01*
X149026104Y-88163947D01*
X148848307Y-88116306D01*
X148791789Y-88101162D01*
X148791788Y-88101161D01*
X148791785Y-88101161D01*
X148551289Y-88069500D01*
X148551288Y-88069500D01*
X148308712Y-88069500D01*
X148308711Y-88069500D01*
X148068214Y-88101161D01*
X147833895Y-88163947D01*
X147609794Y-88256773D01*
X147609785Y-88256777D01*
X147399706Y-88378067D01*
X147207263Y-88525733D01*
X147207256Y-88525739D01*
X147035739Y-88697256D01*
X147035733Y-88697263D01*
X146888067Y-88889706D01*
X146766777Y-89099785D01*
X146766773Y-89099794D01*
X146673947Y-89323895D01*
X146611161Y-89558214D01*
X146579500Y-89798711D01*
X143500500Y-89798711D01*
X143500500Y-80925513D01*
X149769500Y-80925513D01*
X149769500Y-81114486D01*
X149799059Y-81301118D01*
X149857454Y-81480836D01*
X149928702Y-81620667D01*
X149943240Y-81649199D01*
X150054310Y-81802073D01*
X150187927Y-81935690D01*
X150187930Y-81935692D01*
X150193424Y-81939684D01*
X150236088Y-81995015D01*
X150242066Y-82064628D01*
X150209458Y-82126422D01*
X150193424Y-82140316D01*
X150187930Y-82144307D01*
X150187924Y-82144312D01*
X150054312Y-82277924D01*
X150054312Y-82277925D01*
X150054310Y-82277927D01*
X150035034Y-82304458D01*
X149943240Y-82430800D01*
X149857454Y-82599163D01*
X149799059Y-82778881D01*
X149769500Y-82965513D01*
X149769500Y-83154486D01*
X149799059Y-83341118D01*
X149857454Y-83520836D01*
X149928702Y-83660667D01*
X149943240Y-83689199D01*
X150054310Y-83842073D01*
X150187927Y-83975690D01*
X150187930Y-83975692D01*
X150193424Y-83979684D01*
X150236088Y-84035015D01*
X150242066Y-84104628D01*
X150209458Y-84166422D01*
X150193424Y-84180316D01*
X150187930Y-84184307D01*
X150187924Y-84184312D01*
X150054312Y-84317924D01*
X150054312Y-84317925D01*
X150054310Y-84317927D01*
X150042998Y-84333497D01*
X149943240Y-84470800D01*
X149857454Y-84639163D01*
X149799059Y-84818881D01*
X149769500Y-85005513D01*
X149769500Y-85194486D01*
X149799059Y-85381118D01*
X149857454Y-85560836D01*
X149926165Y-85695687D01*
X149943240Y-85729199D01*
X150054310Y-85882073D01*
X150187927Y-86015690D01*
X150187930Y-86015692D01*
X150193424Y-86019684D01*
X150236088Y-86075015D01*
X150242066Y-86144628D01*
X150209458Y-86206422D01*
X150193424Y-86220316D01*
X150187930Y-86224307D01*
X150187924Y-86224312D01*
X150054312Y-86357924D01*
X150054312Y-86357925D01*
X150054310Y-86357927D01*
X150035034Y-86384458D01*
X149943240Y-86510800D01*
X149857454Y-86679163D01*
X149799059Y-86858881D01*
X149769500Y-87045513D01*
X149769500Y-87234486D01*
X149799059Y-87421118D01*
X149857454Y-87600836D01*
X149911322Y-87706557D01*
X149943240Y-87769199D01*
X150054310Y-87922073D01*
X150187927Y-88055690D01*
X150340801Y-88166760D01*
X150406215Y-88200090D01*
X150509163Y-88252545D01*
X150509165Y-88252545D01*
X150509168Y-88252547D01*
X150605497Y-88283846D01*
X150688881Y-88310940D01*
X150875514Y-88340500D01*
X150875519Y-88340500D01*
X151064486Y-88340500D01*
X151251118Y-88310940D01*
X151282827Y-88300637D01*
X151430832Y-88252547D01*
X151599199Y-88166760D01*
X151621712Y-88150403D01*
X160614500Y-88150403D01*
X160614500Y-88349596D01*
X160645661Y-88546340D01*
X160645661Y-88546343D01*
X160707213Y-88735780D01*
X160785643Y-88889706D01*
X160797647Y-88913266D01*
X160914731Y-89074418D01*
X161055582Y-89215269D01*
X161216734Y-89332353D01*
X161387499Y-89419362D01*
X161394219Y-89422786D01*
X161583657Y-89484338D01*
X161583658Y-89484338D01*
X161583661Y-89484339D01*
X161780403Y-89515500D01*
X161780404Y-89515500D01*
X161979596Y-89515500D01*
X161979597Y-89515500D01*
X162176339Y-89484339D01*
X162176342Y-89484338D01*
X162176343Y-89484338D01*
X162365780Y-89422786D01*
X162365780Y-89422785D01*
X162365783Y-89422785D01*
X162543266Y-89332353D01*
X162704418Y-89215269D01*
X162845269Y-89074418D01*
X162962353Y-88913266D01*
X163039515Y-88761827D01*
X163087490Y-88711031D01*
X163155311Y-88694236D01*
X163221446Y-88716773D01*
X163260485Y-88761827D01*
X163337647Y-88913266D01*
X163454731Y-89074418D01*
X163595582Y-89215269D01*
X163756734Y-89332353D01*
X163927499Y-89419362D01*
X163934219Y-89422786D01*
X164123657Y-89484338D01*
X164123658Y-89484338D01*
X164123661Y-89484339D01*
X164320403Y-89515500D01*
X164320404Y-89515500D01*
X164519596Y-89515500D01*
X164519597Y-89515500D01*
X164716339Y-89484339D01*
X164716342Y-89484338D01*
X164716343Y-89484338D01*
X164905780Y-89422786D01*
X164905780Y-89422785D01*
X164905783Y-89422785D01*
X165083266Y-89332353D01*
X165244418Y-89215269D01*
X165385269Y-89074418D01*
X165502353Y-88913266D01*
X165579515Y-88761827D01*
X165627490Y-88711031D01*
X165695311Y-88694236D01*
X165761446Y-88716773D01*
X165800485Y-88761827D01*
X165877647Y-88913266D01*
X165994731Y-89074418D01*
X166135582Y-89215269D01*
X166296734Y-89332353D01*
X166467499Y-89419362D01*
X166474219Y-89422786D01*
X166663657Y-89484338D01*
X166663658Y-89484338D01*
X166663661Y-89484339D01*
X166860403Y-89515500D01*
X166860404Y-89515500D01*
X167059596Y-89515500D01*
X167059597Y-89515500D01*
X167256339Y-89484339D01*
X167256342Y-89484338D01*
X167256343Y-89484338D01*
X167445780Y-89422786D01*
X167445780Y-89422785D01*
X167445783Y-89422785D01*
X167623266Y-89332353D01*
X167784418Y-89215269D01*
X167925269Y-89074418D01*
X168042353Y-88913266D01*
X168119515Y-88761827D01*
X168167490Y-88711031D01*
X168235311Y-88694236D01*
X168301446Y-88716773D01*
X168340485Y-88761827D01*
X168417647Y-88913266D01*
X168534731Y-89074418D01*
X168675582Y-89215269D01*
X168836734Y-89332353D01*
X169007499Y-89419362D01*
X169014219Y-89422786D01*
X169203657Y-89484338D01*
X169203658Y-89484338D01*
X169203661Y-89484339D01*
X169400403Y-89515500D01*
X169400404Y-89515500D01*
X169599596Y-89515500D01*
X169599597Y-89515500D01*
X169796339Y-89484339D01*
X169796342Y-89484338D01*
X169796343Y-89484338D01*
X169985780Y-89422786D01*
X169985780Y-89422785D01*
X169985783Y-89422785D01*
X170163266Y-89332353D01*
X170324418Y-89215269D01*
X170465269Y-89074418D01*
X170582353Y-88913266D01*
X170659515Y-88761827D01*
X170707490Y-88711031D01*
X170775311Y-88694236D01*
X170841446Y-88716773D01*
X170880485Y-88761827D01*
X170957647Y-88913266D01*
X171074731Y-89074418D01*
X171215582Y-89215269D01*
X171376734Y-89332353D01*
X171547499Y-89419362D01*
X171554219Y-89422786D01*
X171743657Y-89484338D01*
X171743658Y-89484338D01*
X171743661Y-89484339D01*
X171940403Y-89515500D01*
X171940404Y-89515500D01*
X172139596Y-89515500D01*
X172139597Y-89515500D01*
X172336339Y-89484339D01*
X172336342Y-89484338D01*
X172336343Y-89484338D01*
X172525780Y-89422786D01*
X172525780Y-89422785D01*
X172525783Y-89422785D01*
X172703266Y-89332353D01*
X172864418Y-89215269D01*
X173005269Y-89074418D01*
X173122353Y-88913266D01*
X173199515Y-88761827D01*
X173247490Y-88711031D01*
X173315311Y-88694236D01*
X173381446Y-88716773D01*
X173420485Y-88761827D01*
X173497647Y-88913266D01*
X173614731Y-89074418D01*
X173755582Y-89215269D01*
X173916734Y-89332353D01*
X174087499Y-89419362D01*
X174094219Y-89422786D01*
X174283657Y-89484338D01*
X174283658Y-89484338D01*
X174283661Y-89484339D01*
X174480403Y-89515500D01*
X174480404Y-89515500D01*
X174679596Y-89515500D01*
X174679597Y-89515500D01*
X174876339Y-89484339D01*
X174876342Y-89484338D01*
X174876343Y-89484338D01*
X175065780Y-89422786D01*
X175065780Y-89422785D01*
X175065783Y-89422785D01*
X175243266Y-89332353D01*
X175404418Y-89215269D01*
X175545269Y-89074418D01*
X175662353Y-88913266D01*
X175739515Y-88761827D01*
X175787490Y-88711031D01*
X175855311Y-88694236D01*
X175921446Y-88716773D01*
X175960485Y-88761827D01*
X176037647Y-88913266D01*
X176154731Y-89074418D01*
X176295582Y-89215269D01*
X176456734Y-89332353D01*
X176627499Y-89419362D01*
X176634219Y-89422786D01*
X176823657Y-89484338D01*
X176823658Y-89484338D01*
X176823661Y-89484339D01*
X177020403Y-89515500D01*
X177020404Y-89515500D01*
X177219596Y-89515500D01*
X177219597Y-89515500D01*
X177416339Y-89484339D01*
X177416342Y-89484338D01*
X177416343Y-89484338D01*
X177605780Y-89422786D01*
X177605780Y-89422785D01*
X177605783Y-89422785D01*
X177783266Y-89332353D01*
X177944418Y-89215269D01*
X178085269Y-89074418D01*
X178202353Y-88913266D01*
X178279515Y-88761827D01*
X178327490Y-88711031D01*
X178395311Y-88694236D01*
X178461446Y-88716773D01*
X178500485Y-88761827D01*
X178577647Y-88913266D01*
X178694731Y-89074418D01*
X178835582Y-89215269D01*
X178996734Y-89332353D01*
X179167499Y-89419362D01*
X179174219Y-89422786D01*
X179363657Y-89484338D01*
X179363658Y-89484338D01*
X179363661Y-89484339D01*
X179560403Y-89515500D01*
X179560404Y-89515500D01*
X179759596Y-89515500D01*
X179759597Y-89515500D01*
X179956339Y-89484339D01*
X179956342Y-89484338D01*
X179956343Y-89484338D01*
X180145780Y-89422786D01*
X180145780Y-89422785D01*
X180145783Y-89422785D01*
X180323266Y-89332353D01*
X180484418Y-89215269D01*
X180625269Y-89074418D01*
X180742353Y-88913266D01*
X180832785Y-88735783D01*
X180845303Y-88697256D01*
X180894338Y-88546343D01*
X180894338Y-88546342D01*
X180894339Y-88546339D01*
X180925500Y-88349597D01*
X180925500Y-88150403D01*
X180894339Y-87953661D01*
X180894338Y-87953657D01*
X180894338Y-87953656D01*
X180832786Y-87764219D01*
X180767896Y-87636865D01*
X180742353Y-87586734D01*
X180625269Y-87425582D01*
X180484418Y-87284731D01*
X180323266Y-87167647D01*
X180245223Y-87127882D01*
X180145780Y-87077213D01*
X179956342Y-87015661D01*
X179808782Y-86992290D01*
X179759597Y-86984500D01*
X179560403Y-86984500D01*
X179503958Y-86993440D01*
X179363659Y-87015661D01*
X179363656Y-87015661D01*
X179174219Y-87077213D01*
X178996733Y-87167647D01*
X178908043Y-87232085D01*
X178835582Y-87284731D01*
X178835580Y-87284733D01*
X178835579Y-87284733D01*
X178694733Y-87425579D01*
X178694733Y-87425580D01*
X178694731Y-87425582D01*
X178658773Y-87475074D01*
X178577647Y-87586733D01*
X178500485Y-87738172D01*
X178452510Y-87788968D01*
X178384689Y-87805763D01*
X178318554Y-87783225D01*
X178279515Y-87738172D01*
X178227896Y-87636865D01*
X178202353Y-87586734D01*
X178085269Y-87425582D01*
X177944418Y-87284731D01*
X177932035Y-87275734D01*
X177901614Y-87253631D01*
X177858948Y-87198301D01*
X177850500Y-87153314D01*
X177850500Y-86404604D01*
X177859939Y-86357151D01*
X177869737Y-86333497D01*
X177900500Y-86178842D01*
X177900500Y-86021158D01*
X177900500Y-86021155D01*
X177900499Y-86021153D01*
X177885167Y-85944076D01*
X177869737Y-85866503D01*
X177866730Y-85859244D01*
X177809397Y-85720827D01*
X177809390Y-85720814D01*
X177743211Y-85621771D01*
X177743210Y-85621769D01*
X177721792Y-85589715D01*
X177721786Y-85589707D01*
X177688003Y-85555924D01*
X207049500Y-85555924D01*
X207049500Y-85944076D01*
X207058744Y-86037927D01*
X207087544Y-86330347D01*
X207087547Y-86330364D01*
X207163264Y-86711030D01*
X207163267Y-86711041D01*
X207275945Y-87082489D01*
X207424485Y-87441095D01*
X207424487Y-87441100D01*
X207607450Y-87783400D01*
X207607461Y-87783418D01*
X207823096Y-88106139D01*
X207823106Y-88106153D01*
X208069347Y-88406198D01*
X208343801Y-88680652D01*
X208343806Y-88680656D01*
X208343807Y-88680657D01*
X208643852Y-88926898D01*
X208966588Y-89142543D01*
X208966597Y-89142548D01*
X208966599Y-89142549D01*
X209308899Y-89325512D01*
X209308901Y-89325512D01*
X209308907Y-89325516D01*
X209667512Y-89474055D01*
X210038949Y-89586730D01*
X210038955Y-89586731D01*
X210038958Y-89586732D01*
X210038969Y-89586735D01*
X210277680Y-89634216D01*
X210419642Y-89662454D01*
X210805924Y-89700500D01*
X210805927Y-89700500D01*
X211194073Y-89700500D01*
X211194076Y-89700500D01*
X211580358Y-89662454D01*
X211768788Y-89624973D01*
X211961030Y-89586735D01*
X211961041Y-89586732D01*
X211961041Y-89586731D01*
X211961051Y-89586730D01*
X212332488Y-89474055D01*
X212691093Y-89325516D01*
X213033412Y-89142543D01*
X213356148Y-88926898D01*
X213656193Y-88680657D01*
X213930657Y-88406193D01*
X214140579Y-88150403D01*
X216204500Y-88150403D01*
X216204500Y-88349596D01*
X216235661Y-88546340D01*
X216235661Y-88546343D01*
X216297213Y-88735780D01*
X216375643Y-88889706D01*
X216387647Y-88913266D01*
X216504731Y-89074418D01*
X216645582Y-89215269D01*
X216806734Y-89332353D01*
X216977499Y-89419362D01*
X216984219Y-89422786D01*
X217173657Y-89484338D01*
X217173658Y-89484338D01*
X217173661Y-89484339D01*
X217370403Y-89515500D01*
X217370404Y-89515500D01*
X217569596Y-89515500D01*
X217569597Y-89515500D01*
X217766339Y-89484339D01*
X217766342Y-89484338D01*
X217766343Y-89484338D01*
X217955780Y-89422786D01*
X217955780Y-89422785D01*
X217955783Y-89422785D01*
X218133266Y-89332353D01*
X218294418Y-89215269D01*
X218435269Y-89074418D01*
X218552353Y-88913266D01*
X218629515Y-88761827D01*
X218677490Y-88711031D01*
X218745311Y-88694236D01*
X218811446Y-88716773D01*
X218850485Y-88761827D01*
X218927647Y-88913266D01*
X219044731Y-89074418D01*
X219185582Y-89215269D01*
X219346734Y-89332353D01*
X219517499Y-89419362D01*
X219524219Y-89422786D01*
X219713657Y-89484338D01*
X219713658Y-89484338D01*
X219713661Y-89484339D01*
X219910403Y-89515500D01*
X219910404Y-89515500D01*
X220109596Y-89515500D01*
X220109597Y-89515500D01*
X220306339Y-89484339D01*
X220306342Y-89484338D01*
X220306343Y-89484338D01*
X220495780Y-89422786D01*
X220495780Y-89422785D01*
X220495783Y-89422785D01*
X220673266Y-89332353D01*
X220834418Y-89215269D01*
X220975269Y-89074418D01*
X221092353Y-88913266D01*
X221169515Y-88761827D01*
X221217490Y-88711031D01*
X221285311Y-88694236D01*
X221351446Y-88716773D01*
X221390485Y-88761827D01*
X221467647Y-88913266D01*
X221584731Y-89074418D01*
X221584733Y-89074420D01*
X221725585Y-89215272D01*
X221798384Y-89268162D01*
X221841051Y-89323491D01*
X221849500Y-89368481D01*
X221849500Y-90795396D01*
X221840062Y-90842844D01*
X221830263Y-90866503D01*
X221830262Y-90866506D01*
X221830260Y-90866511D01*
X221799500Y-91021153D01*
X221799500Y-91178846D01*
X221830261Y-91333489D01*
X221830264Y-91333501D01*
X221890602Y-91479172D01*
X221890609Y-91479185D01*
X221978210Y-91610288D01*
X221978213Y-91610292D01*
X222089707Y-91721786D01*
X222089711Y-91721789D01*
X222220814Y-91809390D01*
X222220827Y-91809397D01*
X222366498Y-91869735D01*
X222366503Y-91869737D01*
X222521153Y-91900499D01*
X222521156Y-91900500D01*
X222521158Y-91900500D01*
X222678844Y-91900500D01*
X222678845Y-91900499D01*
X222833497Y-91869737D01*
X222979179Y-91809394D01*
X223110289Y-91721789D01*
X223221789Y-91610289D01*
X223309394Y-91479179D01*
X223369737Y-91333497D01*
X223400500Y-91178842D01*
X223400500Y-91021158D01*
X223400500Y-91021155D01*
X223400499Y-91021153D01*
X223369739Y-90866511D01*
X223369738Y-90866508D01*
X223369737Y-90866503D01*
X223359937Y-90842844D01*
X223350500Y-90795396D01*
X223350500Y-89290549D01*
X223370185Y-89223510D01*
X223386819Y-89202868D01*
X223448569Y-89141118D01*
X223515269Y-89074418D01*
X223632353Y-88913266D01*
X223709515Y-88761827D01*
X223757490Y-88711031D01*
X223825311Y-88694236D01*
X223891446Y-88716773D01*
X223930485Y-88761827D01*
X224007647Y-88913266D01*
X224124731Y-89074418D01*
X224265582Y-89215269D01*
X224426734Y-89332353D01*
X224597499Y-89419362D01*
X224604219Y-89422786D01*
X224793657Y-89484338D01*
X224793658Y-89484338D01*
X224793661Y-89484339D01*
X224990403Y-89515500D01*
X224990404Y-89515500D01*
X225189596Y-89515500D01*
X225189597Y-89515500D01*
X225386339Y-89484339D01*
X225386342Y-89484338D01*
X225386343Y-89484338D01*
X225575780Y-89422786D01*
X225575780Y-89422785D01*
X225575783Y-89422785D01*
X225753266Y-89332353D01*
X225914418Y-89215269D01*
X226055269Y-89074418D01*
X226172353Y-88913266D01*
X226249515Y-88761827D01*
X226297490Y-88711031D01*
X226365311Y-88694236D01*
X226431446Y-88716773D01*
X226470485Y-88761827D01*
X226547647Y-88913266D01*
X226664731Y-89074418D01*
X226805582Y-89215269D01*
X226966734Y-89332353D01*
X227137499Y-89419362D01*
X227144219Y-89422786D01*
X227333657Y-89484338D01*
X227333658Y-89484338D01*
X227333661Y-89484339D01*
X227530403Y-89515500D01*
X227530404Y-89515500D01*
X227729596Y-89515500D01*
X227729597Y-89515500D01*
X227926339Y-89484339D01*
X227926342Y-89484338D01*
X227926343Y-89484338D01*
X228115780Y-89422786D01*
X228115780Y-89422785D01*
X228115783Y-89422785D01*
X228293266Y-89332353D01*
X228454418Y-89215269D01*
X228595269Y-89074418D01*
X228712353Y-88913266D01*
X228789515Y-88761827D01*
X228837490Y-88711031D01*
X228905311Y-88694236D01*
X228971446Y-88716773D01*
X229010485Y-88761827D01*
X229087647Y-88913266D01*
X229204731Y-89074418D01*
X229345582Y-89215269D01*
X229398384Y-89253632D01*
X229441051Y-89308961D01*
X229449500Y-89353950D01*
X229449500Y-90795396D01*
X229440062Y-90842844D01*
X229430263Y-90866503D01*
X229430262Y-90866506D01*
X229430260Y-90866511D01*
X229399500Y-91021153D01*
X229399500Y-91178846D01*
X229430261Y-91333489D01*
X229430264Y-91333501D01*
X229490602Y-91479172D01*
X229490609Y-91479185D01*
X229578210Y-91610288D01*
X229578213Y-91610292D01*
X229689707Y-91721786D01*
X229689711Y-91721789D01*
X229820814Y-91809390D01*
X229820827Y-91809397D01*
X229966498Y-91869735D01*
X229966503Y-91869737D01*
X230121153Y-91900499D01*
X230121156Y-91900500D01*
X230121158Y-91900500D01*
X230278844Y-91900500D01*
X230278845Y-91900499D01*
X230433497Y-91869737D01*
X230579179Y-91809394D01*
X230710289Y-91721789D01*
X230821789Y-91610289D01*
X230909394Y-91479179D01*
X230969737Y-91333497D01*
X231000500Y-91178842D01*
X231000500Y-91021158D01*
X231000500Y-91021155D01*
X231000499Y-91021153D01*
X230969739Y-90866511D01*
X230969738Y-90866508D01*
X230969737Y-90866503D01*
X230959937Y-90842844D01*
X230950500Y-90795396D01*
X230950500Y-89309943D01*
X230970185Y-89242904D01*
X230991145Y-89218886D01*
X230990973Y-89218714D01*
X230993506Y-89216180D01*
X230993966Y-89215654D01*
X230994402Y-89215280D01*
X230994418Y-89215269D01*
X231135269Y-89074418D01*
X231252353Y-88913266D01*
X231329515Y-88761827D01*
X231377490Y-88711031D01*
X231445311Y-88694236D01*
X231511446Y-88716773D01*
X231550485Y-88761827D01*
X231627647Y-88913266D01*
X231744731Y-89074418D01*
X231885582Y-89215269D01*
X232046734Y-89332353D01*
X232217499Y-89419362D01*
X232224219Y-89422786D01*
X232413657Y-89484338D01*
X232413658Y-89484338D01*
X232413661Y-89484339D01*
X232610403Y-89515500D01*
X232610404Y-89515500D01*
X232809596Y-89515500D01*
X232809597Y-89515500D01*
X233006339Y-89484339D01*
X233006342Y-89484338D01*
X233006343Y-89484338D01*
X233195780Y-89422786D01*
X233195780Y-89422785D01*
X233195783Y-89422785D01*
X233373266Y-89332353D01*
X233534418Y-89215269D01*
X233675269Y-89074418D01*
X233792353Y-88913266D01*
X233869515Y-88761827D01*
X233917490Y-88711031D01*
X233985311Y-88694236D01*
X234051446Y-88716773D01*
X234090485Y-88761827D01*
X234167647Y-88913266D01*
X234284731Y-89074418D01*
X234284733Y-89074420D01*
X234413181Y-89202868D01*
X234446666Y-89264191D01*
X234449500Y-89290549D01*
X234449500Y-90795396D01*
X234440062Y-90842844D01*
X234430263Y-90866503D01*
X234430262Y-90866506D01*
X234430260Y-90866511D01*
X234399500Y-91021153D01*
X234399500Y-91178846D01*
X234430261Y-91333489D01*
X234430264Y-91333501D01*
X234490602Y-91479172D01*
X234490609Y-91479185D01*
X234578210Y-91610288D01*
X234578213Y-91610292D01*
X234689707Y-91721786D01*
X234689711Y-91721789D01*
X234820814Y-91809390D01*
X234820827Y-91809397D01*
X234966498Y-91869735D01*
X234966503Y-91869737D01*
X235121153Y-91900499D01*
X235121156Y-91900500D01*
X235121158Y-91900500D01*
X235278844Y-91900500D01*
X235278845Y-91900499D01*
X235433497Y-91869737D01*
X235579179Y-91809394D01*
X235710289Y-91721789D01*
X235821789Y-91610289D01*
X235909394Y-91479179D01*
X235969737Y-91333497D01*
X236000500Y-91178842D01*
X236000500Y-91021158D01*
X236000500Y-91021155D01*
X236000499Y-91021153D01*
X235969739Y-90866511D01*
X235969738Y-90866508D01*
X235969737Y-90866503D01*
X235959937Y-90842844D01*
X235950500Y-90795396D01*
X235950500Y-89368481D01*
X235970185Y-89301442D01*
X236001616Y-89268162D01*
X236025156Y-89251060D01*
X236074418Y-89215269D01*
X236215269Y-89074418D01*
X236332353Y-88913266D01*
X236422785Y-88735783D01*
X236435303Y-88697256D01*
X236484338Y-88546343D01*
X236484338Y-88546342D01*
X236484339Y-88546339D01*
X236515500Y-88349597D01*
X236515500Y-88150403D01*
X236484339Y-87953661D01*
X236484338Y-87953657D01*
X236484338Y-87953656D01*
X236422786Y-87764219D01*
X236357896Y-87636865D01*
X236332353Y-87586734D01*
X236215269Y-87425582D01*
X236074418Y-87284731D01*
X235913266Y-87167647D01*
X235835223Y-87127882D01*
X235735780Y-87077213D01*
X235546342Y-87015661D01*
X235398782Y-86992290D01*
X235349597Y-86984500D01*
X235150403Y-86984500D01*
X235093958Y-86993440D01*
X234953659Y-87015661D01*
X234953656Y-87015661D01*
X234764219Y-87077213D01*
X234586733Y-87167647D01*
X234498043Y-87232085D01*
X234425582Y-87284731D01*
X234425580Y-87284733D01*
X234425579Y-87284733D01*
X234284733Y-87425579D01*
X234284733Y-87425580D01*
X234284731Y-87425582D01*
X234248773Y-87475074D01*
X234167647Y-87586733D01*
X234090485Y-87738172D01*
X234042510Y-87788968D01*
X233974689Y-87805763D01*
X233908554Y-87783225D01*
X233869515Y-87738172D01*
X233817896Y-87636865D01*
X233792353Y-87586734D01*
X233675269Y-87425582D01*
X233534418Y-87284731D01*
X233373266Y-87167647D01*
X233295223Y-87127882D01*
X233195780Y-87077213D01*
X233006342Y-87015661D01*
X232858782Y-86992290D01*
X232809597Y-86984500D01*
X232610403Y-86984500D01*
X232553958Y-86993440D01*
X232413659Y-87015661D01*
X232413656Y-87015661D01*
X232224219Y-87077213D01*
X232046733Y-87167647D01*
X231958043Y-87232085D01*
X231885582Y-87284731D01*
X231885580Y-87284733D01*
X231885579Y-87284733D01*
X231744733Y-87425579D01*
X231744733Y-87425580D01*
X231744731Y-87425582D01*
X231708773Y-87475074D01*
X231627647Y-87586733D01*
X231550485Y-87738172D01*
X231502510Y-87788968D01*
X231434689Y-87805763D01*
X231368554Y-87783225D01*
X231329515Y-87738172D01*
X231277896Y-87636865D01*
X231252353Y-87586734D01*
X231135269Y-87425582D01*
X230994418Y-87284731D01*
X230833266Y-87167647D01*
X230755223Y-87127882D01*
X230655780Y-87077213D01*
X230466342Y-87015661D01*
X230318782Y-86992290D01*
X230269597Y-86984500D01*
X230070403Y-86984500D01*
X230013958Y-86993440D01*
X229873659Y-87015661D01*
X229873656Y-87015661D01*
X229684219Y-87077213D01*
X229506733Y-87167647D01*
X229418043Y-87232085D01*
X229345582Y-87284731D01*
X229345580Y-87284733D01*
X229345579Y-87284733D01*
X229204733Y-87425579D01*
X229204733Y-87425580D01*
X229204731Y-87425582D01*
X229168773Y-87475074D01*
X229087647Y-87586733D01*
X229010485Y-87738172D01*
X228962510Y-87788968D01*
X228894689Y-87805763D01*
X228828554Y-87783225D01*
X228789515Y-87738172D01*
X228737896Y-87636865D01*
X228712353Y-87586734D01*
X228595269Y-87425582D01*
X228454418Y-87284731D01*
X228293266Y-87167647D01*
X228215223Y-87127882D01*
X228115780Y-87077213D01*
X227926342Y-87015661D01*
X227778782Y-86992290D01*
X227729597Y-86984500D01*
X227530403Y-86984500D01*
X227473958Y-86993440D01*
X227333659Y-87015661D01*
X227333656Y-87015661D01*
X227144219Y-87077213D01*
X226966733Y-87167647D01*
X226878043Y-87232085D01*
X226805582Y-87284731D01*
X226805580Y-87284733D01*
X226805579Y-87284733D01*
X226664733Y-87425579D01*
X226664733Y-87425580D01*
X226664731Y-87425582D01*
X226628773Y-87475074D01*
X226547647Y-87586733D01*
X226470485Y-87738172D01*
X226422510Y-87788968D01*
X226354689Y-87805763D01*
X226288554Y-87783225D01*
X226249515Y-87738172D01*
X226197896Y-87636865D01*
X226172353Y-87586734D01*
X226055269Y-87425582D01*
X225914418Y-87284731D01*
X225753266Y-87167647D01*
X225675223Y-87127882D01*
X225575780Y-87077213D01*
X225386342Y-87015661D01*
X225238782Y-86992290D01*
X225189597Y-86984500D01*
X224990403Y-86984500D01*
X224933958Y-86993440D01*
X224793659Y-87015661D01*
X224793656Y-87015661D01*
X224604219Y-87077213D01*
X224426733Y-87167647D01*
X224338043Y-87232085D01*
X224265582Y-87284731D01*
X224265580Y-87284733D01*
X224265579Y-87284733D01*
X224124733Y-87425579D01*
X224124733Y-87425580D01*
X224124731Y-87425582D01*
X224088773Y-87475074D01*
X224007647Y-87586733D01*
X223930485Y-87738172D01*
X223882510Y-87788968D01*
X223814689Y-87805763D01*
X223748554Y-87783225D01*
X223709515Y-87738172D01*
X223657896Y-87636865D01*
X223632353Y-87586734D01*
X223515269Y-87425582D01*
X223374418Y-87284731D01*
X223213266Y-87167647D01*
X223135223Y-87127882D01*
X223035780Y-87077213D01*
X222846342Y-87015661D01*
X222698782Y-86992290D01*
X222649597Y-86984500D01*
X222497230Y-86984500D01*
X222430191Y-86964815D01*
X222409549Y-86948181D01*
X221746071Y-86284703D01*
X221719191Y-86244475D01*
X221709394Y-86220821D01*
X221681346Y-86178844D01*
X221621789Y-86089710D01*
X221510292Y-85978213D01*
X221510288Y-85978210D01*
X221379185Y-85890609D01*
X221379172Y-85890602D01*
X221233501Y-85830264D01*
X221233489Y-85830261D01*
X221078845Y-85799500D01*
X221078842Y-85799500D01*
X220921158Y-85799500D01*
X220921155Y-85799500D01*
X220766510Y-85830261D01*
X220766498Y-85830264D01*
X220620827Y-85890602D01*
X220620814Y-85890609D01*
X220489711Y-85978210D01*
X220489707Y-85978213D01*
X220378213Y-86089707D01*
X220378210Y-86089711D01*
X220290609Y-86220814D01*
X220290602Y-86220827D01*
X220230264Y-86366498D01*
X220230261Y-86366510D01*
X220199500Y-86521153D01*
X220199500Y-86521158D01*
X220199500Y-86678842D01*
X220199500Y-86678844D01*
X220199499Y-86678844D01*
X220230822Y-86836308D01*
X220224595Y-86905900D01*
X220181732Y-86961077D01*
X220115842Y-86984322D01*
X220109205Y-86984500D01*
X219910403Y-86984500D01*
X219853958Y-86993440D01*
X219713659Y-87015661D01*
X219713656Y-87015661D01*
X219524219Y-87077213D01*
X219346733Y-87167647D01*
X219258043Y-87232085D01*
X219185582Y-87284731D01*
X219185580Y-87284733D01*
X219185579Y-87284733D01*
X219044733Y-87425579D01*
X219044733Y-87425580D01*
X219044731Y-87425582D01*
X219008773Y-87475074D01*
X218927647Y-87586733D01*
X218850485Y-87738172D01*
X218802510Y-87788968D01*
X218734689Y-87805763D01*
X218668554Y-87783225D01*
X218629515Y-87738172D01*
X218577896Y-87636865D01*
X218552353Y-87586734D01*
X218435269Y-87425582D01*
X218294418Y-87284731D01*
X218133266Y-87167647D01*
X218055223Y-87127882D01*
X217955780Y-87077213D01*
X217766342Y-87015661D01*
X217618782Y-86992290D01*
X217569597Y-86984500D01*
X217370403Y-86984500D01*
X217313958Y-86993440D01*
X217173659Y-87015661D01*
X217173656Y-87015661D01*
X216984219Y-87077213D01*
X216806733Y-87167647D01*
X216718043Y-87232085D01*
X216645582Y-87284731D01*
X216645580Y-87284733D01*
X216645579Y-87284733D01*
X216504733Y-87425579D01*
X216504733Y-87425580D01*
X216504731Y-87425582D01*
X216468773Y-87475074D01*
X216387647Y-87586733D01*
X216297213Y-87764219D01*
X216235661Y-87953656D01*
X216235661Y-87953659D01*
X216204500Y-88150403D01*
X214140579Y-88150403D01*
X214176898Y-88106148D01*
X214201386Y-88069500D01*
X214285033Y-87944312D01*
X214392543Y-87783412D01*
X214575516Y-87441093D01*
X214724055Y-87082488D01*
X214836730Y-86711051D01*
X214836732Y-86711041D01*
X214836735Y-86711030D01*
X214892846Y-86428933D01*
X214912454Y-86330358D01*
X214950500Y-85944076D01*
X214950500Y-85555924D01*
X247049500Y-85555924D01*
X247049500Y-85944076D01*
X247058744Y-86037927D01*
X247087544Y-86330347D01*
X247087547Y-86330364D01*
X247163264Y-86711030D01*
X247163267Y-86711041D01*
X247275945Y-87082489D01*
X247424485Y-87441095D01*
X247424487Y-87441100D01*
X247607450Y-87783400D01*
X247607461Y-87783418D01*
X247823096Y-88106139D01*
X247823106Y-88106153D01*
X248069347Y-88406198D01*
X248343801Y-88680652D01*
X248343806Y-88680656D01*
X248343807Y-88680657D01*
X248643852Y-88926898D01*
X248966588Y-89142543D01*
X248966597Y-89142548D01*
X248966599Y-89142549D01*
X249308899Y-89325512D01*
X249308901Y-89325512D01*
X249308907Y-89325516D01*
X249667512Y-89474055D01*
X250038949Y-89586730D01*
X250038955Y-89586731D01*
X250038958Y-89586732D01*
X250038969Y-89586735D01*
X250277680Y-89634216D01*
X250419642Y-89662454D01*
X250805924Y-89700500D01*
X250805927Y-89700500D01*
X251194073Y-89700500D01*
X251194076Y-89700500D01*
X251580358Y-89662454D01*
X251593167Y-89659906D01*
X251597377Y-89659069D01*
X251961030Y-89586735D01*
X251961041Y-89586732D01*
X251961041Y-89586731D01*
X251961051Y-89586730D01*
X252332488Y-89474055D01*
X252691093Y-89325516D01*
X253033412Y-89142543D01*
X253356148Y-88926898D01*
X253656193Y-88680657D01*
X253930657Y-88406193D01*
X254176898Y-88106148D01*
X254392543Y-87783412D01*
X254575516Y-87441093D01*
X254724055Y-87082488D01*
X254836730Y-86711051D01*
X254836732Y-86711041D01*
X254836735Y-86711030D01*
X254892846Y-86428933D01*
X254912454Y-86330358D01*
X254950500Y-85944076D01*
X254950500Y-85705552D01*
X267730000Y-85705552D01*
X267730000Y-85894447D01*
X267759548Y-86081002D01*
X267817914Y-86260637D01*
X267903666Y-86428933D01*
X267922116Y-86454328D01*
X268487861Y-85888584D01*
X268510667Y-85973694D01*
X268569910Y-86076306D01*
X268653694Y-86160090D01*
X268756306Y-86219333D01*
X268841414Y-86242137D01*
X268275670Y-86807882D01*
X268275858Y-86810271D01*
X268275858Y-86829727D01*
X268275669Y-86832115D01*
X268841415Y-87397861D01*
X268756306Y-87420667D01*
X268653694Y-87479910D01*
X268569910Y-87563694D01*
X268510667Y-87666306D01*
X268487861Y-87751414D01*
X267922116Y-87185669D01*
X267922116Y-87185670D01*
X267903669Y-87211060D01*
X267817914Y-87379362D01*
X267759548Y-87558997D01*
X267730000Y-87745552D01*
X267730000Y-87934447D01*
X267759548Y-88121002D01*
X267817914Y-88300637D01*
X267903666Y-88468933D01*
X267922116Y-88494328D01*
X268487861Y-87928584D01*
X268510667Y-88013694D01*
X268569910Y-88116306D01*
X268653694Y-88200090D01*
X268756306Y-88259333D01*
X268841414Y-88282137D01*
X268275670Y-88847882D01*
X268275858Y-88850271D01*
X268275858Y-88869727D01*
X268275669Y-88872115D01*
X268841415Y-89437861D01*
X268756306Y-89460667D01*
X268653694Y-89519910D01*
X268569910Y-89603694D01*
X268510667Y-89706306D01*
X268487861Y-89791414D01*
X267922116Y-89225669D01*
X267922116Y-89225670D01*
X267903669Y-89251060D01*
X267817914Y-89419362D01*
X267759548Y-89598997D01*
X267730000Y-89785552D01*
X267730000Y-89974447D01*
X267759548Y-90161002D01*
X267817914Y-90340637D01*
X267903666Y-90508933D01*
X267922116Y-90534328D01*
X268487861Y-89968584D01*
X268510667Y-90053694D01*
X268569910Y-90156306D01*
X268653694Y-90240090D01*
X268756306Y-90299333D01*
X268841414Y-90322137D01*
X268275670Y-90887882D01*
X268275858Y-90890271D01*
X268275858Y-90909727D01*
X268275669Y-90912115D01*
X268841415Y-91477861D01*
X268756306Y-91500667D01*
X268653694Y-91559910D01*
X268569910Y-91643694D01*
X268510667Y-91746306D01*
X268487861Y-91831414D01*
X267922116Y-91265669D01*
X267922116Y-91265670D01*
X267903669Y-91291060D01*
X267817914Y-91459362D01*
X267759548Y-91638997D01*
X267730000Y-91825552D01*
X267730000Y-92014447D01*
X267759548Y-92201002D01*
X267817914Y-92380637D01*
X267903666Y-92548933D01*
X267922116Y-92574328D01*
X268487861Y-92008584D01*
X268510667Y-92093694D01*
X268569910Y-92196306D01*
X268653694Y-92280090D01*
X268756306Y-92339333D01*
X268841415Y-92362138D01*
X268275669Y-92927882D01*
X268275670Y-92927883D01*
X268301059Y-92946329D01*
X268469362Y-93032085D01*
X268648997Y-93090451D01*
X268835553Y-93120000D01*
X269024447Y-93120000D01*
X269211002Y-93090451D01*
X269390637Y-93032085D01*
X269558937Y-92946331D01*
X269584328Y-92927883D01*
X269584328Y-92927882D01*
X269018584Y-92362138D01*
X269103694Y-92339333D01*
X269206306Y-92280090D01*
X269290090Y-92196306D01*
X269349333Y-92093694D01*
X269372138Y-92008584D01*
X269937882Y-92574328D01*
X269937883Y-92574328D01*
X269956331Y-92548937D01*
X270042085Y-92380637D01*
X270100451Y-92201002D01*
X270113406Y-92119212D01*
X270143335Y-92056078D01*
X270202646Y-92019146D01*
X270272509Y-92020144D01*
X270274100Y-92020648D01*
X270383142Y-92056078D01*
X270428881Y-92070940D01*
X270615514Y-92100500D01*
X270615519Y-92100500D01*
X270804486Y-92100500D01*
X270991118Y-92070940D01*
X271036858Y-92056078D01*
X271170832Y-92012547D01*
X271339199Y-91926760D01*
X271492073Y-91815690D01*
X271625690Y-91682073D01*
X271736760Y-91529199D01*
X271822547Y-91360832D01*
X271880940Y-91181118D01*
X271887019Y-91142736D01*
X271910500Y-90994486D01*
X271910500Y-90805513D01*
X271880940Y-90618881D01*
X271822545Y-90439163D01*
X271766923Y-90330000D01*
X271736760Y-90270801D01*
X271625690Y-90117927D01*
X271492073Y-89984310D01*
X271486578Y-89980317D01*
X271443913Y-89924991D01*
X271437932Y-89855378D01*
X271470536Y-89793582D01*
X271486573Y-89779685D01*
X271492073Y-89775690D01*
X271625690Y-89642073D01*
X271736760Y-89489199D01*
X271822547Y-89320832D01*
X271880940Y-89141118D01*
X271887486Y-89099788D01*
X271910500Y-88954486D01*
X271910500Y-88765513D01*
X271880940Y-88578881D01*
X271824831Y-88406198D01*
X271822547Y-88399168D01*
X271822545Y-88399165D01*
X271822545Y-88399163D01*
X271766923Y-88290000D01*
X271736760Y-88230801D01*
X271625690Y-88077927D01*
X271492073Y-87944310D01*
X271486578Y-87940317D01*
X271443913Y-87884991D01*
X271437932Y-87815378D01*
X271470536Y-87753582D01*
X271486573Y-87739685D01*
X271492073Y-87735690D01*
X271625690Y-87602073D01*
X271736760Y-87449199D01*
X271822547Y-87280832D01*
X271880940Y-87101118D01*
X271894475Y-87015661D01*
X271910500Y-86914486D01*
X271910500Y-86725513D01*
X271880940Y-86538881D01*
X271829296Y-86379939D01*
X271822547Y-86359168D01*
X271822545Y-86359165D01*
X271822545Y-86359163D01*
X271772343Y-86260637D01*
X271736760Y-86190801D01*
X271625690Y-86037927D01*
X271492073Y-85904310D01*
X271486578Y-85900317D01*
X271443913Y-85844991D01*
X271437932Y-85775378D01*
X271470536Y-85713582D01*
X271486573Y-85699685D01*
X271492073Y-85695690D01*
X271625690Y-85562073D01*
X271736760Y-85409199D01*
X271822547Y-85240832D01*
X271880940Y-85061118D01*
X271889747Y-85005513D01*
X271910500Y-84874486D01*
X271910500Y-84685513D01*
X271880940Y-84498881D01*
X271827204Y-84333501D01*
X271822547Y-84319168D01*
X271822545Y-84319165D01*
X271822545Y-84319163D01*
X271777290Y-84230347D01*
X271736760Y-84150801D01*
X271625690Y-83997927D01*
X271492073Y-83864310D01*
X271339199Y-83753240D01*
X271275585Y-83720827D01*
X271170836Y-83667454D01*
X270991118Y-83609059D01*
X270804486Y-83579500D01*
X270804481Y-83579500D01*
X270615519Y-83579500D01*
X270615514Y-83579500D01*
X270428881Y-83609059D01*
X270249163Y-83667454D01*
X270080800Y-83753240D01*
X270017822Y-83798997D01*
X269927927Y-83864310D01*
X269927925Y-83864312D01*
X269927924Y-83864312D01*
X269794312Y-83997924D01*
X269794312Y-83997925D01*
X269794310Y-83997927D01*
X269777434Y-84021155D01*
X269683240Y-84150800D01*
X269597454Y-84319163D01*
X269539060Y-84498880D01*
X269526032Y-84581131D01*
X269496102Y-84644266D01*
X269436790Y-84681196D01*
X269366927Y-84680198D01*
X269365241Y-84679663D01*
X269211002Y-84629547D01*
X269024447Y-84600000D01*
X268835553Y-84600000D01*
X268648997Y-84629548D01*
X268469362Y-84687914D01*
X268301060Y-84773669D01*
X268275670Y-84792116D01*
X268275669Y-84792116D01*
X268841414Y-85357861D01*
X268756306Y-85380667D01*
X268653694Y-85439910D01*
X268569910Y-85523694D01*
X268510667Y-85626306D01*
X268487861Y-85711414D01*
X267922116Y-85145669D01*
X267922116Y-85145670D01*
X267903669Y-85171060D01*
X267817914Y-85339362D01*
X267759548Y-85518997D01*
X267730000Y-85705552D01*
X254950500Y-85705552D01*
X254950500Y-85555924D01*
X254912454Y-85169642D01*
X254858919Y-84900499D01*
X254851573Y-84863566D01*
X254836735Y-84788969D01*
X254836732Y-84788958D01*
X254836731Y-84788955D01*
X254836730Y-84788949D01*
X254724055Y-84417512D01*
X254575516Y-84058907D01*
X254562745Y-84035015D01*
X254392549Y-83716599D01*
X254392548Y-83716597D01*
X254392543Y-83716588D01*
X254176898Y-83393852D01*
X253930657Y-83093807D01*
X253930656Y-83093806D01*
X253930652Y-83093801D01*
X253656198Y-82819347D01*
X253356153Y-82573106D01*
X253356152Y-82573105D01*
X253356148Y-82573102D01*
X253033412Y-82357457D01*
X253033407Y-82357454D01*
X253033400Y-82357450D01*
X252691100Y-82174487D01*
X252691095Y-82174485D01*
X252688579Y-82173443D01*
X252575061Y-82126422D01*
X252332489Y-82025945D01*
X252293931Y-82014248D01*
X251961051Y-81913270D01*
X251961050Y-81913269D01*
X251961041Y-81913267D01*
X251961030Y-81913264D01*
X251787315Y-81878711D01*
X271399500Y-81878711D01*
X271399500Y-82121288D01*
X271431161Y-82361785D01*
X271493947Y-82596104D01*
X271586416Y-82819343D01*
X271586776Y-82820212D01*
X271708064Y-83030289D01*
X271708066Y-83030292D01*
X271708067Y-83030293D01*
X271855733Y-83222736D01*
X271855739Y-83222743D01*
X272027256Y-83394260D01*
X272027263Y-83394266D01*
X272136661Y-83478210D01*
X272219711Y-83541936D01*
X272429788Y-83663224D01*
X272653900Y-83756054D01*
X272888211Y-83818838D01*
X273064709Y-83842074D01*
X273128711Y-83850500D01*
X273128712Y-83850500D01*
X273371289Y-83850500D01*
X273435291Y-83842074D01*
X273611789Y-83818838D01*
X273846100Y-83756054D01*
X274070212Y-83663224D01*
X274280289Y-83541936D01*
X274472738Y-83394265D01*
X274644265Y-83222738D01*
X274791936Y-83030289D01*
X274913224Y-82820212D01*
X275006054Y-82596100D01*
X275068838Y-82361789D01*
X275100500Y-82121288D01*
X275100500Y-81878712D01*
X275095080Y-81837546D01*
X275090072Y-81799500D01*
X275068838Y-81638211D01*
X275006054Y-81403900D01*
X274998502Y-81385669D01*
X274913226Y-81179794D01*
X274913224Y-81179788D01*
X274791936Y-80969711D01*
X274644265Y-80777262D01*
X274644260Y-80777256D01*
X274472743Y-80605739D01*
X274472736Y-80605733D01*
X274280293Y-80458067D01*
X274280292Y-80458066D01*
X274280289Y-80458064D01*
X274070212Y-80336776D01*
X274070205Y-80336773D01*
X273846104Y-80243947D01*
X273611785Y-80181161D01*
X273371289Y-80149500D01*
X273371288Y-80149500D01*
X273128712Y-80149500D01*
X273128711Y-80149500D01*
X272888214Y-80181161D01*
X272653895Y-80243947D01*
X272429794Y-80336773D01*
X272429785Y-80336777D01*
X272219706Y-80458067D01*
X272027263Y-80605733D01*
X272027256Y-80605739D01*
X271855739Y-80777256D01*
X271855733Y-80777263D01*
X271708067Y-80969706D01*
X271586777Y-81179785D01*
X271586773Y-81179794D01*
X271493947Y-81403895D01*
X271431161Y-81638214D01*
X271399500Y-81878711D01*
X251787315Y-81878711D01*
X251580364Y-81837547D01*
X251580347Y-81837544D01*
X251288239Y-81808774D01*
X251194076Y-81799500D01*
X250805924Y-81799500D01*
X250718836Y-81808077D01*
X250419652Y-81837544D01*
X250419635Y-81837547D01*
X250038969Y-81913264D01*
X250038958Y-81913267D01*
X249667510Y-82025945D01*
X249308904Y-82174485D01*
X249308899Y-82174487D01*
X248966599Y-82357450D01*
X248966581Y-82357461D01*
X248643860Y-82573096D01*
X248643846Y-82573106D01*
X248343801Y-82819347D01*
X248069347Y-83093801D01*
X247823106Y-83393846D01*
X247823096Y-83393860D01*
X247607461Y-83716581D01*
X247607450Y-83716599D01*
X247424487Y-84058899D01*
X247424485Y-84058904D01*
X247275945Y-84417510D01*
X247163267Y-84788958D01*
X247163264Y-84788969D01*
X247087547Y-85169635D01*
X247087544Y-85169652D01*
X247058389Y-85465669D01*
X247049500Y-85555924D01*
X214950500Y-85555924D01*
X214912454Y-85169642D01*
X214858919Y-84900499D01*
X214836735Y-84788969D01*
X214836732Y-84788958D01*
X214836731Y-84788955D01*
X214836730Y-84788949D01*
X214724055Y-84417512D01*
X214575516Y-84058907D01*
X214562745Y-84035015D01*
X214555336Y-84021153D01*
X222299500Y-84021153D01*
X222299500Y-84178846D01*
X222330261Y-84333489D01*
X222330264Y-84333501D01*
X222390602Y-84479172D01*
X222390609Y-84479185D01*
X222478210Y-84610288D01*
X222478213Y-84610292D01*
X222589707Y-84721786D01*
X222589711Y-84721789D01*
X222720814Y-84809390D01*
X222720827Y-84809397D01*
X222866498Y-84869735D01*
X222866503Y-84869737D01*
X223021153Y-84900499D01*
X223021156Y-84900500D01*
X223021158Y-84900500D01*
X223178844Y-84900500D01*
X223178845Y-84900499D01*
X223255152Y-84885320D01*
X223333488Y-84869739D01*
X223333489Y-84869738D01*
X223333497Y-84869737D01*
X223357155Y-84859937D01*
X223404604Y-84850500D01*
X224395396Y-84850500D01*
X224442844Y-84859937D01*
X224466503Y-84869737D01*
X224466508Y-84869738D01*
X224466511Y-84869739D01*
X224621153Y-84900499D01*
X224621156Y-84900500D01*
X224621158Y-84900500D01*
X224778844Y-84900500D01*
X224778845Y-84900499D01*
X224933497Y-84869737D01*
X225079179Y-84809394D01*
X225210289Y-84721789D01*
X225321789Y-84610289D01*
X225409394Y-84479179D01*
X225469737Y-84333497D01*
X225500500Y-84178842D01*
X225500500Y-84021158D01*
X225500500Y-84021155D01*
X225500499Y-84021153D01*
X225469738Y-83866510D01*
X225469737Y-83866503D01*
X225469735Y-83866498D01*
X225409397Y-83720827D01*
X225409390Y-83720814D01*
X225321789Y-83589711D01*
X225321786Y-83589707D01*
X225210292Y-83478213D01*
X225210288Y-83478210D01*
X225079185Y-83390609D01*
X225079172Y-83390602D01*
X224933501Y-83330264D01*
X224933489Y-83330261D01*
X224778845Y-83299500D01*
X224778842Y-83299500D01*
X224621158Y-83299500D01*
X224621155Y-83299500D01*
X224466511Y-83330260D01*
X224466506Y-83330262D01*
X224466504Y-83330262D01*
X224466503Y-83330263D01*
X224442844Y-83340062D01*
X224395396Y-83349500D01*
X223404604Y-83349500D01*
X223357155Y-83340062D01*
X223333497Y-83330263D01*
X223333493Y-83330262D01*
X223333488Y-83330260D01*
X223178845Y-83299500D01*
X223178842Y-83299500D01*
X223021158Y-83299500D01*
X223021155Y-83299500D01*
X222866510Y-83330261D01*
X222866498Y-83330264D01*
X222720827Y-83390602D01*
X222720814Y-83390609D01*
X222589711Y-83478210D01*
X222589707Y-83478213D01*
X222478213Y-83589707D01*
X222478210Y-83589711D01*
X222390609Y-83720814D01*
X222390602Y-83720827D01*
X222330264Y-83866498D01*
X222330261Y-83866510D01*
X222299500Y-84021153D01*
X214555336Y-84021153D01*
X214392549Y-83716599D01*
X214392548Y-83716597D01*
X214392543Y-83716588D01*
X214176898Y-83393852D01*
X213930657Y-83093807D01*
X213930656Y-83093806D01*
X213930652Y-83093801D01*
X213656198Y-82819347D01*
X213356153Y-82573106D01*
X213356152Y-82573105D01*
X213356148Y-82573102D01*
X213033412Y-82357457D01*
X213033407Y-82357454D01*
X213033400Y-82357450D01*
X212691100Y-82174487D01*
X212691095Y-82174485D01*
X212688579Y-82173443D01*
X212575061Y-82126422D01*
X212332489Y-82025945D01*
X211961041Y-81913267D01*
X211961030Y-81913264D01*
X211580364Y-81837547D01*
X211580347Y-81837544D01*
X211288239Y-81808774D01*
X211194076Y-81799500D01*
X210805924Y-81799500D01*
X210718836Y-81808077D01*
X210419652Y-81837544D01*
X210419635Y-81837547D01*
X210038969Y-81913264D01*
X210038958Y-81913267D01*
X209667510Y-82025945D01*
X209308904Y-82174485D01*
X209308899Y-82174487D01*
X208966599Y-82357450D01*
X208966581Y-82357461D01*
X208643860Y-82573096D01*
X208643846Y-82573106D01*
X208343801Y-82819347D01*
X208069347Y-83093801D01*
X207823106Y-83393846D01*
X207823096Y-83393860D01*
X207607461Y-83716581D01*
X207607450Y-83716599D01*
X207424487Y-84058899D01*
X207424485Y-84058904D01*
X207275945Y-84417510D01*
X207163267Y-84788958D01*
X207163264Y-84788969D01*
X207087547Y-85169635D01*
X207087544Y-85169652D01*
X207058389Y-85465669D01*
X207049500Y-85555924D01*
X177688003Y-85555924D01*
X177610292Y-85478213D01*
X177610288Y-85478210D01*
X177479185Y-85390609D01*
X177479172Y-85390602D01*
X177333501Y-85330264D01*
X177333489Y-85330261D01*
X177178845Y-85299500D01*
X177178842Y-85299500D01*
X177021158Y-85299500D01*
X177021155Y-85299500D01*
X176866510Y-85330261D01*
X176866498Y-85330264D01*
X176720827Y-85390602D01*
X176720814Y-85390609D01*
X176589711Y-85478210D01*
X176589707Y-85478213D01*
X176478213Y-85589707D01*
X176478210Y-85589711D01*
X176390609Y-85720814D01*
X176390602Y-85720827D01*
X176330264Y-85866498D01*
X176330261Y-85866510D01*
X176299500Y-86021153D01*
X176299500Y-86178846D01*
X176330261Y-86333489D01*
X176330263Y-86333497D01*
X176340061Y-86357151D01*
X176349500Y-86404604D01*
X176349500Y-87182376D01*
X176329815Y-87249415D01*
X176298390Y-87282691D01*
X176295582Y-87284730D01*
X176154733Y-87425579D01*
X176154733Y-87425580D01*
X176154731Y-87425582D01*
X176118773Y-87475074D01*
X176037647Y-87586733D01*
X175960485Y-87738172D01*
X175912510Y-87788968D01*
X175844689Y-87805763D01*
X175778554Y-87783225D01*
X175739515Y-87738172D01*
X175687896Y-87636865D01*
X175662353Y-87586734D01*
X175545269Y-87425582D01*
X175404418Y-87284731D01*
X175243266Y-87167647D01*
X175165223Y-87127882D01*
X175118205Y-87103925D01*
X175067409Y-87055950D01*
X175050500Y-86993440D01*
X175050500Y-86404604D01*
X175059939Y-86357151D01*
X175069737Y-86333497D01*
X175100500Y-86178842D01*
X175100500Y-86021158D01*
X175100500Y-86021155D01*
X175100499Y-86021153D01*
X175085167Y-85944076D01*
X175069737Y-85866503D01*
X175066730Y-85859244D01*
X175009397Y-85720827D01*
X175009390Y-85720814D01*
X174921789Y-85589711D01*
X174921786Y-85589707D01*
X174810292Y-85478213D01*
X174810288Y-85478210D01*
X174679185Y-85390609D01*
X174679172Y-85390602D01*
X174533501Y-85330264D01*
X174533489Y-85330261D01*
X174378845Y-85299500D01*
X174378842Y-85299500D01*
X174221158Y-85299500D01*
X174221155Y-85299500D01*
X174066510Y-85330261D01*
X174066498Y-85330264D01*
X173920827Y-85390602D01*
X173920814Y-85390609D01*
X173789711Y-85478210D01*
X173789707Y-85478213D01*
X173678213Y-85589707D01*
X173678210Y-85589711D01*
X173590609Y-85720814D01*
X173590602Y-85720827D01*
X173530264Y-85866498D01*
X173530261Y-85866510D01*
X173499500Y-86021153D01*
X173499500Y-86178846D01*
X173530261Y-86333489D01*
X173530263Y-86333497D01*
X173540061Y-86357151D01*
X173549500Y-86404604D01*
X173549500Y-87475074D01*
X173545626Y-87489953D01*
X173546409Y-87502588D01*
X173536860Y-87523628D01*
X173533760Y-87535537D01*
X173530158Y-87541985D01*
X173497647Y-87586734D01*
X173419421Y-87740259D01*
X173418260Y-87742340D01*
X173394940Y-87765219D01*
X173372510Y-87788968D01*
X173370133Y-87789556D01*
X173368385Y-87791272D01*
X173336391Y-87797912D01*
X173304689Y-87805763D01*
X173302371Y-87804973D01*
X173299973Y-87805471D01*
X173269467Y-87793759D01*
X173238554Y-87783225D01*
X173236823Y-87781227D01*
X173234745Y-87780430D01*
X173227076Y-87769979D01*
X173199515Y-87738172D01*
X173147896Y-87636865D01*
X173122353Y-87586734D01*
X173005269Y-87425582D01*
X172864418Y-87284731D01*
X172703266Y-87167647D01*
X172625223Y-87127882D01*
X172525780Y-87077213D01*
X172336342Y-87015661D01*
X172188782Y-86992290D01*
X172139597Y-86984500D01*
X171940403Y-86984500D01*
X171883958Y-86993440D01*
X171743659Y-87015661D01*
X171743656Y-87015661D01*
X171554219Y-87077213D01*
X171376733Y-87167647D01*
X171288043Y-87232085D01*
X171215582Y-87284731D01*
X171215580Y-87284733D01*
X171215579Y-87284733D01*
X171074733Y-87425579D01*
X171074733Y-87425580D01*
X171074731Y-87425582D01*
X171038773Y-87475074D01*
X170957647Y-87586733D01*
X170880485Y-87738172D01*
X170832510Y-87788968D01*
X170764689Y-87805763D01*
X170698554Y-87783225D01*
X170659515Y-87738172D01*
X170607896Y-87636865D01*
X170582353Y-87586734D01*
X170465269Y-87425582D01*
X170324418Y-87284731D01*
X170163266Y-87167647D01*
X170085223Y-87127882D01*
X169985780Y-87077213D01*
X169796342Y-87015661D01*
X169648782Y-86992290D01*
X169599597Y-86984500D01*
X169400403Y-86984500D01*
X169343958Y-86993440D01*
X169203659Y-87015661D01*
X169203656Y-87015661D01*
X169014219Y-87077213D01*
X168836733Y-87167647D01*
X168748043Y-87232085D01*
X168675582Y-87284731D01*
X168675580Y-87284733D01*
X168675579Y-87284733D01*
X168534733Y-87425579D01*
X168534733Y-87425580D01*
X168534731Y-87425582D01*
X168498773Y-87475074D01*
X168417647Y-87586733D01*
X168340485Y-87738172D01*
X168292510Y-87788968D01*
X168224689Y-87805763D01*
X168158554Y-87783225D01*
X168119515Y-87738172D01*
X168067896Y-87636865D01*
X168042353Y-87586734D01*
X167925269Y-87425582D01*
X167784418Y-87284731D01*
X167623266Y-87167647D01*
X167545223Y-87127882D01*
X167445780Y-87077213D01*
X167256342Y-87015661D01*
X167108782Y-86992290D01*
X167059597Y-86984500D01*
X166860403Y-86984500D01*
X166803958Y-86993440D01*
X166663659Y-87015661D01*
X166663656Y-87015661D01*
X166474219Y-87077213D01*
X166296733Y-87167647D01*
X166208043Y-87232085D01*
X166135582Y-87284731D01*
X166135580Y-87284733D01*
X166135579Y-87284733D01*
X165994733Y-87425579D01*
X165994733Y-87425580D01*
X165994731Y-87425582D01*
X165958773Y-87475074D01*
X165877647Y-87586733D01*
X165800485Y-87738172D01*
X165752510Y-87788968D01*
X165684689Y-87805763D01*
X165618554Y-87783225D01*
X165579515Y-87738172D01*
X165527896Y-87636865D01*
X165502353Y-87586734D01*
X165385269Y-87425582D01*
X165244418Y-87284731D01*
X165083266Y-87167647D01*
X165005223Y-87127882D01*
X164905780Y-87077213D01*
X164716342Y-87015661D01*
X164568782Y-86992290D01*
X164519597Y-86984500D01*
X164320403Y-86984500D01*
X164263958Y-86993440D01*
X164123659Y-87015661D01*
X164123656Y-87015661D01*
X163934219Y-87077213D01*
X163756733Y-87167647D01*
X163668043Y-87232085D01*
X163595582Y-87284731D01*
X163595580Y-87284733D01*
X163595579Y-87284733D01*
X163454733Y-87425579D01*
X163454733Y-87425580D01*
X163454731Y-87425582D01*
X163418773Y-87475074D01*
X163337647Y-87586733D01*
X163260485Y-87738172D01*
X163212510Y-87788968D01*
X163144689Y-87805763D01*
X163078554Y-87783225D01*
X163039515Y-87738172D01*
X162987896Y-87636865D01*
X162962353Y-87586734D01*
X162845269Y-87425582D01*
X162704418Y-87284731D01*
X162543266Y-87167647D01*
X162465223Y-87127882D01*
X162365780Y-87077213D01*
X162176342Y-87015661D01*
X162028782Y-86992290D01*
X161979597Y-86984500D01*
X161780403Y-86984500D01*
X161723958Y-86993440D01*
X161583659Y-87015661D01*
X161583656Y-87015661D01*
X161394219Y-87077213D01*
X161216733Y-87167647D01*
X161128043Y-87232085D01*
X161055582Y-87284731D01*
X161055580Y-87284733D01*
X161055579Y-87284733D01*
X160914733Y-87425579D01*
X160914733Y-87425580D01*
X160914731Y-87425582D01*
X160878773Y-87475074D01*
X160797647Y-87586733D01*
X160707213Y-87764219D01*
X160645661Y-87953656D01*
X160645661Y-87953659D01*
X160614500Y-88150403D01*
X151621712Y-88150403D01*
X151752073Y-88055690D01*
X151885690Y-87922073D01*
X151996760Y-87769199D01*
X152082547Y-87600832D01*
X152140940Y-87421118D01*
X152153967Y-87338869D01*
X152183896Y-87275734D01*
X152243208Y-87238803D01*
X152313070Y-87239801D01*
X152314758Y-87240336D01*
X152468998Y-87290452D01*
X152655553Y-87320000D01*
X152844447Y-87320000D01*
X153031002Y-87290451D01*
X153210637Y-87232085D01*
X153378937Y-87146331D01*
X153404328Y-87127883D01*
X153404328Y-87127882D01*
X152838584Y-86562138D01*
X152923694Y-86539333D01*
X153026306Y-86480090D01*
X153110090Y-86396306D01*
X153169333Y-86293694D01*
X153192138Y-86208584D01*
X153757882Y-86774328D01*
X153757883Y-86774328D01*
X153776331Y-86748937D01*
X153862085Y-86580637D01*
X153920451Y-86401002D01*
X153950000Y-86214447D01*
X153950000Y-86025552D01*
X153920451Y-85838997D01*
X153862085Y-85659362D01*
X153776329Y-85491059D01*
X153757883Y-85465670D01*
X153757882Y-85465669D01*
X153192137Y-86031414D01*
X153169333Y-85946306D01*
X153110090Y-85843694D01*
X153026306Y-85759910D01*
X152923694Y-85700667D01*
X152838582Y-85677861D01*
X153404327Y-85112116D01*
X153404140Y-85109729D01*
X153404140Y-85090269D01*
X153404327Y-85087881D01*
X152838584Y-84522138D01*
X152923694Y-84499333D01*
X153026306Y-84440090D01*
X153110090Y-84356306D01*
X153169333Y-84253694D01*
X153192138Y-84168584D01*
X153757882Y-84734328D01*
X153757883Y-84734328D01*
X153776331Y-84708937D01*
X153862085Y-84540637D01*
X153920451Y-84361002D01*
X153950000Y-84174447D01*
X153950000Y-84021153D01*
X166899500Y-84021153D01*
X166899500Y-84178846D01*
X166930261Y-84333489D01*
X166930264Y-84333501D01*
X166990602Y-84479172D01*
X166990609Y-84479185D01*
X167078210Y-84610288D01*
X167078213Y-84610292D01*
X167189707Y-84721786D01*
X167189711Y-84721789D01*
X167320814Y-84809390D01*
X167320827Y-84809397D01*
X167466498Y-84869735D01*
X167466503Y-84869737D01*
X167621153Y-84900499D01*
X167621156Y-84900500D01*
X167621158Y-84900500D01*
X167778844Y-84900500D01*
X167778845Y-84900499D01*
X167855152Y-84885320D01*
X167933488Y-84869739D01*
X167933489Y-84869738D01*
X167933497Y-84869737D01*
X167957155Y-84859937D01*
X168004604Y-84850500D01*
X168995396Y-84850500D01*
X169042844Y-84859937D01*
X169066503Y-84869737D01*
X169066508Y-84869738D01*
X169066511Y-84869739D01*
X169221153Y-84900499D01*
X169221156Y-84900500D01*
X169221158Y-84900500D01*
X169378844Y-84900500D01*
X169378845Y-84900499D01*
X169533497Y-84869737D01*
X169679179Y-84809394D01*
X169810289Y-84721789D01*
X169921789Y-84610289D01*
X170009394Y-84479179D01*
X170069737Y-84333497D01*
X170100500Y-84178842D01*
X170100500Y-84021158D01*
X170100500Y-84021155D01*
X170100499Y-84021153D01*
X172499500Y-84021153D01*
X172499500Y-84178846D01*
X172530261Y-84333489D01*
X172530264Y-84333501D01*
X172590602Y-84479172D01*
X172590609Y-84479185D01*
X172678210Y-84610288D01*
X172678213Y-84610292D01*
X172789707Y-84721786D01*
X172789711Y-84721789D01*
X172920814Y-84809390D01*
X172920827Y-84809397D01*
X173066498Y-84869735D01*
X173066503Y-84869737D01*
X173221153Y-84900499D01*
X173221156Y-84900500D01*
X173221158Y-84900500D01*
X173378844Y-84900500D01*
X173378845Y-84900499D01*
X173455152Y-84885320D01*
X173533488Y-84869739D01*
X173533489Y-84869738D01*
X173533497Y-84869737D01*
X173557155Y-84859937D01*
X173604604Y-84850500D01*
X174595396Y-84850500D01*
X174642844Y-84859937D01*
X174666503Y-84869737D01*
X174666508Y-84869738D01*
X174666511Y-84869739D01*
X174821153Y-84900499D01*
X174821156Y-84900500D01*
X174821158Y-84900500D01*
X174978844Y-84900500D01*
X174978845Y-84900499D01*
X175133497Y-84869737D01*
X175279179Y-84809394D01*
X175410289Y-84721789D01*
X175521789Y-84610289D01*
X175609394Y-84479179D01*
X175669737Y-84333497D01*
X175700500Y-84178842D01*
X175700500Y-84021158D01*
X175700500Y-84021155D01*
X175700499Y-84021153D01*
X175669738Y-83866510D01*
X175669737Y-83866503D01*
X175669735Y-83866498D01*
X175609397Y-83720827D01*
X175609390Y-83720814D01*
X175521789Y-83589711D01*
X175521786Y-83589707D01*
X175410292Y-83478213D01*
X175410288Y-83478210D01*
X175279185Y-83390609D01*
X175279172Y-83390602D01*
X175133501Y-83330264D01*
X175133489Y-83330261D01*
X174978845Y-83299500D01*
X174978842Y-83299500D01*
X174821158Y-83299500D01*
X174821155Y-83299500D01*
X174666511Y-83330260D01*
X174666506Y-83330262D01*
X174666504Y-83330262D01*
X174666503Y-83330263D01*
X174642844Y-83340062D01*
X174595396Y-83349500D01*
X173604604Y-83349500D01*
X173557155Y-83340062D01*
X173533497Y-83330263D01*
X173533493Y-83330262D01*
X173533488Y-83330260D01*
X173378845Y-83299500D01*
X173378842Y-83299500D01*
X173221158Y-83299500D01*
X173221155Y-83299500D01*
X173066510Y-83330261D01*
X173066498Y-83330264D01*
X172920827Y-83390602D01*
X172920814Y-83390609D01*
X172789711Y-83478210D01*
X172789707Y-83478213D01*
X172678213Y-83589707D01*
X172678210Y-83589711D01*
X172590609Y-83720814D01*
X172590602Y-83720827D01*
X172530264Y-83866498D01*
X172530261Y-83866510D01*
X172499500Y-84021153D01*
X170100499Y-84021153D01*
X170069738Y-83866510D01*
X170069737Y-83866503D01*
X170069735Y-83866498D01*
X170009397Y-83720827D01*
X170009390Y-83720814D01*
X169921789Y-83589711D01*
X169921786Y-83589707D01*
X169810292Y-83478213D01*
X169810288Y-83478210D01*
X169679185Y-83390609D01*
X169679172Y-83390602D01*
X169533501Y-83330264D01*
X169533489Y-83330261D01*
X169378845Y-83299500D01*
X169378842Y-83299500D01*
X169221158Y-83299500D01*
X169221155Y-83299500D01*
X169066511Y-83330260D01*
X169066506Y-83330262D01*
X169066504Y-83330262D01*
X169066503Y-83330263D01*
X169042844Y-83340062D01*
X168995396Y-83349500D01*
X168004604Y-83349500D01*
X167957155Y-83340062D01*
X167933497Y-83330263D01*
X167933493Y-83330262D01*
X167933488Y-83330260D01*
X167778845Y-83299500D01*
X167778842Y-83299500D01*
X167621158Y-83299500D01*
X167621155Y-83299500D01*
X167466510Y-83330261D01*
X167466498Y-83330264D01*
X167320827Y-83390602D01*
X167320814Y-83390609D01*
X167189711Y-83478210D01*
X167189707Y-83478213D01*
X167078213Y-83589707D01*
X167078210Y-83589711D01*
X166990609Y-83720814D01*
X166990602Y-83720827D01*
X166930264Y-83866498D01*
X166930261Y-83866510D01*
X166899500Y-84021153D01*
X153950000Y-84021153D01*
X153950000Y-83985552D01*
X153920451Y-83798997D01*
X153862085Y-83619362D01*
X153776329Y-83451059D01*
X153757883Y-83425670D01*
X153757882Y-83425669D01*
X153192137Y-83991414D01*
X153169333Y-83906306D01*
X153110090Y-83803694D01*
X153026306Y-83719910D01*
X152923694Y-83660667D01*
X152838582Y-83637861D01*
X153404327Y-83072116D01*
X153404140Y-83069729D01*
X153404140Y-83050269D01*
X153404327Y-83047881D01*
X152838584Y-82482138D01*
X152923694Y-82459333D01*
X153026306Y-82400090D01*
X153110090Y-82316306D01*
X153169333Y-82213694D01*
X153192138Y-82128584D01*
X153757882Y-82694328D01*
X153757883Y-82694328D01*
X153776331Y-82668937D01*
X153862085Y-82500637D01*
X153920451Y-82321002D01*
X153950000Y-82134447D01*
X153950000Y-81945552D01*
X153920451Y-81758997D01*
X153862085Y-81579362D01*
X153776329Y-81411059D01*
X153757883Y-81385670D01*
X153757882Y-81385669D01*
X153192137Y-81951414D01*
X153169333Y-81866306D01*
X153110090Y-81763694D01*
X153026306Y-81679910D01*
X152923694Y-81620667D01*
X152838582Y-81597861D01*
X153404327Y-81032116D01*
X153404140Y-81029729D01*
X153404140Y-81010269D01*
X153404327Y-81007881D01*
X152838584Y-80442138D01*
X152923694Y-80419333D01*
X153026306Y-80360090D01*
X153110090Y-80276306D01*
X153169333Y-80173694D01*
X153192138Y-80088584D01*
X153757882Y-80654328D01*
X153757883Y-80654328D01*
X153776331Y-80628937D01*
X153862085Y-80460637D01*
X153920451Y-80281002D01*
X153950000Y-80094447D01*
X153950000Y-79905552D01*
X153920451Y-79718997D01*
X153862085Y-79539362D01*
X153776329Y-79371059D01*
X153757883Y-79345670D01*
X153757882Y-79345669D01*
X153192137Y-79911414D01*
X153169333Y-79826306D01*
X153110090Y-79723694D01*
X153026306Y-79639910D01*
X152923694Y-79580667D01*
X152838584Y-79557861D01*
X153404328Y-78992116D01*
X153378933Y-78973666D01*
X153210637Y-78887914D01*
X153031002Y-78829548D01*
X152844447Y-78800000D01*
X152655553Y-78800000D01*
X152468997Y-78829548D01*
X152289362Y-78887914D01*
X152121060Y-78973669D01*
X152095670Y-78992116D01*
X152095669Y-78992116D01*
X152661415Y-79557861D01*
X152576306Y-79580667D01*
X152473694Y-79639910D01*
X152389910Y-79723694D01*
X152330667Y-79826306D01*
X152307861Y-79911415D01*
X151742116Y-79345669D01*
X151742116Y-79345670D01*
X151723669Y-79371060D01*
X151637914Y-79539362D01*
X151579548Y-79718997D01*
X151566593Y-79800788D01*
X151536663Y-79863923D01*
X151477351Y-79900853D01*
X151407489Y-79899855D01*
X151405801Y-79899320D01*
X151251118Y-79849059D01*
X151064486Y-79819500D01*
X151064481Y-79819500D01*
X150875519Y-79819500D01*
X150875514Y-79819500D01*
X150688881Y-79849059D01*
X150509163Y-79907454D01*
X150340800Y-79993240D01*
X150281508Y-80036319D01*
X150187927Y-80104310D01*
X150187925Y-80104312D01*
X150187924Y-80104312D01*
X150054312Y-80237924D01*
X150054312Y-80237925D01*
X150054310Y-80237927D01*
X150026426Y-80276306D01*
X149943240Y-80390800D01*
X149857454Y-80559163D01*
X149799059Y-80738881D01*
X149769500Y-80925513D01*
X143500500Y-80925513D01*
X143500500Y-77098711D01*
X146579500Y-77098711D01*
X146579500Y-77341288D01*
X146611161Y-77581785D01*
X146673947Y-77816104D01*
X146695283Y-77867613D01*
X146766776Y-78040212D01*
X146888064Y-78250289D01*
X146888066Y-78250292D01*
X146888067Y-78250293D01*
X147035733Y-78442736D01*
X147035739Y-78442743D01*
X147207256Y-78614260D01*
X147207263Y-78614266D01*
X147217067Y-78621789D01*
X147399711Y-78761936D01*
X147609788Y-78883224D01*
X147833900Y-78976054D01*
X148068211Y-79038838D01*
X148248586Y-79062584D01*
X148308711Y-79070500D01*
X148308712Y-79070500D01*
X148551289Y-79070500D01*
X148599388Y-79064167D01*
X148791789Y-79038838D01*
X149026100Y-78976054D01*
X149250212Y-78883224D01*
X149460289Y-78761936D01*
X149652738Y-78614265D01*
X149824265Y-78442738D01*
X149971936Y-78250289D01*
X150093224Y-78040212D01*
X150142540Y-77921153D01*
X243399500Y-77921153D01*
X243399500Y-78078846D01*
X243430261Y-78233489D01*
X243430264Y-78233501D01*
X243490602Y-78379172D01*
X243490609Y-78379185D01*
X243578210Y-78510288D01*
X243578213Y-78510292D01*
X243689707Y-78621786D01*
X243689711Y-78621789D01*
X243820814Y-78709390D01*
X243820827Y-78709397D01*
X243966498Y-78769735D01*
X243966503Y-78769737D01*
X244118644Y-78800000D01*
X244121153Y-78800499D01*
X244121156Y-78800500D01*
X244121158Y-78800500D01*
X244278844Y-78800500D01*
X244278845Y-78800499D01*
X244355152Y-78785320D01*
X244433488Y-78769739D01*
X244433489Y-78769738D01*
X244433497Y-78769737D01*
X244457155Y-78759937D01*
X244504604Y-78750500D01*
X245495396Y-78750500D01*
X245542844Y-78759937D01*
X245566503Y-78769737D01*
X245566508Y-78769738D01*
X245566511Y-78769739D01*
X245721153Y-78800499D01*
X245721156Y-78800500D01*
X245721158Y-78800500D01*
X245878844Y-78800500D01*
X245878845Y-78800499D01*
X246033497Y-78769737D01*
X246179179Y-78709394D01*
X246310289Y-78621789D01*
X246421789Y-78510289D01*
X246509394Y-78379179D01*
X246569737Y-78233497D01*
X246600500Y-78078842D01*
X246600500Y-77921158D01*
X246600500Y-77921155D01*
X246600499Y-77921153D01*
X247899500Y-77921153D01*
X247899500Y-78078846D01*
X247930261Y-78233489D01*
X247930264Y-78233501D01*
X247990602Y-78379172D01*
X247990609Y-78379185D01*
X248078210Y-78510288D01*
X248078213Y-78510292D01*
X248189707Y-78621786D01*
X248189711Y-78621789D01*
X248320814Y-78709390D01*
X248320827Y-78709397D01*
X248466498Y-78769735D01*
X248466503Y-78769737D01*
X248618644Y-78800000D01*
X248621153Y-78800499D01*
X248621156Y-78800500D01*
X248621158Y-78800500D01*
X248778844Y-78800500D01*
X248778845Y-78800499D01*
X248855152Y-78785320D01*
X248933488Y-78769739D01*
X248933489Y-78769738D01*
X248933497Y-78769737D01*
X248957155Y-78759937D01*
X249004604Y-78750500D01*
X249995396Y-78750500D01*
X250042844Y-78759937D01*
X250066503Y-78769737D01*
X250066508Y-78769738D01*
X250066511Y-78769739D01*
X250221153Y-78800499D01*
X250221156Y-78800500D01*
X250221158Y-78800500D01*
X250378844Y-78800500D01*
X250378845Y-78800499D01*
X250533497Y-78769737D01*
X250679179Y-78709394D01*
X250810289Y-78621789D01*
X250921789Y-78510289D01*
X251009394Y-78379179D01*
X251069737Y-78233497D01*
X251100500Y-78078842D01*
X251100500Y-77921158D01*
X251100500Y-77921155D01*
X251100499Y-77921153D01*
X251079603Y-77816104D01*
X251069737Y-77766503D01*
X251069735Y-77766498D01*
X251009397Y-77620827D01*
X251009390Y-77620814D01*
X250921789Y-77489711D01*
X250921786Y-77489707D01*
X250810292Y-77378213D01*
X250810288Y-77378210D01*
X250679185Y-77290609D01*
X250679172Y-77290602D01*
X250533501Y-77230264D01*
X250533489Y-77230261D01*
X250378845Y-77199500D01*
X250378842Y-77199500D01*
X250221158Y-77199500D01*
X250221155Y-77199500D01*
X250066511Y-77230260D01*
X250066506Y-77230262D01*
X250066504Y-77230262D01*
X250066503Y-77230263D01*
X250042844Y-77240062D01*
X249995396Y-77249500D01*
X249004604Y-77249500D01*
X248957155Y-77240062D01*
X248933497Y-77230263D01*
X248933493Y-77230262D01*
X248933488Y-77230260D01*
X248778845Y-77199500D01*
X248778842Y-77199500D01*
X248621158Y-77199500D01*
X248621155Y-77199500D01*
X248466510Y-77230261D01*
X248466498Y-77230264D01*
X248320827Y-77290602D01*
X248320814Y-77290609D01*
X248189711Y-77378210D01*
X248189707Y-77378213D01*
X248078213Y-77489707D01*
X248078210Y-77489711D01*
X247990609Y-77620814D01*
X247990602Y-77620827D01*
X247930264Y-77766498D01*
X247930261Y-77766510D01*
X247899500Y-77921153D01*
X246600499Y-77921153D01*
X246579603Y-77816104D01*
X246569737Y-77766503D01*
X246569735Y-77766498D01*
X246509397Y-77620827D01*
X246509390Y-77620814D01*
X246421789Y-77489711D01*
X246421786Y-77489707D01*
X246310292Y-77378213D01*
X246310288Y-77378210D01*
X246179185Y-77290609D01*
X246179172Y-77290602D01*
X246033501Y-77230264D01*
X246033489Y-77230261D01*
X245878845Y-77199500D01*
X245878842Y-77199500D01*
X245721158Y-77199500D01*
X245721155Y-77199500D01*
X245566511Y-77230260D01*
X245566506Y-77230262D01*
X245566504Y-77230262D01*
X245566503Y-77230263D01*
X245542844Y-77240062D01*
X245495396Y-77249500D01*
X244504604Y-77249500D01*
X244457155Y-77240062D01*
X244433497Y-77230263D01*
X244433493Y-77230262D01*
X244433488Y-77230260D01*
X244278845Y-77199500D01*
X244278842Y-77199500D01*
X244121158Y-77199500D01*
X244121155Y-77199500D01*
X243966510Y-77230261D01*
X243966498Y-77230264D01*
X243820827Y-77290602D01*
X243820814Y-77290609D01*
X243689711Y-77378210D01*
X243689707Y-77378213D01*
X243578213Y-77489707D01*
X243578210Y-77489711D01*
X243490609Y-77620814D01*
X243490602Y-77620827D01*
X243430264Y-77766498D01*
X243430261Y-77766510D01*
X243399500Y-77921153D01*
X150142540Y-77921153D01*
X150186054Y-77816100D01*
X150248838Y-77581789D01*
X150280500Y-77341288D01*
X150280500Y-77098712D01*
X150248838Y-76858211D01*
X150186054Y-76623900D01*
X150093224Y-76399788D01*
X149971936Y-76189711D01*
X149824265Y-75997262D01*
X149824260Y-75997256D01*
X149652743Y-75825739D01*
X149652736Y-75825733D01*
X149460293Y-75678067D01*
X149460292Y-75678066D01*
X149460289Y-75678064D01*
X149250212Y-75556776D01*
X149250205Y-75556773D01*
X149026104Y-75463947D01*
X148791785Y-75401161D01*
X148551289Y-75369500D01*
X148551288Y-75369500D01*
X148308712Y-75369500D01*
X148308711Y-75369500D01*
X148068214Y-75401161D01*
X147833895Y-75463947D01*
X147609794Y-75556773D01*
X147609785Y-75556777D01*
X147399706Y-75678067D01*
X147207263Y-75825733D01*
X147207256Y-75825739D01*
X147035739Y-75997256D01*
X147035733Y-75997263D01*
X146888067Y-76189706D01*
X146766777Y-76399785D01*
X146766773Y-76399794D01*
X146673947Y-76623895D01*
X146611161Y-76858214D01*
X146579500Y-77098711D01*
X143500500Y-77098711D01*
X143500500Y-72321153D01*
X175799500Y-72321153D01*
X175799500Y-72478846D01*
X175830261Y-72633489D01*
X175830264Y-72633501D01*
X175890602Y-72779172D01*
X175890609Y-72779185D01*
X175978210Y-72910288D01*
X175978213Y-72910292D01*
X176089710Y-73021789D01*
X176220815Y-73109390D01*
X176220821Y-73109394D01*
X176244475Y-73119191D01*
X176284703Y-73146071D01*
X176953927Y-73815295D01*
X176980807Y-73855523D01*
X176990604Y-73879175D01*
X176990609Y-73879185D01*
X177078210Y-74010288D01*
X177078213Y-74010292D01*
X177189707Y-74121786D01*
X177189711Y-74121789D01*
X177320814Y-74209390D01*
X177320827Y-74209397D01*
X177429461Y-74254394D01*
X177466503Y-74269737D01*
X177621153Y-74300499D01*
X177621156Y-74300500D01*
X177621158Y-74300500D01*
X177778844Y-74300500D01*
X177778845Y-74300499D01*
X177933497Y-74269737D01*
X178079179Y-74209394D01*
X178210289Y-74121789D01*
X178321789Y-74010289D01*
X178381348Y-73921153D01*
X178999500Y-73921153D01*
X178999500Y-74078846D01*
X179030261Y-74233489D01*
X179030264Y-74233501D01*
X179090602Y-74379172D01*
X179090609Y-74379185D01*
X179178210Y-74510288D01*
X179178213Y-74510292D01*
X179289707Y-74621786D01*
X179289711Y-74621789D01*
X179420814Y-74709390D01*
X179420827Y-74709397D01*
X179508245Y-74745606D01*
X179566503Y-74769737D01*
X179721153Y-74800499D01*
X179721156Y-74800500D01*
X179721158Y-74800500D01*
X179878844Y-74800500D01*
X179878845Y-74800499D01*
X179955152Y-74785320D01*
X180033488Y-74769739D01*
X180033489Y-74769738D01*
X180033497Y-74769737D01*
X180057155Y-74759937D01*
X180104604Y-74750500D01*
X181095396Y-74750500D01*
X181142844Y-74759937D01*
X181166503Y-74769737D01*
X181166508Y-74769738D01*
X181166511Y-74769739D01*
X181321153Y-74800499D01*
X181321156Y-74800500D01*
X181321158Y-74800500D01*
X181478844Y-74800500D01*
X181478845Y-74800499D01*
X181633497Y-74769737D01*
X181779179Y-74709394D01*
X181910289Y-74621789D01*
X182021789Y-74510289D01*
X182097031Y-74397682D01*
X272000000Y-74397682D01*
X272000000Y-74602317D01*
X272032009Y-74804417D01*
X272095244Y-74999031D01*
X272188141Y-75181350D01*
X272188147Y-75181359D01*
X272220523Y-75225921D01*
X272220524Y-75225922D01*
X272900000Y-74546446D01*
X272900000Y-74552661D01*
X272927259Y-74654394D01*
X272979920Y-74745606D01*
X273054394Y-74820080D01*
X273145606Y-74872741D01*
X273247339Y-74900000D01*
X273253553Y-74900000D01*
X272574076Y-75579474D01*
X272618650Y-75611859D01*
X272800968Y-75704755D01*
X272995582Y-75767990D01*
X273197683Y-75800000D01*
X273402317Y-75800000D01*
X273604417Y-75767990D01*
X273799031Y-75704755D01*
X273981349Y-75611859D01*
X274025921Y-75579474D01*
X273346447Y-74900000D01*
X273352661Y-74900000D01*
X273454394Y-74872741D01*
X273545606Y-74820080D01*
X273620080Y-74745606D01*
X273672741Y-74654394D01*
X273700000Y-74552661D01*
X273700000Y-74546447D01*
X274379473Y-75225921D01*
X274417280Y-75222946D01*
X274485658Y-75237310D01*
X274535415Y-75286361D01*
X274544716Y-75307559D01*
X274565186Y-75369333D01*
X274565187Y-75369336D01*
X274600069Y-75425888D01*
X274657288Y-75518656D01*
X274781344Y-75642712D01*
X274930666Y-75734814D01*
X275097203Y-75789999D01*
X275199991Y-75800500D01*
X276400008Y-75800499D01*
X276502797Y-75789999D01*
X276669334Y-75734814D01*
X276818656Y-75642712D01*
X276942712Y-75518656D01*
X277034814Y-75369334D01*
X277089999Y-75202797D01*
X277100500Y-75100009D01*
X277100499Y-73899992D01*
X277097191Y-73867613D01*
X277089999Y-73797203D01*
X277089998Y-73797200D01*
X277079824Y-73766498D01*
X277034814Y-73630666D01*
X276942712Y-73481344D01*
X276818656Y-73357288D01*
X276718066Y-73295244D01*
X276669336Y-73265187D01*
X276669331Y-73265185D01*
X276667862Y-73264698D01*
X276502797Y-73210001D01*
X276502795Y-73210000D01*
X276400010Y-73199500D01*
X275199998Y-73199500D01*
X275199981Y-73199501D01*
X275097203Y-73210000D01*
X275097200Y-73210001D01*
X274930668Y-73265185D01*
X274930663Y-73265187D01*
X274781342Y-73357289D01*
X274657289Y-73481342D01*
X274565187Y-73630663D01*
X274565185Y-73630668D01*
X274544717Y-73692438D01*
X274504944Y-73749883D01*
X274440428Y-73776706D01*
X274417283Y-73777052D01*
X274379474Y-73774076D01*
X273700000Y-74453551D01*
X273700000Y-74447339D01*
X273672741Y-74345606D01*
X273620080Y-74254394D01*
X273545606Y-74179920D01*
X273454394Y-74127259D01*
X273352661Y-74100000D01*
X273346446Y-74100000D01*
X274025922Y-73420524D01*
X274025921Y-73420523D01*
X273981359Y-73388147D01*
X273981350Y-73388141D01*
X273799031Y-73295244D01*
X273604417Y-73232009D01*
X273402317Y-73200000D01*
X273197683Y-73200000D01*
X272995582Y-73232009D01*
X272800968Y-73295244D01*
X272618644Y-73388143D01*
X272574077Y-73420523D01*
X272574077Y-73420524D01*
X273253554Y-74100000D01*
X273247339Y-74100000D01*
X273145606Y-74127259D01*
X273054394Y-74179920D01*
X272979920Y-74254394D01*
X272927259Y-74345606D01*
X272900000Y-74447339D01*
X272900000Y-74453553D01*
X272220524Y-73774077D01*
X272220523Y-73774077D01*
X272188143Y-73818644D01*
X272095244Y-74000968D01*
X272032009Y-74195582D01*
X272000000Y-74397682D01*
X182097031Y-74397682D01*
X182109394Y-74379179D01*
X182109397Y-74379172D01*
X182123401Y-74345364D01*
X182169735Y-74233501D01*
X182169737Y-74233497D01*
X182200500Y-74078842D01*
X182200500Y-73921158D01*
X182200500Y-73921155D01*
X182200499Y-73921153D01*
X182182912Y-73832737D01*
X182169737Y-73766503D01*
X182113471Y-73630663D01*
X182109397Y-73620827D01*
X182109390Y-73620814D01*
X182053169Y-73536674D01*
X182021789Y-73489711D01*
X182021786Y-73489707D01*
X181910292Y-73378213D01*
X181910288Y-73378210D01*
X181779185Y-73290609D01*
X181779172Y-73290602D01*
X181633501Y-73230264D01*
X181633489Y-73230261D01*
X181478845Y-73199500D01*
X181478842Y-73199500D01*
X181321158Y-73199500D01*
X181321155Y-73199500D01*
X181166511Y-73230260D01*
X181166506Y-73230262D01*
X181166504Y-73230262D01*
X181166503Y-73230263D01*
X181142844Y-73240062D01*
X181095396Y-73249500D01*
X180104604Y-73249500D01*
X180057155Y-73240062D01*
X180033497Y-73230263D01*
X180033493Y-73230262D01*
X180033488Y-73230260D01*
X179878845Y-73199500D01*
X179878842Y-73199500D01*
X179721158Y-73199500D01*
X179721155Y-73199500D01*
X179566510Y-73230261D01*
X179566498Y-73230264D01*
X179420827Y-73290602D01*
X179420814Y-73290609D01*
X179289711Y-73378210D01*
X179289707Y-73378213D01*
X179178213Y-73489707D01*
X179178210Y-73489711D01*
X179090609Y-73620814D01*
X179090602Y-73620827D01*
X179030264Y-73766498D01*
X179030261Y-73766510D01*
X178999500Y-73921153D01*
X178381348Y-73921153D01*
X178409394Y-73879179D01*
X178469737Y-73733497D01*
X178500500Y-73578842D01*
X178500500Y-73421158D01*
X178500500Y-73421155D01*
X178500499Y-73421153D01*
X178491957Y-73378210D01*
X178469737Y-73266503D01*
X178469192Y-73265187D01*
X178409397Y-73120827D01*
X178409390Y-73120814D01*
X178321789Y-72989711D01*
X178321786Y-72989707D01*
X178210292Y-72878213D01*
X178210288Y-72878210D01*
X178079185Y-72790609D01*
X178079175Y-72790604D01*
X178055523Y-72780807D01*
X178015295Y-72753927D01*
X177346071Y-72084703D01*
X177319191Y-72044475D01*
X177309394Y-72020821D01*
X177309389Y-72020814D01*
X177221789Y-71889710D01*
X177110292Y-71778213D01*
X177110288Y-71778210D01*
X176979185Y-71690609D01*
X176979172Y-71690602D01*
X176833501Y-71630264D01*
X176833489Y-71630261D01*
X176678845Y-71599500D01*
X176678842Y-71599500D01*
X176521158Y-71599500D01*
X176521155Y-71599500D01*
X176366510Y-71630261D01*
X176366498Y-71630264D01*
X176220827Y-71690602D01*
X176220814Y-71690609D01*
X176089711Y-71778210D01*
X176089707Y-71778213D01*
X175978213Y-71889707D01*
X175978210Y-71889711D01*
X175890609Y-72020814D01*
X175890602Y-72020827D01*
X175830264Y-72166498D01*
X175830261Y-72166510D01*
X175799500Y-72321153D01*
X143500500Y-72321153D01*
X143500500Y-70921153D01*
X178199500Y-70921153D01*
X178199500Y-71078846D01*
X178230261Y-71233489D01*
X178230264Y-71233501D01*
X178290602Y-71379172D01*
X178290609Y-71379185D01*
X178378210Y-71510288D01*
X178378213Y-71510292D01*
X178489707Y-71621786D01*
X178489711Y-71621789D01*
X178620814Y-71709390D01*
X178620827Y-71709397D01*
X178755277Y-71765087D01*
X178766503Y-71769737D01*
X178921153Y-71800499D01*
X178921156Y-71800500D01*
X178921158Y-71800500D01*
X179078844Y-71800500D01*
X179078845Y-71800499D01*
X179190901Y-71778210D01*
X179233488Y-71769739D01*
X179233489Y-71769738D01*
X179233497Y-71769737D01*
X179257155Y-71759937D01*
X179304604Y-71750500D01*
X181095396Y-71750500D01*
X181142844Y-71759937D01*
X181166503Y-71769737D01*
X181166508Y-71769738D01*
X181166511Y-71769739D01*
X181321153Y-71800499D01*
X181321156Y-71800500D01*
X181321158Y-71800500D01*
X181478844Y-71800500D01*
X181478845Y-71800499D01*
X181633497Y-71769737D01*
X181779179Y-71709394D01*
X181910289Y-71621789D01*
X182021789Y-71510289D01*
X182109394Y-71379179D01*
X182169737Y-71233497D01*
X182181588Y-71173920D01*
X227249499Y-71173920D01*
X227278340Y-71318907D01*
X227278343Y-71318917D01*
X227334912Y-71455488D01*
X227334919Y-71455501D01*
X227417048Y-71578415D01*
X227417051Y-71578419D01*
X227521580Y-71682948D01*
X227521584Y-71682951D01*
X227644498Y-71765080D01*
X227644511Y-71765087D01*
X227781082Y-71821656D01*
X227781087Y-71821658D01*
X227781091Y-71821658D01*
X227781092Y-71821659D01*
X227926079Y-71850500D01*
X227926082Y-71850500D01*
X228073920Y-71850500D01*
X228171462Y-71831096D01*
X228218913Y-71821658D01*
X228344262Y-71769737D01*
X228355488Y-71765087D01*
X228355488Y-71765086D01*
X228355495Y-71765084D01*
X228420876Y-71721398D01*
X228487553Y-71700520D01*
X228489767Y-71700500D01*
X229110233Y-71700500D01*
X229177272Y-71720185D01*
X229179124Y-71721398D01*
X229244498Y-71765080D01*
X229244511Y-71765087D01*
X229381082Y-71821656D01*
X229381087Y-71821658D01*
X229381091Y-71821658D01*
X229381092Y-71821659D01*
X229526079Y-71850500D01*
X229526082Y-71850500D01*
X229673920Y-71850500D01*
X229771462Y-71831096D01*
X229818913Y-71821658D01*
X229944262Y-71769737D01*
X229955488Y-71765087D01*
X229955488Y-71765086D01*
X229955495Y-71765084D01*
X230078416Y-71682951D01*
X230182951Y-71578416D01*
X230265084Y-71455495D01*
X230321658Y-71318913D01*
X230350500Y-71173918D01*
X230350500Y-71026082D01*
X230350500Y-71026079D01*
X230321659Y-70881092D01*
X230321658Y-70881091D01*
X230321658Y-70881087D01*
X230301946Y-70833497D01*
X230265087Y-70744511D01*
X230265080Y-70744498D01*
X230182951Y-70621584D01*
X230182948Y-70621580D01*
X230078419Y-70517051D01*
X230078415Y-70517048D01*
X229955501Y-70434919D01*
X229955488Y-70434912D01*
X229818917Y-70378343D01*
X229818907Y-70378340D01*
X229673920Y-70349500D01*
X229673918Y-70349500D01*
X229526082Y-70349500D01*
X229526080Y-70349500D01*
X229381092Y-70378340D01*
X229381082Y-70378343D01*
X229244511Y-70434912D01*
X229244498Y-70434919D01*
X229179124Y-70478602D01*
X229112447Y-70499480D01*
X229110233Y-70499500D01*
X228489767Y-70499500D01*
X228422728Y-70479815D01*
X228420876Y-70478602D01*
X228355501Y-70434919D01*
X228355488Y-70434912D01*
X228218917Y-70378343D01*
X228218907Y-70378340D01*
X228073920Y-70349500D01*
X228073918Y-70349500D01*
X227926082Y-70349500D01*
X227926080Y-70349500D01*
X227781092Y-70378340D01*
X227781082Y-70378343D01*
X227644511Y-70434912D01*
X227644498Y-70434919D01*
X227521584Y-70517048D01*
X227521580Y-70517051D01*
X227417051Y-70621580D01*
X227417048Y-70621584D01*
X227334919Y-70744498D01*
X227334912Y-70744511D01*
X227278343Y-70881082D01*
X227278340Y-70881092D01*
X227249500Y-71026079D01*
X227249500Y-71026082D01*
X227249500Y-71173918D01*
X227249500Y-71173920D01*
X227249499Y-71173920D01*
X182181588Y-71173920D01*
X182200500Y-71078842D01*
X182200500Y-70921158D01*
X182200500Y-70921155D01*
X182200499Y-70921153D01*
X182169738Y-70766510D01*
X182169737Y-70766503D01*
X182133427Y-70678842D01*
X182109397Y-70620827D01*
X182109390Y-70620814D01*
X182021789Y-70489711D01*
X182021786Y-70489707D01*
X181910292Y-70378213D01*
X181910288Y-70378210D01*
X181779185Y-70290609D01*
X181779172Y-70290602D01*
X181633501Y-70230264D01*
X181633489Y-70230261D01*
X181478845Y-70199500D01*
X181478842Y-70199500D01*
X181321158Y-70199500D01*
X181321155Y-70199500D01*
X181166511Y-70230260D01*
X181166506Y-70230262D01*
X181166504Y-70230262D01*
X181166503Y-70230263D01*
X181142844Y-70240062D01*
X181095396Y-70249500D01*
X179304604Y-70249500D01*
X179257155Y-70240062D01*
X179233497Y-70230263D01*
X179233493Y-70230262D01*
X179233488Y-70230260D01*
X179078845Y-70199500D01*
X179078842Y-70199500D01*
X178921158Y-70199500D01*
X178921155Y-70199500D01*
X178766510Y-70230261D01*
X178766498Y-70230264D01*
X178620827Y-70290602D01*
X178620814Y-70290609D01*
X178489711Y-70378210D01*
X178489707Y-70378213D01*
X178378213Y-70489707D01*
X178378210Y-70489711D01*
X178290609Y-70620814D01*
X178290602Y-70620827D01*
X178230264Y-70766498D01*
X178230261Y-70766510D01*
X178199500Y-70921153D01*
X143500500Y-70921153D01*
X143500500Y-68649983D01*
X144949500Y-68649983D01*
X144949500Y-69850001D01*
X144949501Y-69850018D01*
X144960000Y-69952796D01*
X144960001Y-69952799D01*
X145005370Y-70089711D01*
X145015186Y-70119334D01*
X145107288Y-70268656D01*
X145231344Y-70392712D01*
X145380666Y-70484814D01*
X145547203Y-70539999D01*
X145649991Y-70550500D01*
X146850008Y-70550499D01*
X146952797Y-70539999D01*
X147119334Y-70484814D01*
X147268656Y-70392712D01*
X147392712Y-70268656D01*
X147484814Y-70119334D01*
X147508102Y-70049054D01*
X147512110Y-70041050D01*
X147530060Y-70021772D01*
X147545055Y-70000116D01*
X147553495Y-69996606D01*
X147559725Y-69989917D01*
X147585249Y-69983404D01*
X147609571Y-69973292D01*
X147625834Y-69973048D01*
X147627425Y-69972643D01*
X147628523Y-69973008D01*
X147632719Y-69972946D01*
X147670525Y-69975921D01*
X148350000Y-69296446D01*
X148350000Y-69302661D01*
X148377259Y-69404394D01*
X148429920Y-69495606D01*
X148504394Y-69570080D01*
X148595606Y-69622741D01*
X148697339Y-69650000D01*
X148703553Y-69650000D01*
X148024076Y-70329474D01*
X148068650Y-70361859D01*
X148250968Y-70454755D01*
X148445582Y-70517990D01*
X148647683Y-70550000D01*
X148852317Y-70550000D01*
X149054417Y-70517990D01*
X149249031Y-70454755D01*
X149431349Y-70361859D01*
X149475921Y-70329474D01*
X148796447Y-69650000D01*
X148802661Y-69650000D01*
X148904394Y-69622741D01*
X148995606Y-69570080D01*
X149070080Y-69495606D01*
X149122741Y-69404394D01*
X149150000Y-69302661D01*
X149150000Y-69296447D01*
X149829474Y-69975921D01*
X149861859Y-69931349D01*
X149954755Y-69749031D01*
X150017990Y-69554417D01*
X150039097Y-69421153D01*
X250299500Y-69421153D01*
X250299500Y-69578846D01*
X250330261Y-69733489D01*
X250330264Y-69733501D01*
X250390602Y-69879172D01*
X250390609Y-69879185D01*
X250478210Y-70010288D01*
X250478213Y-70010292D01*
X250589710Y-70121789D01*
X250720815Y-70209390D01*
X250720821Y-70209394D01*
X250744475Y-70219191D01*
X250784703Y-70246071D01*
X251453927Y-70915295D01*
X251480807Y-70955523D01*
X251490604Y-70979175D01*
X251490609Y-70979185D01*
X251578210Y-71110288D01*
X251578213Y-71110292D01*
X251689707Y-71221786D01*
X251689711Y-71221789D01*
X251820814Y-71309390D01*
X251820827Y-71309397D01*
X251966498Y-71369735D01*
X251966503Y-71369737D01*
X252121153Y-71400499D01*
X252121156Y-71400500D01*
X252121158Y-71400500D01*
X252278844Y-71400500D01*
X252278845Y-71400499D01*
X252433497Y-71369737D01*
X252579179Y-71309394D01*
X252710289Y-71221789D01*
X252821789Y-71110289D01*
X252909394Y-70979179D01*
X252969737Y-70833497D01*
X253000500Y-70678842D01*
X253000500Y-70521158D01*
X253000500Y-70521155D01*
X253000499Y-70521153D01*
X252992035Y-70478602D01*
X252969737Y-70366503D01*
X252938298Y-70290602D01*
X252909397Y-70220827D01*
X252909390Y-70220814D01*
X252821789Y-70089711D01*
X252821786Y-70089707D01*
X252710292Y-69978213D01*
X252710288Y-69978210D01*
X252579185Y-69890609D01*
X252579175Y-69890604D01*
X252555523Y-69880807D01*
X252515295Y-69853927D01*
X251846071Y-69184703D01*
X251819191Y-69144475D01*
X251809394Y-69120821D01*
X251731600Y-69004394D01*
X251721789Y-68989710D01*
X251610292Y-68878213D01*
X251610288Y-68878210D01*
X251479185Y-68790609D01*
X251479172Y-68790602D01*
X251333501Y-68730264D01*
X251333489Y-68730261D01*
X251178845Y-68699500D01*
X251178842Y-68699500D01*
X251021158Y-68699500D01*
X251021155Y-68699500D01*
X250866510Y-68730261D01*
X250866498Y-68730264D01*
X250720827Y-68790602D01*
X250720814Y-68790609D01*
X250589711Y-68878210D01*
X250589707Y-68878213D01*
X250478213Y-68989707D01*
X250478210Y-68989711D01*
X250390609Y-69120814D01*
X250390602Y-69120827D01*
X250330264Y-69266498D01*
X250330261Y-69266510D01*
X250299500Y-69421153D01*
X150039097Y-69421153D01*
X150043134Y-69395668D01*
X150050000Y-69352317D01*
X150050000Y-69147682D01*
X150017990Y-68945582D01*
X149954755Y-68750968D01*
X149861859Y-68568650D01*
X149829474Y-68524077D01*
X149829474Y-68524076D01*
X149150000Y-69203551D01*
X149150000Y-69197339D01*
X149122741Y-69095606D01*
X149070080Y-69004394D01*
X148995606Y-68929920D01*
X148904394Y-68877259D01*
X148802661Y-68850000D01*
X148796446Y-68850000D01*
X149475922Y-68170524D01*
X149475921Y-68170523D01*
X149431359Y-68138147D01*
X149431350Y-68138141D01*
X149249031Y-68045244D01*
X149054417Y-67982009D01*
X148852317Y-67950000D01*
X148647683Y-67950000D01*
X148445582Y-67982009D01*
X148250968Y-68045244D01*
X148068644Y-68138143D01*
X148024077Y-68170523D01*
X148024077Y-68170524D01*
X148703554Y-68850000D01*
X148697339Y-68850000D01*
X148595606Y-68877259D01*
X148504394Y-68929920D01*
X148429920Y-69004394D01*
X148377259Y-69095606D01*
X148350000Y-69197339D01*
X148350000Y-69203553D01*
X147670524Y-68524077D01*
X147632719Y-68527053D01*
X147564341Y-68512689D01*
X147514584Y-68463638D01*
X147512110Y-68458949D01*
X147508101Y-68450942D01*
X147484814Y-68380666D01*
X147392712Y-68231344D01*
X147268656Y-68107288D01*
X147119334Y-68015186D01*
X146952797Y-67960001D01*
X146952795Y-67960000D01*
X146850010Y-67949500D01*
X145649998Y-67949500D01*
X145649981Y-67949501D01*
X145547203Y-67960000D01*
X145547200Y-67960001D01*
X145380668Y-68015185D01*
X145380663Y-68015187D01*
X145231342Y-68107289D01*
X145107289Y-68231342D01*
X145015187Y-68380663D01*
X145015186Y-68380666D01*
X144960001Y-68547203D01*
X144960001Y-68547204D01*
X144960000Y-68547204D01*
X144949500Y-68649983D01*
X143500500Y-68649983D01*
X143500500Y-67150403D01*
X160614500Y-67150403D01*
X160614500Y-67349597D01*
X160617690Y-67369736D01*
X160645661Y-67546340D01*
X160645661Y-67546343D01*
X160707213Y-67735780D01*
X160797514Y-67913005D01*
X160797647Y-67913266D01*
X160914731Y-68074418D01*
X161055582Y-68215269D01*
X161216734Y-68332353D01*
X161311548Y-68380663D01*
X161394219Y-68422786D01*
X161583657Y-68484338D01*
X161583658Y-68484338D01*
X161583661Y-68484339D01*
X161780403Y-68515500D01*
X161780404Y-68515500D01*
X161979596Y-68515500D01*
X161979597Y-68515500D01*
X162176339Y-68484339D01*
X162176342Y-68484338D01*
X162176343Y-68484338D01*
X162365780Y-68422786D01*
X162365780Y-68422785D01*
X162365783Y-68422785D01*
X162543266Y-68332353D01*
X162704418Y-68215269D01*
X162845269Y-68074418D01*
X162962353Y-67913266D01*
X163039515Y-67761827D01*
X163087490Y-67711031D01*
X163155311Y-67694236D01*
X163221446Y-67716773D01*
X163260485Y-67761827D01*
X163337647Y-67913266D01*
X163454731Y-68074418D01*
X163595582Y-68215269D01*
X163756734Y-68332353D01*
X163851548Y-68380663D01*
X163934219Y-68422786D01*
X164123657Y-68484338D01*
X164123658Y-68484338D01*
X164123661Y-68484339D01*
X164320403Y-68515500D01*
X164320404Y-68515500D01*
X164519596Y-68515500D01*
X164519597Y-68515500D01*
X164716339Y-68484339D01*
X164716342Y-68484338D01*
X164716343Y-68484338D01*
X164905780Y-68422786D01*
X164905780Y-68422785D01*
X164905783Y-68422785D01*
X165083266Y-68332353D01*
X165244418Y-68215269D01*
X165385269Y-68074418D01*
X165502353Y-67913266D01*
X165579515Y-67761827D01*
X165627490Y-67711031D01*
X165695311Y-67694236D01*
X165761446Y-67716773D01*
X165800485Y-67761827D01*
X165877647Y-67913266D01*
X165994731Y-68074418D01*
X166135582Y-68215269D01*
X166296734Y-68332353D01*
X166391548Y-68380663D01*
X166474219Y-68422786D01*
X166663657Y-68484338D01*
X166663658Y-68484338D01*
X166663661Y-68484339D01*
X166860403Y-68515500D01*
X166860404Y-68515500D01*
X167059596Y-68515500D01*
X167059597Y-68515500D01*
X167256339Y-68484339D01*
X167256342Y-68484338D01*
X167256343Y-68484338D01*
X167445780Y-68422786D01*
X167445780Y-68422785D01*
X167445783Y-68422785D01*
X167623266Y-68332353D01*
X167784418Y-68215269D01*
X167925269Y-68074418D01*
X168042353Y-67913266D01*
X168119515Y-67761827D01*
X168167490Y-67711031D01*
X168235311Y-67694236D01*
X168301446Y-67716773D01*
X168340485Y-67761827D01*
X168417647Y-67913266D01*
X168534731Y-68074418D01*
X168675582Y-68215269D01*
X168836734Y-68332353D01*
X168931548Y-68380663D01*
X169014219Y-68422786D01*
X169203657Y-68484338D01*
X169203658Y-68484338D01*
X169203661Y-68484339D01*
X169400403Y-68515500D01*
X169400404Y-68515500D01*
X169599596Y-68515500D01*
X169599597Y-68515500D01*
X169796339Y-68484339D01*
X169796342Y-68484338D01*
X169796343Y-68484338D01*
X169985780Y-68422786D01*
X169985780Y-68422785D01*
X169985783Y-68422785D01*
X170163266Y-68332353D01*
X170324418Y-68215269D01*
X170465269Y-68074418D01*
X170582353Y-67913266D01*
X170659795Y-67761276D01*
X170707769Y-67710481D01*
X170775590Y-67693686D01*
X170841725Y-67716223D01*
X170880765Y-67761277D01*
X170958077Y-67913008D01*
X170985580Y-67950863D01*
X170985581Y-67950864D01*
X171548871Y-67387574D01*
X171564755Y-67446853D01*
X171631898Y-67563147D01*
X171726853Y-67658102D01*
X171843147Y-67725245D01*
X171902425Y-67741128D01*
X171339134Y-68304417D01*
X171376994Y-68331924D01*
X171554405Y-68422320D01*
X171743777Y-68483852D01*
X171940437Y-68515000D01*
X172139563Y-68515000D01*
X172336222Y-68483852D01*
X172525594Y-68422320D01*
X172703005Y-68331924D01*
X172740863Y-68304418D01*
X172740863Y-68304417D01*
X172177574Y-67741128D01*
X172236853Y-67725245D01*
X172353147Y-67658102D01*
X172448102Y-67563147D01*
X172515245Y-67446853D01*
X172531128Y-67387574D01*
X173094417Y-67950863D01*
X173094418Y-67950863D01*
X173121924Y-67913005D01*
X173199234Y-67761277D01*
X173247208Y-67710481D01*
X173315029Y-67693686D01*
X173381164Y-67716223D01*
X173420204Y-67761277D01*
X173497514Y-67913005D01*
X173497647Y-67913266D01*
X173614731Y-68074418D01*
X173755582Y-68215269D01*
X173916734Y-68332353D01*
X174011548Y-68380663D01*
X174094219Y-68422786D01*
X174283657Y-68484338D01*
X174283658Y-68484338D01*
X174283661Y-68484339D01*
X174480403Y-68515500D01*
X174480404Y-68515500D01*
X174679596Y-68515500D01*
X174679597Y-68515500D01*
X174876339Y-68484339D01*
X174876342Y-68484338D01*
X174876343Y-68484338D01*
X175065780Y-68422786D01*
X175065780Y-68422785D01*
X175065783Y-68422785D01*
X175243266Y-68332353D01*
X175404418Y-68215269D01*
X175545269Y-68074418D01*
X175662353Y-67913266D01*
X175739515Y-67761827D01*
X175787490Y-67711031D01*
X175855311Y-67694236D01*
X175921446Y-67716773D01*
X175960485Y-67761827D01*
X176037647Y-67913266D01*
X176154731Y-68074418D01*
X176295582Y-68215269D01*
X176456734Y-68332353D01*
X176551548Y-68380663D01*
X176634219Y-68422786D01*
X176823657Y-68484338D01*
X176823658Y-68484338D01*
X176823661Y-68484339D01*
X177020403Y-68515500D01*
X177020404Y-68515500D01*
X177219596Y-68515500D01*
X177219597Y-68515500D01*
X177416339Y-68484339D01*
X177416342Y-68484338D01*
X177416343Y-68484338D01*
X177605780Y-68422786D01*
X177605780Y-68422785D01*
X177605783Y-68422785D01*
X177783266Y-68332353D01*
X177944418Y-68215269D01*
X178085269Y-68074418D01*
X178202353Y-67913266D01*
X178279515Y-67761827D01*
X178327490Y-67711031D01*
X178395311Y-67694236D01*
X178461446Y-67716773D01*
X178500485Y-67761827D01*
X178577647Y-67913266D01*
X178694731Y-68074418D01*
X178835582Y-68215269D01*
X178996734Y-68332353D01*
X179091548Y-68380663D01*
X179174219Y-68422786D01*
X179363657Y-68484338D01*
X179363658Y-68484338D01*
X179363661Y-68484339D01*
X179560403Y-68515500D01*
X179560404Y-68515500D01*
X179759596Y-68515500D01*
X179759597Y-68515500D01*
X179956339Y-68484339D01*
X179956342Y-68484338D01*
X179956343Y-68484338D01*
X180145780Y-68422786D01*
X180145780Y-68422785D01*
X180145783Y-68422785D01*
X180323266Y-68332353D01*
X180484418Y-68215269D01*
X180625269Y-68074418D01*
X180742353Y-67913266D01*
X180816265Y-67768204D01*
X180864239Y-67717408D01*
X180926750Y-67700499D01*
X182710233Y-67700499D01*
X182777272Y-67720184D01*
X182779124Y-67721397D01*
X182844498Y-67765079D01*
X182844511Y-67765086D01*
X182977533Y-67820185D01*
X182981087Y-67821657D01*
X182981091Y-67821657D01*
X182981092Y-67821658D01*
X183126079Y-67850499D01*
X183126082Y-67850499D01*
X183273920Y-67850499D01*
X183371462Y-67831095D01*
X183418913Y-67821657D01*
X183555495Y-67765083D01*
X183678416Y-67682950D01*
X183782951Y-67578415D01*
X183865084Y-67455494D01*
X183921658Y-67318912D01*
X183950500Y-67173917D01*
X183950500Y-67026081D01*
X183950500Y-67026078D01*
X183921659Y-66881091D01*
X183921658Y-66881090D01*
X183921658Y-66881086D01*
X183907727Y-66847453D01*
X183865087Y-66744510D01*
X183865083Y-66744503D01*
X183814559Y-66668887D01*
X183793682Y-66602213D01*
X183812166Y-66534833D01*
X183814531Y-66531150D01*
X183852772Y-66473920D01*
X188449499Y-66473920D01*
X188478340Y-66618907D01*
X188478343Y-66618917D01*
X188533694Y-66752548D01*
X188541163Y-66822018D01*
X188533694Y-66847452D01*
X188478343Y-66981082D01*
X188478340Y-66981092D01*
X188449500Y-67126079D01*
X188449500Y-67126082D01*
X188449500Y-67273918D01*
X188449500Y-67273920D01*
X188449499Y-67273920D01*
X188478340Y-67418907D01*
X188478343Y-67418917D01*
X188534912Y-67555488D01*
X188534919Y-67555501D01*
X188617048Y-67678415D01*
X188617051Y-67678419D01*
X188721580Y-67782948D01*
X188721584Y-67782951D01*
X188844498Y-67865080D01*
X188844511Y-67865087D01*
X188960204Y-67913008D01*
X188981087Y-67921658D01*
X188981091Y-67921658D01*
X188981092Y-67921659D01*
X189126079Y-67950500D01*
X189126082Y-67950500D01*
X189273920Y-67950500D01*
X189371462Y-67931096D01*
X189418913Y-67921658D01*
X189555495Y-67865084D01*
X189620876Y-67821398D01*
X189687553Y-67800520D01*
X189689767Y-67800500D01*
X190210233Y-67800500D01*
X190277272Y-67820185D01*
X190279124Y-67821398D01*
X190344498Y-67865080D01*
X190344511Y-67865087D01*
X190460204Y-67913008D01*
X190481087Y-67921658D01*
X190481091Y-67921658D01*
X190481092Y-67921659D01*
X190626079Y-67950500D01*
X190626082Y-67950500D01*
X190773920Y-67950500D01*
X190871462Y-67931096D01*
X190918913Y-67921658D01*
X191055495Y-67865084D01*
X191178416Y-67782951D01*
X191282951Y-67678416D01*
X191365084Y-67555495D01*
X191421658Y-67418913D01*
X191443443Y-67309396D01*
X191450500Y-67273920D01*
X191450500Y-67126079D01*
X191421659Y-66981092D01*
X191421658Y-66981091D01*
X191421658Y-66981087D01*
X191366304Y-66847452D01*
X191358836Y-66777983D01*
X191366305Y-66752547D01*
X191369634Y-66744510D01*
X191421658Y-66618913D01*
X191439124Y-66531107D01*
X191450500Y-66473920D01*
X191450500Y-66326079D01*
X191421659Y-66181092D01*
X191421658Y-66181091D01*
X191421658Y-66181087D01*
X191399163Y-66126779D01*
X191365087Y-66044511D01*
X191365080Y-66044498D01*
X191282951Y-65921584D01*
X191282948Y-65921580D01*
X191178419Y-65817051D01*
X191178415Y-65817048D01*
X191055501Y-65734919D01*
X191055488Y-65734912D01*
X190918917Y-65678343D01*
X190918907Y-65678340D01*
X190773920Y-65649500D01*
X190773918Y-65649500D01*
X190626082Y-65649500D01*
X190626080Y-65649500D01*
X190481092Y-65678340D01*
X190481082Y-65678343D01*
X190344511Y-65734912D01*
X190344498Y-65734919D01*
X190279124Y-65778602D01*
X190212447Y-65799480D01*
X190210233Y-65799500D01*
X189689767Y-65799500D01*
X189622728Y-65779815D01*
X189620876Y-65778602D01*
X189555501Y-65734919D01*
X189555488Y-65734912D01*
X189418917Y-65678343D01*
X189418907Y-65678340D01*
X189273920Y-65649500D01*
X189273918Y-65649500D01*
X189126082Y-65649500D01*
X189126080Y-65649500D01*
X188981092Y-65678340D01*
X188981082Y-65678343D01*
X188844511Y-65734912D01*
X188844498Y-65734919D01*
X188721584Y-65817048D01*
X188721580Y-65817051D01*
X188617051Y-65921580D01*
X188617048Y-65921584D01*
X188534919Y-66044498D01*
X188534912Y-66044511D01*
X188478343Y-66181082D01*
X188478340Y-66181092D01*
X188449500Y-66326079D01*
X188449500Y-66326082D01*
X188449500Y-66473918D01*
X188449500Y-66473920D01*
X188449499Y-66473920D01*
X183852772Y-66473920D01*
X183865084Y-66455494D01*
X183921658Y-66318912D01*
X183928457Y-66284731D01*
X183950500Y-66173919D01*
X183950500Y-66026078D01*
X183921659Y-65881091D01*
X183921658Y-65881090D01*
X183921658Y-65881086D01*
X183911983Y-65857729D01*
X183865087Y-65744510D01*
X183865080Y-65744497D01*
X183782951Y-65621583D01*
X183782948Y-65621579D01*
X183678419Y-65517050D01*
X183678415Y-65517047D01*
X183555501Y-65434918D01*
X183555488Y-65434911D01*
X183418917Y-65378342D01*
X183418907Y-65378339D01*
X183273920Y-65349499D01*
X183273918Y-65349499D01*
X183126082Y-65349499D01*
X183126080Y-65349499D01*
X182981092Y-65378339D01*
X182981082Y-65378342D01*
X182844511Y-65434911D01*
X182844498Y-65434918D01*
X182779124Y-65478601D01*
X182712447Y-65499479D01*
X182710233Y-65499499D01*
X178286669Y-65499499D01*
X178286653Y-65499498D01*
X178279057Y-65499498D01*
X178120943Y-65499498D01*
X178041010Y-65520916D01*
X177968216Y-65540421D01*
X177927256Y-65564070D01*
X177927255Y-65564069D01*
X177831287Y-65619476D01*
X177831282Y-65619480D01*
X177719478Y-65731285D01*
X177477212Y-65973550D01*
X177415889Y-66007035D01*
X177370134Y-66008342D01*
X177219597Y-65984500D01*
X177020403Y-65984500D01*
X177015605Y-65985260D01*
X176823659Y-66015661D01*
X176823656Y-66015661D01*
X176634219Y-66077213D01*
X176456733Y-66167647D01*
X176382397Y-66221656D01*
X176295582Y-66284731D01*
X176295580Y-66284733D01*
X176295579Y-66284733D01*
X176154733Y-66425579D01*
X176154733Y-66425580D01*
X176154731Y-66425582D01*
X176122650Y-66469738D01*
X176037647Y-66586733D01*
X175960485Y-66738172D01*
X175912510Y-66788968D01*
X175844689Y-66805763D01*
X175778554Y-66783225D01*
X175739515Y-66738172D01*
X175670240Y-66602213D01*
X175662353Y-66586734D01*
X175545269Y-66425582D01*
X175404418Y-66284731D01*
X175243266Y-66167647D01*
X175163058Y-66126779D01*
X175065780Y-66077213D01*
X174876342Y-66015661D01*
X174684395Y-65985260D01*
X174679597Y-65984500D01*
X174480403Y-65984500D01*
X174475605Y-65985260D01*
X174283659Y-66015661D01*
X174283656Y-66015661D01*
X174094219Y-66077213D01*
X173916733Y-66167647D01*
X173842397Y-66221656D01*
X173755582Y-66284731D01*
X173755580Y-66284733D01*
X173755579Y-66284733D01*
X173614733Y-66425579D01*
X173614733Y-66425580D01*
X173614731Y-66425582D01*
X173582650Y-66469738D01*
X173497645Y-66586735D01*
X173420203Y-66738723D01*
X173372229Y-66789518D01*
X173304408Y-66806313D01*
X173238273Y-66783775D01*
X173199234Y-66738722D01*
X173121924Y-66586994D01*
X173094417Y-66549135D01*
X173094417Y-66549134D01*
X172531128Y-67112424D01*
X172515245Y-67053147D01*
X172448102Y-66936853D01*
X172353147Y-66841898D01*
X172236853Y-66774755D01*
X172177574Y-66758871D01*
X172740864Y-66195581D01*
X172740863Y-66195580D01*
X172703008Y-66168077D01*
X172525594Y-66077679D01*
X172336222Y-66016147D01*
X172139563Y-65985000D01*
X171940437Y-65985000D01*
X171743777Y-66016147D01*
X171554405Y-66077679D01*
X171376990Y-66168077D01*
X171339135Y-66195580D01*
X171339135Y-66195581D01*
X171902425Y-66758871D01*
X171843147Y-66774755D01*
X171726853Y-66841898D01*
X171631898Y-66936853D01*
X171564755Y-67053147D01*
X171548871Y-67112425D01*
X170985581Y-66549135D01*
X170985580Y-66549135D01*
X170958075Y-66586993D01*
X170880764Y-66738723D01*
X170832790Y-66789518D01*
X170764969Y-66806313D01*
X170698834Y-66783775D01*
X170659795Y-66738722D01*
X170590240Y-66602213D01*
X170582353Y-66586734D01*
X170465269Y-66425582D01*
X170324418Y-66284731D01*
X170163266Y-66167647D01*
X170159707Y-66165466D01*
X170112833Y-66113652D01*
X170100500Y-66059740D01*
X170100500Y-65689767D01*
X170120185Y-65622728D01*
X170121398Y-65620876D01*
X170165080Y-65555501D01*
X170165080Y-65555500D01*
X170165084Y-65555495D01*
X170221658Y-65418913D01*
X170241551Y-65318906D01*
X170250500Y-65273920D01*
X170250500Y-65126079D01*
X170221659Y-64981092D01*
X170221658Y-64981091D01*
X170221658Y-64981087D01*
X170204665Y-64940062D01*
X170165087Y-64844511D01*
X170165080Y-64844498D01*
X170082951Y-64721584D01*
X170082948Y-64721580D01*
X169978419Y-64617051D01*
X169978415Y-64617048D01*
X169855501Y-64534919D01*
X169855488Y-64534912D01*
X169718917Y-64478343D01*
X169718907Y-64478340D01*
X169573920Y-64449500D01*
X169573918Y-64449500D01*
X169426082Y-64449500D01*
X169426080Y-64449500D01*
X169281092Y-64478340D01*
X169281082Y-64478343D01*
X169144511Y-64534912D01*
X169144498Y-64534919D01*
X169021584Y-64617048D01*
X169021580Y-64617051D01*
X168917051Y-64721580D01*
X168917048Y-64721584D01*
X168834919Y-64844498D01*
X168834912Y-64844511D01*
X168778343Y-64981082D01*
X168778340Y-64981092D01*
X168749500Y-65126079D01*
X168749500Y-65126082D01*
X168749500Y-65273918D01*
X168749500Y-65273920D01*
X168749499Y-65273920D01*
X168778340Y-65418907D01*
X168778343Y-65418917D01*
X168834912Y-65555488D01*
X168834919Y-65555501D01*
X168878602Y-65620876D01*
X168899480Y-65687553D01*
X168899500Y-65689767D01*
X168899500Y-66059740D01*
X168879815Y-66126779D01*
X168840293Y-66165466D01*
X168836733Y-66167647D01*
X168762397Y-66221656D01*
X168675582Y-66284731D01*
X168675580Y-66284733D01*
X168675579Y-66284733D01*
X168534733Y-66425579D01*
X168534733Y-66425580D01*
X168534731Y-66425582D01*
X168502650Y-66469738D01*
X168417647Y-66586733D01*
X168340485Y-66738172D01*
X168292510Y-66788968D01*
X168224689Y-66805763D01*
X168158554Y-66783225D01*
X168119515Y-66738172D01*
X168050240Y-66602213D01*
X168042353Y-66586734D01*
X167925269Y-66425582D01*
X167784418Y-66284731D01*
X167623266Y-66167647D01*
X167543058Y-66126779D01*
X167445780Y-66077213D01*
X167256342Y-66015661D01*
X167064395Y-65985260D01*
X167059597Y-65984500D01*
X166860403Y-65984500D01*
X166855605Y-65985260D01*
X166663659Y-66015661D01*
X166663656Y-66015661D01*
X166474219Y-66077213D01*
X166296733Y-66167647D01*
X166222397Y-66221656D01*
X166135582Y-66284731D01*
X166135580Y-66284733D01*
X166135579Y-66284733D01*
X165994733Y-66425579D01*
X165994733Y-66425580D01*
X165994731Y-66425582D01*
X165962650Y-66469738D01*
X165877647Y-66586733D01*
X165800485Y-66738172D01*
X165752510Y-66788968D01*
X165684689Y-66805763D01*
X165618554Y-66783225D01*
X165579515Y-66738172D01*
X165510240Y-66602213D01*
X165502353Y-66586734D01*
X165385269Y-66425582D01*
X165244418Y-66284731D01*
X165083266Y-66167647D01*
X165003058Y-66126779D01*
X164905780Y-66077213D01*
X164716342Y-66015661D01*
X164524395Y-65985260D01*
X164519597Y-65984500D01*
X164320403Y-65984500D01*
X164315605Y-65985260D01*
X164123659Y-66015661D01*
X164123656Y-66015661D01*
X163934219Y-66077213D01*
X163756733Y-66167647D01*
X163682397Y-66221656D01*
X163595582Y-66284731D01*
X163595580Y-66284733D01*
X163595579Y-66284733D01*
X163454733Y-66425579D01*
X163454733Y-66425580D01*
X163454731Y-66425582D01*
X163422650Y-66469738D01*
X163337647Y-66586733D01*
X163260485Y-66738172D01*
X163212510Y-66788968D01*
X163144689Y-66805763D01*
X163078554Y-66783225D01*
X163039515Y-66738172D01*
X162970240Y-66602213D01*
X162962353Y-66586734D01*
X162845269Y-66425582D01*
X162704418Y-66284731D01*
X162543266Y-66167647D01*
X162463058Y-66126779D01*
X162365780Y-66077213D01*
X162176342Y-66015661D01*
X161984395Y-65985260D01*
X161979597Y-65984500D01*
X161780403Y-65984500D01*
X161775605Y-65985260D01*
X161583659Y-66015661D01*
X161583656Y-66015661D01*
X161394219Y-66077213D01*
X161216733Y-66167647D01*
X161142397Y-66221656D01*
X161055582Y-66284731D01*
X161055580Y-66284733D01*
X161055579Y-66284733D01*
X160914733Y-66425579D01*
X160914733Y-66425580D01*
X160914731Y-66425582D01*
X160882650Y-66469738D01*
X160797647Y-66586733D01*
X160707213Y-66764219D01*
X160645661Y-66953656D01*
X160645661Y-66953659D01*
X160627276Y-67069737D01*
X160614500Y-67150403D01*
X143500500Y-67150403D01*
X143500500Y-63273920D01*
X197549499Y-63273920D01*
X197578340Y-63418907D01*
X197578343Y-63418917D01*
X197634912Y-63555488D01*
X197634919Y-63555501D01*
X197717048Y-63678415D01*
X197717051Y-63678419D01*
X197821580Y-63782948D01*
X197821584Y-63782951D01*
X197944498Y-63865080D01*
X197944511Y-63865087D01*
X198081082Y-63921656D01*
X198081087Y-63921658D01*
X198081091Y-63921658D01*
X198081092Y-63921659D01*
X198226079Y-63950500D01*
X198226082Y-63950500D01*
X198373920Y-63950500D01*
X198471462Y-63931096D01*
X198518913Y-63921658D01*
X198655495Y-63865084D01*
X198778416Y-63782951D01*
X198882951Y-63678416D01*
X198965084Y-63555495D01*
X199021658Y-63418913D01*
X199036999Y-63341786D01*
X199069381Y-63279879D01*
X199070876Y-63278357D01*
X200111685Y-62237548D01*
X200118117Y-62234036D01*
X200122350Y-62228046D01*
X200148373Y-62217515D01*
X200173006Y-62204065D01*
X200181915Y-62203942D01*
X200187118Y-62201837D01*
X200203811Y-62203640D01*
X200222378Y-62203385D01*
X200230147Y-62204852D01*
X200248882Y-62210940D01*
X200332453Y-62224176D01*
X200334247Y-62224515D01*
X200363788Y-62239606D01*
X200393766Y-62253817D01*
X200394773Y-62255434D01*
X200396469Y-62256301D01*
X200413159Y-62284964D01*
X200430697Y-62313129D01*
X200430669Y-62315033D01*
X200431628Y-62316679D01*
X200430172Y-62349818D01*
X200429699Y-62382991D01*
X200429179Y-62384630D01*
X200418041Y-62418912D01*
X200379059Y-62538881D01*
X200349500Y-62725513D01*
X200349500Y-62914486D01*
X200378827Y-63099648D01*
X200369872Y-63168941D01*
X200344035Y-63206727D01*
X199721699Y-63829063D01*
X199660376Y-63862548D01*
X199658210Y-63862999D01*
X199581092Y-63878339D01*
X199581084Y-63878341D01*
X199444511Y-63934911D01*
X199444498Y-63934918D01*
X199321584Y-64017047D01*
X199321580Y-64017050D01*
X199217051Y-64121579D01*
X199217048Y-64121583D01*
X199134919Y-64244497D01*
X199134912Y-64244510D01*
X199078343Y-64381081D01*
X199078340Y-64381091D01*
X199049500Y-64526078D01*
X199049500Y-64526081D01*
X199049500Y-64673917D01*
X199049500Y-64673919D01*
X199049499Y-64673919D01*
X199078340Y-64818906D01*
X199078343Y-64818916D01*
X199134912Y-64955487D01*
X199134919Y-64955500D01*
X199217048Y-65078414D01*
X199217051Y-65078418D01*
X199321580Y-65182947D01*
X199321584Y-65182950D01*
X199444498Y-65265079D01*
X199444511Y-65265086D01*
X199579052Y-65320814D01*
X199581087Y-65321657D01*
X199581091Y-65321657D01*
X199581092Y-65321658D01*
X199726079Y-65350499D01*
X199726082Y-65350499D01*
X199873920Y-65350499D01*
X199971462Y-65331095D01*
X200018913Y-65321657D01*
X200155495Y-65265083D01*
X200278416Y-65182950D01*
X200382951Y-65078415D01*
X200465084Y-64955494D01*
X200521658Y-64818912D01*
X200536999Y-64741785D01*
X200569381Y-64679878D01*
X200570874Y-64678358D01*
X201215067Y-64034166D01*
X201276388Y-64000683D01*
X201322144Y-63999376D01*
X201455514Y-64020500D01*
X201455519Y-64020500D01*
X201644486Y-64020500D01*
X201831118Y-63990940D01*
X201869653Y-63978419D01*
X202010832Y-63932547D01*
X202179199Y-63846760D01*
X202332073Y-63735690D01*
X202465690Y-63602073D01*
X202469682Y-63596578D01*
X202525009Y-63553913D01*
X202594622Y-63547932D01*
X202656418Y-63580536D01*
X202670314Y-63596573D01*
X202674310Y-63602073D01*
X202807927Y-63735690D01*
X202960801Y-63846760D01*
X203024184Y-63879055D01*
X203129163Y-63932545D01*
X203129165Y-63932545D01*
X203129168Y-63932547D01*
X203225497Y-63963846D01*
X203308881Y-63990940D01*
X203495514Y-64020500D01*
X203495519Y-64020500D01*
X203684486Y-64020500D01*
X203871118Y-63990940D01*
X203909653Y-63978419D01*
X204050832Y-63932547D01*
X204219199Y-63846760D01*
X204372073Y-63735690D01*
X204505690Y-63602073D01*
X204509682Y-63596578D01*
X204565009Y-63553913D01*
X204634622Y-63547932D01*
X204696418Y-63580536D01*
X204710314Y-63596573D01*
X204714310Y-63602073D01*
X204847927Y-63735690D01*
X205000801Y-63846760D01*
X205064184Y-63879055D01*
X205169163Y-63932545D01*
X205169165Y-63932545D01*
X205169168Y-63932547D01*
X205265497Y-63963846D01*
X205348881Y-63990940D01*
X205535514Y-64020500D01*
X205535519Y-64020500D01*
X205724486Y-64020500D01*
X205911118Y-63990940D01*
X205949653Y-63978419D01*
X206090832Y-63932547D01*
X206259199Y-63846760D01*
X206412073Y-63735690D01*
X206545690Y-63602073D01*
X206549682Y-63596578D01*
X206605009Y-63553913D01*
X206674622Y-63547932D01*
X206736418Y-63580536D01*
X206750314Y-63596573D01*
X206754310Y-63602073D01*
X206887927Y-63735690D01*
X207040801Y-63846760D01*
X207104184Y-63879055D01*
X207209163Y-63932545D01*
X207209165Y-63932545D01*
X207209168Y-63932547D01*
X207305497Y-63963846D01*
X207388881Y-63990940D01*
X207575514Y-64020500D01*
X207575519Y-64020500D01*
X207764486Y-64020500D01*
X207951118Y-63990940D01*
X207989653Y-63978419D01*
X208130832Y-63932547D01*
X208299199Y-63846760D01*
X208452073Y-63735690D01*
X208585690Y-63602073D01*
X208696760Y-63449199D01*
X208782547Y-63280832D01*
X208840940Y-63101118D01*
X208853537Y-63021584D01*
X208861086Y-62973920D01*
X213249499Y-62973920D01*
X213278340Y-63118907D01*
X213278343Y-63118917D01*
X213334912Y-63255488D01*
X213334919Y-63255501D01*
X213417048Y-63378415D01*
X213417051Y-63378419D01*
X213521580Y-63482948D01*
X213521584Y-63482951D01*
X213644498Y-63565080D01*
X213644511Y-63565087D01*
X213733809Y-63602075D01*
X213781087Y-63621658D01*
X213781091Y-63621658D01*
X213781092Y-63621659D01*
X213926079Y-63650500D01*
X213926082Y-63650500D01*
X214073920Y-63650500D01*
X214171462Y-63631096D01*
X214218913Y-63621658D01*
X214334168Y-63573918D01*
X214355488Y-63565087D01*
X214355488Y-63565086D01*
X214355495Y-63565084D01*
X214369846Y-63555495D01*
X214420876Y-63521398D01*
X214487553Y-63500520D01*
X214489767Y-63500500D01*
X215013331Y-63500500D01*
X215013347Y-63500501D01*
X215020943Y-63500501D01*
X215179054Y-63500501D01*
X215179057Y-63500501D01*
X215331785Y-63459577D01*
X215381904Y-63430639D01*
X215468716Y-63380520D01*
X215580520Y-63268716D01*
X215580520Y-63268714D01*
X215590728Y-63258507D01*
X215590730Y-63258504D01*
X216378301Y-62470932D01*
X216439622Y-62437449D01*
X216441644Y-62437027D01*
X216518913Y-62421658D01*
X216655495Y-62365084D01*
X216778416Y-62282951D01*
X216882951Y-62178416D01*
X216965084Y-62055495D01*
X217021658Y-61918913D01*
X217036459Y-61844505D01*
X217050500Y-61773920D01*
X217050500Y-61626079D01*
X217021659Y-61481092D01*
X217021658Y-61481091D01*
X217021658Y-61481087D01*
X217011127Y-61455662D01*
X216965087Y-61344511D01*
X216965080Y-61344498D01*
X216882951Y-61221584D01*
X216882948Y-61221580D01*
X216778419Y-61117051D01*
X216778415Y-61117048D01*
X216655501Y-61034919D01*
X216655488Y-61034912D01*
X216518917Y-60978343D01*
X216518907Y-60978340D01*
X216373920Y-60949500D01*
X216373918Y-60949500D01*
X216226082Y-60949500D01*
X216226080Y-60949500D01*
X216081092Y-60978340D01*
X216081082Y-60978343D01*
X215944511Y-61034912D01*
X215944498Y-61034919D01*
X215821584Y-61117048D01*
X215821580Y-61117051D01*
X215717051Y-61221580D01*
X215717048Y-61221584D01*
X215634919Y-61344498D01*
X215634912Y-61344511D01*
X215578342Y-61481084D01*
X215578340Y-61481092D01*
X215563000Y-61558210D01*
X215530615Y-61620121D01*
X215529064Y-61621699D01*
X214887584Y-62263181D01*
X214826261Y-62296666D01*
X214799903Y-62299500D01*
X214489767Y-62299500D01*
X214422728Y-62279815D01*
X214420876Y-62278602D01*
X214355501Y-62234919D01*
X214355488Y-62234912D01*
X214218917Y-62178343D01*
X214218907Y-62178340D01*
X214073920Y-62149500D01*
X214073918Y-62149500D01*
X213926082Y-62149500D01*
X213926080Y-62149500D01*
X213781092Y-62178340D01*
X213781082Y-62178343D01*
X213644511Y-62234912D01*
X213644498Y-62234919D01*
X213521584Y-62317048D01*
X213521580Y-62317051D01*
X213417051Y-62421580D01*
X213417048Y-62421584D01*
X213334919Y-62544498D01*
X213334912Y-62544511D01*
X213278343Y-62681082D01*
X213278340Y-62681092D01*
X213249500Y-62826079D01*
X213249500Y-62826082D01*
X213249500Y-62973918D01*
X213249500Y-62973920D01*
X213249499Y-62973920D01*
X208861086Y-62973920D01*
X208870500Y-62914486D01*
X208870500Y-62725513D01*
X208840940Y-62538881D01*
X208801959Y-62418912D01*
X208782547Y-62359168D01*
X208782545Y-62359165D01*
X208782545Y-62359163D01*
X208719239Y-62234919D01*
X208696760Y-62190801D01*
X208585690Y-62037927D01*
X208452073Y-61904310D01*
X208299199Y-61793240D01*
X208279000Y-61782948D01*
X208130836Y-61707454D01*
X207951119Y-61649060D01*
X207869367Y-61636111D01*
X207806232Y-61606181D01*
X207769302Y-61546869D01*
X207770300Y-61477007D01*
X207770791Y-61475457D01*
X207820940Y-61321118D01*
X207840044Y-61200500D01*
X207850500Y-61134486D01*
X207850500Y-60945513D01*
X207820940Y-60758881D01*
X207774856Y-60617051D01*
X207762547Y-60579168D01*
X207762545Y-60579165D01*
X207762545Y-60579163D01*
X207686877Y-60430657D01*
X207676760Y-60410801D01*
X207565690Y-60257927D01*
X207432073Y-60124310D01*
X207279199Y-60013240D01*
X207237947Y-59992221D01*
X207110836Y-59927454D01*
X206931118Y-59869059D01*
X206744486Y-59839500D01*
X206744481Y-59839500D01*
X206555519Y-59839500D01*
X206555514Y-59839500D01*
X206368881Y-59869059D01*
X206189163Y-59927454D01*
X206020797Y-60013242D01*
X205997385Y-60030252D01*
X205931579Y-60053732D01*
X205863525Y-60037906D01*
X205814830Y-59987801D01*
X205800500Y-59929934D01*
X205800500Y-59089767D01*
X205820185Y-59022728D01*
X205821398Y-59020876D01*
X205865080Y-58955501D01*
X205865080Y-58955500D01*
X205865084Y-58955495D01*
X205921658Y-58818913D01*
X205936459Y-58744505D01*
X205950500Y-58673920D01*
X205950500Y-58526079D01*
X205925191Y-58398845D01*
X205921659Y-58381091D01*
X205921656Y-58381082D01*
X205920674Y-58378711D01*
X208599500Y-58378711D01*
X208599500Y-58621288D01*
X208630077Y-58853553D01*
X208631162Y-58861789D01*
X208646470Y-58918917D01*
X208693947Y-59096104D01*
X208767357Y-59273331D01*
X208786776Y-59320212D01*
X208908064Y-59530289D01*
X208908066Y-59530292D01*
X208908067Y-59530293D01*
X209055733Y-59722736D01*
X209055739Y-59722743D01*
X209227256Y-59894260D01*
X209227263Y-59894266D01*
X209283284Y-59937252D01*
X209419711Y-60041936D01*
X209629788Y-60163224D01*
X209853900Y-60256054D01*
X210088211Y-60318838D01*
X210249434Y-60340063D01*
X210328711Y-60350500D01*
X210328712Y-60350500D01*
X210571289Y-60350500D01*
X210650566Y-60340063D01*
X210811789Y-60318838D01*
X211046100Y-60256054D01*
X211270212Y-60163224D01*
X211480289Y-60041936D01*
X211672738Y-59894265D01*
X211844265Y-59722738D01*
X211991936Y-59530289D01*
X212113224Y-59320212D01*
X212206054Y-59096100D01*
X212268838Y-58861789D01*
X212300500Y-58621288D01*
X212300500Y-58378712D01*
X212300461Y-58378419D01*
X212284278Y-58255495D01*
X212268838Y-58138211D01*
X212206054Y-57903900D01*
X212113224Y-57679788D01*
X211991936Y-57469711D01*
X211874794Y-57317048D01*
X211844266Y-57277263D01*
X211844260Y-57277256D01*
X211672743Y-57105739D01*
X211672736Y-57105733D01*
X211480293Y-56958067D01*
X211480292Y-56958066D01*
X211480289Y-56958064D01*
X211270212Y-56836776D01*
X211270205Y-56836773D01*
X211046104Y-56743947D01*
X210811785Y-56681161D01*
X210571289Y-56649500D01*
X210571288Y-56649500D01*
X210328712Y-56649500D01*
X210328711Y-56649500D01*
X210088214Y-56681161D01*
X209853895Y-56743947D01*
X209629794Y-56836773D01*
X209629785Y-56836777D01*
X209419706Y-56958067D01*
X209227263Y-57105733D01*
X209227256Y-57105739D01*
X209055739Y-57277256D01*
X209055733Y-57277263D01*
X208908067Y-57469706D01*
X208786777Y-57679785D01*
X208786773Y-57679794D01*
X208693947Y-57903895D01*
X208631161Y-58138214D01*
X208599500Y-58378711D01*
X205920674Y-58378711D01*
X205865087Y-58244511D01*
X205865080Y-58244498D01*
X205782951Y-58121584D01*
X205782948Y-58121580D01*
X205678419Y-58017051D01*
X205678415Y-58017048D01*
X205555501Y-57934919D01*
X205555488Y-57934912D01*
X205418917Y-57878343D01*
X205418907Y-57878340D01*
X205273920Y-57849500D01*
X205273918Y-57849500D01*
X205126082Y-57849500D01*
X205126080Y-57849500D01*
X204981092Y-57878340D01*
X204981082Y-57878343D01*
X204844511Y-57934912D01*
X204844498Y-57934919D01*
X204721584Y-58017048D01*
X204721580Y-58017051D01*
X204617051Y-58121580D01*
X204617045Y-58121588D01*
X204534922Y-58244494D01*
X204534914Y-58244509D01*
X204522647Y-58274125D01*
X204478805Y-58328529D01*
X204431583Y-58345929D01*
X204432057Y-58348311D01*
X204281092Y-58378340D01*
X204281082Y-58378343D01*
X204144511Y-58434912D01*
X204144498Y-58434919D01*
X204021584Y-58517048D01*
X204021580Y-58517051D01*
X203917051Y-58621580D01*
X203917048Y-58621584D01*
X203834919Y-58744498D01*
X203834912Y-58744511D01*
X203778342Y-58881084D01*
X203778340Y-58881090D01*
X203763000Y-58958210D01*
X203730614Y-59020120D01*
X203729064Y-59021698D01*
X202922197Y-59828566D01*
X202860874Y-59862051D01*
X202815118Y-59863358D01*
X202664486Y-59839500D01*
X202664481Y-59839500D01*
X202475519Y-59839500D01*
X202475514Y-59839500D01*
X202288881Y-59869059D01*
X202109163Y-59927454D01*
X201940800Y-60013240D01*
X201853579Y-60076610D01*
X201787927Y-60124310D01*
X201787925Y-60124312D01*
X201787924Y-60124312D01*
X201654312Y-60257924D01*
X201654307Y-60257930D01*
X201650316Y-60263424D01*
X201594985Y-60306088D01*
X201525372Y-60312066D01*
X201463578Y-60279458D01*
X201449684Y-60263424D01*
X201445692Y-60257930D01*
X201445687Y-60257924D01*
X201312075Y-60124312D01*
X201312073Y-60124310D01*
X201159199Y-60013240D01*
X201117947Y-59992221D01*
X200990836Y-59927454D01*
X200811118Y-59869059D01*
X200624486Y-59839500D01*
X200624481Y-59839500D01*
X200435519Y-59839500D01*
X200435514Y-59839500D01*
X200248881Y-59869059D01*
X200069163Y-59927454D01*
X199900800Y-60013240D01*
X199813579Y-60076610D01*
X199747927Y-60124310D01*
X199747925Y-60124312D01*
X199747924Y-60124312D01*
X199614312Y-60257924D01*
X199614312Y-60257925D01*
X199614310Y-60257927D01*
X199598667Y-60279458D01*
X199503240Y-60410800D01*
X199417454Y-60579163D01*
X199359059Y-60758881D01*
X199329500Y-60945513D01*
X199329500Y-61134485D01*
X199345154Y-61233322D01*
X199336199Y-61302616D01*
X199310362Y-61340401D01*
X198221699Y-62429064D01*
X198160376Y-62462549D01*
X198158210Y-62463000D01*
X198081092Y-62478340D01*
X198081084Y-62478342D01*
X197944511Y-62534912D01*
X197944498Y-62534919D01*
X197821584Y-62617048D01*
X197821580Y-62617051D01*
X197717051Y-62721580D01*
X197717048Y-62721584D01*
X197634919Y-62844498D01*
X197634912Y-62844511D01*
X197578343Y-62981082D01*
X197578340Y-62981092D01*
X197549500Y-63126079D01*
X197549500Y-63126082D01*
X197549500Y-63273918D01*
X197549500Y-63273920D01*
X197549499Y-63273920D01*
X143500500Y-63273920D01*
X143500500Y-58383870D01*
X145454500Y-58383870D01*
X145454500Y-58616129D01*
X145490831Y-58845514D01*
X145562601Y-59066400D01*
X145657474Y-59252597D01*
X145668039Y-59273331D01*
X145804551Y-59461224D01*
X145968776Y-59625449D01*
X146156669Y-59761961D01*
X146246617Y-59807792D01*
X146363599Y-59867398D01*
X146363601Y-59867398D01*
X146363604Y-59867400D01*
X146584486Y-59939169D01*
X146702668Y-59957886D01*
X146813871Y-59975500D01*
X146813876Y-59975500D01*
X147046129Y-59975500D01*
X147147502Y-59959443D01*
X147275514Y-59939169D01*
X147496396Y-59867400D01*
X147703331Y-59761961D01*
X147891224Y-59625449D01*
X148055449Y-59461224D01*
X148191961Y-59273331D01*
X148297400Y-59066396D01*
X148369169Y-58845514D01*
X148389443Y-58717502D01*
X148405500Y-58616129D01*
X148405500Y-58383909D01*
X150455000Y-58383909D01*
X150455000Y-58616090D01*
X150491318Y-58845393D01*
X150563065Y-59066205D01*
X150668465Y-59273064D01*
X150725238Y-59351207D01*
X151367917Y-58708527D01*
X151373777Y-58730395D01*
X151452361Y-58866505D01*
X151563495Y-58977639D01*
X151699605Y-59056223D01*
X151721470Y-59062081D01*
X151078791Y-59704759D01*
X151078791Y-59704760D01*
X151156935Y-59761534D01*
X151363794Y-59866934D01*
X151584606Y-59938681D01*
X151813910Y-59975000D01*
X152046090Y-59975000D01*
X152275393Y-59938681D01*
X152496205Y-59866934D01*
X152703071Y-59761530D01*
X152781207Y-59704762D01*
X152781208Y-59704760D01*
X152138529Y-59062081D01*
X152160395Y-59056223D01*
X152296505Y-58977639D01*
X152407639Y-58866505D01*
X152486223Y-58730395D01*
X152492081Y-58708529D01*
X153134760Y-59351208D01*
X153134762Y-59351207D01*
X153191530Y-59273071D01*
X153296934Y-59066205D01*
X153368681Y-58845393D01*
X153405000Y-58616090D01*
X153405000Y-58383909D01*
X153368681Y-58154606D01*
X153296934Y-57933794D01*
X153191534Y-57726935D01*
X153134760Y-57648791D01*
X153134759Y-57648791D01*
X152492081Y-58291469D01*
X152486223Y-58269605D01*
X152407639Y-58133495D01*
X152296505Y-58022361D01*
X152160395Y-57943777D01*
X152138527Y-57937917D01*
X152781207Y-57295238D01*
X152703064Y-57238465D01*
X152496205Y-57133065D01*
X152275393Y-57061318D01*
X152046090Y-57025000D01*
X151813910Y-57025000D01*
X151584606Y-57061318D01*
X151363794Y-57133065D01*
X151156925Y-57238470D01*
X151078791Y-57295237D01*
X151078791Y-57295238D01*
X151721471Y-57937918D01*
X151699605Y-57943777D01*
X151563495Y-58022361D01*
X151452361Y-58133495D01*
X151373777Y-58269605D01*
X151367918Y-58291471D01*
X150725238Y-57648791D01*
X150725237Y-57648791D01*
X150668470Y-57726925D01*
X150563065Y-57933794D01*
X150491318Y-58154606D01*
X150455000Y-58383909D01*
X148405500Y-58383909D01*
X148405500Y-58383870D01*
X148383425Y-58244498D01*
X148369169Y-58154486D01*
X148297400Y-57933604D01*
X148297398Y-57933601D01*
X148297398Y-57933599D01*
X148223606Y-57788776D01*
X148191961Y-57726669D01*
X148055449Y-57538776D01*
X147891224Y-57374551D01*
X147703331Y-57238039D01*
X147697194Y-57234912D01*
X147496400Y-57132601D01*
X147275514Y-57060831D01*
X147046129Y-57024500D01*
X147046124Y-57024500D01*
X146813876Y-57024500D01*
X146813871Y-57024500D01*
X146584485Y-57060831D01*
X146363599Y-57132601D01*
X146156668Y-57238039D01*
X145968773Y-57374553D01*
X145804553Y-57538773D01*
X145668039Y-57726668D01*
X145562601Y-57933599D01*
X145490831Y-58154485D01*
X145454500Y-58383870D01*
X143500500Y-58383870D01*
X143500500Y-53624500D01*
X143520185Y-53557461D01*
X143572989Y-53511706D01*
X143624500Y-53500500D01*
X163739592Y-53500500D01*
X163806631Y-53520185D01*
G37*
%TD.AperFunction*%
%TD*%
M02*
