%TF.GenerationSoftware,KiCad,Pcbnew,10.0.4*%
%TF.CreationDate,2026-07-16T16:17:47+02:00*%
%TF.ProjectId,HBDV3,48424456-332e-46b6-9963-61645f706362,rev?*%
%TF.SameCoordinates,Original*%
%TF.FileFunction,Soldermask,Top*%
%TF.FilePolarity,Negative*%
%FSLAX46Y46*%
G04 Gerber Fmt 4.6, Leading zero omitted, Abs format (unit mm)*
G04 Created by KiCad (PCBNEW 10.0.4) date 2026-07-16 16:17:47*
%MOMM*%
%LPD*%
G01*
G04 APERTURE LIST*
G04 Aperture macros list*
%AMRoundRect*
0 Rectangle with rounded corners*
0 $1 Rounding radius*
0 $2 $3 $4 $5 $6 $7 $8 $9 X,Y pos of 4 corners*
0 Add a 4 corners polygon primitive as box body*
4,1,4,$2,$3,$4,$5,$6,$7,$8,$9,$2,$3,0*
0 Add four circle primitives for the rounded corners*
1,1,$1+$1,$2,$3*
1,1,$1+$1,$4,$5*
1,1,$1+$1,$6,$7*
1,1,$1+$1,$8,$9*
0 Add four rect primitives between the rounded corners*
20,1,$1+$1,$2,$3,$4,$5,0*
20,1,$1+$1,$4,$5,$6,$7,0*
20,1,$1+$1,$6,$7,$8,$9,0*
20,1,$1+$1,$8,$9,$2,$3,0*%
G04 Aperture macros list end*
%ADD10RoundRect,0.249999X1.425001X-0.450001X1.425001X0.450001X-1.425001X0.450001X-1.425001X-0.450001X0*%
%ADD11C,1.734000*%
%ADD12C,2.154000*%
%ADD13RoundRect,0.250000X0.625000X-0.400000X0.625000X0.400000X-0.625000X0.400000X-0.625000X-0.400000X0*%
%ADD14RoundRect,0.250000X0.337500X0.475000X-0.337500X0.475000X-0.337500X-0.475000X0.337500X-0.475000X0*%
%ADD15RoundRect,0.250000X-0.400000X-0.625000X0.400000X-0.625000X0.400000X0.625000X-0.400000X0.625000X0*%
%ADD16C,3.200000*%
%ADD17C,1.400000*%
%ADD18RoundRect,0.250000X0.250000X-0.250000X0.250000X0.250000X-0.250000X0.250000X-0.250000X-0.250000X0*%
%ADD19RoundRect,0.249999X-0.450001X-1.425001X0.450001X-1.425001X0.450001X1.425001X-0.450001X1.425001X0*%
%ADD20RoundRect,0.249999X-1.425001X0.450001X-1.425001X-0.450001X1.425001X-0.450001X1.425001X0.450001X0*%
%ADD21RoundRect,0.250000X-0.337500X-0.475000X0.337500X-0.475000X0.337500X0.475000X-0.337500X0.475000X0*%
%ADD22C,4.300000*%
%ADD23C,1.950000*%
%ADD24R,1.200000X1.200000*%
%ADD25RoundRect,0.250000X-0.475000X0.337500X-0.475000X-0.337500X0.475000X-0.337500X0.475000X0.337500X0*%
%ADD26RoundRect,0.249999X0.450001X1.425001X-0.450001X1.425001X-0.450001X-1.425001X0.450001X-1.425001X0*%
%ADD27RoundRect,0.250000X-0.550000X-0.550000X0.550000X-0.550000X0.550000X0.550000X-0.550000X0.550000X0*%
%ADD28C,1.600000*%
%ADD29RoundRect,0.250000X0.550000X0.550000X-0.550000X0.550000X-0.550000X-0.550000X0.550000X-0.550000X0*%
G04 APERTURE END LIST*
D10*
%TO.C,R9*%
X202750000Y-84050000D03*
X202750000Y-77950000D03*
%TD*%
D11*
%TO.C,U1*%
X172040000Y-88250000D03*
X169500000Y-88250000D03*
X179660000Y-67250000D03*
X177120000Y-67250000D03*
X174580000Y-67250000D03*
X172040000Y-67250000D03*
X169500000Y-67250000D03*
X166960000Y-67250000D03*
X164420000Y-67250000D03*
X161880000Y-67250000D03*
X161880000Y-88250000D03*
X164420000Y-88250000D03*
X166960000Y-88250000D03*
X174580000Y-88250000D03*
X177120000Y-88250000D03*
X179660000Y-88250000D03*
%TD*%
D12*
%TO.C,J6*%
X190000000Y-58750000D03*
X185000000Y-58750000D03*
X180000000Y-58750000D03*
X175000000Y-58750000D03*
%TD*%
D13*
%TO.C,R28*%
X266250000Y-76550000D03*
X266250000Y-73450000D03*
%TD*%
D14*
%TO.C,C3*%
X158537500Y-67250000D03*
X156462500Y-67250000D03*
%TD*%
D10*
%TO.C,R18*%
X231500000Y-84100000D03*
X231500000Y-78000000D03*
%TD*%
%TO.C,R17*%
X226590000Y-84100000D03*
X226590000Y-78000000D03*
%TD*%
%TO.C,R2*%
X166250000Y-84100000D03*
X166250000Y-78000000D03*
%TD*%
D15*
%TO.C,R1*%
X161200000Y-70750000D03*
X164300000Y-70750000D03*
%TD*%
D10*
%TO.C,R4*%
X176340000Y-84100000D03*
X176340000Y-78000000D03*
%TD*%
%TO.C,R3*%
X171250000Y-84100000D03*
X171250000Y-78000000D03*
%TD*%
D16*
%TO.C,J2*%
X148430000Y-77220000D03*
X148430000Y-89920000D03*
D17*
X152750000Y-80000000D03*
X150970000Y-81020000D03*
X152750000Y-82040000D03*
X150970000Y-83060000D03*
X152750000Y-84080000D03*
X150970000Y-85100000D03*
X152750000Y-86120000D03*
X150970000Y-87140000D03*
%TD*%
D14*
%TO.C,C12*%
X231500000Y-95250000D03*
X229425000Y-95250000D03*
%TD*%
D18*
%TO.C,D5*%
X202750000Y-75750000D03*
X202750000Y-73250000D03*
%TD*%
%TO.C,D9*%
X234500000Y-73750000D03*
X234500000Y-71250000D03*
%TD*%
D19*
%TO.C,R26*%
X219950000Y-93750000D03*
X226050000Y-93750000D03*
%TD*%
D20*
%TO.C,R10*%
X186500000Y-67950000D03*
X186500000Y-74050000D03*
%TD*%
D14*
%TO.C,C4*%
X162037500Y-94750000D03*
X159962500Y-94750000D03*
%TD*%
D10*
%TO.C,R22*%
X252250000Y-78050000D03*
X252250000Y-71950000D03*
%TD*%
%TO.C,R5*%
X181500000Y-84100000D03*
X181500000Y-78000000D03*
%TD*%
%TO.C,R7*%
X192660000Y-84100000D03*
X192660000Y-78000000D03*
%TD*%
D16*
%TO.C,J5*%
X210450000Y-58500000D03*
X197750000Y-58500000D03*
D17*
X207670000Y-62820000D03*
X206650000Y-61040000D03*
X205630000Y-62820000D03*
X204610000Y-61040000D03*
X203590000Y-62820000D03*
X202570000Y-61040000D03*
X201550000Y-62820000D03*
X200530000Y-61040000D03*
%TD*%
D14*
%TO.C,C7*%
X176120000Y-95250000D03*
X174045000Y-95250000D03*
%TD*%
D21*
%TO.C,C6*%
X155500000Y-94750000D03*
X157575000Y-94750000D03*
%TD*%
D10*
%TO.C,R16*%
X221680000Y-84100000D03*
X221680000Y-78000000D03*
%TD*%
D22*
%TO.C,H2*%
X225000000Y-57500000D03*
%TD*%
D10*
%TO.C,R19*%
X236500000Y-84100000D03*
X236500000Y-78000000D03*
%TD*%
%TO.C,R21*%
X247250000Y-78050000D03*
X247250000Y-71950000D03*
%TD*%
%TO.C,R20*%
X242250000Y-78050000D03*
X242250000Y-71950000D03*
%TD*%
D23*
%TO.C,J3*%
X151930000Y-58500000D03*
X146930000Y-58500000D03*
%TD*%
D18*
%TO.C,D4*%
X178750000Y-73750000D03*
X178750000Y-71250000D03*
%TD*%
D14*
%TO.C,C10*%
X217250000Y-63500000D03*
X215175000Y-63500000D03*
%TD*%
D24*
%TO.C,D3*%
X179750000Y-92350000D03*
X179750000Y-95150000D03*
%TD*%
D14*
%TO.C,C5*%
X176120000Y-92000000D03*
X174045000Y-92000000D03*
%TD*%
D19*
%TO.C,R25*%
X253700000Y-68000000D03*
X259800000Y-68000000D03*
%TD*%
D11*
%TO.C,U2*%
X227630000Y-88250000D03*
X225090000Y-88250000D03*
X235250000Y-67250000D03*
X232710000Y-67250000D03*
X230170000Y-67250000D03*
X227630000Y-67250000D03*
X225090000Y-67250000D03*
X222550000Y-67250000D03*
X220010000Y-67250000D03*
X217470000Y-67250000D03*
X217470000Y-88250000D03*
X220010000Y-88250000D03*
X222550000Y-88250000D03*
X230170000Y-88250000D03*
X232710000Y-88250000D03*
X235250000Y-88250000D03*
%TD*%
D25*
%TO.C,C9*%
X269250000Y-73462500D03*
X269250000Y-75537500D03*
%TD*%
D26*
%TO.C,R24*%
X245050000Y-67750000D03*
X238950000Y-67750000D03*
%TD*%
D22*
%TO.C,H3*%
X211000000Y-85750000D03*
%TD*%
D10*
%TO.C,R23*%
X257250000Y-78050000D03*
X257250000Y-71950000D03*
%TD*%
D24*
%TO.C,D2*%
X193850000Y-74250000D03*
X196650000Y-74250000D03*
%TD*%
D20*
%TO.C,R11*%
X210500000Y-72400000D03*
X210500000Y-78500000D03*
%TD*%
D16*
%TO.C,J1*%
X273250000Y-94700000D03*
X273250000Y-82000000D03*
D17*
X268930000Y-91920000D03*
X270710000Y-90900000D03*
X268930000Y-89880000D03*
X270710000Y-88860000D03*
X268930000Y-87840000D03*
X270710000Y-86820000D03*
X268930000Y-85800000D03*
X270710000Y-84780000D03*
%TD*%
D13*
%TO.C,R27*%
X238000000Y-74050000D03*
X238000000Y-70950000D03*
%TD*%
D10*
%TO.C,R6*%
X187750000Y-84100000D03*
X187750000Y-78000000D03*
%TD*%
D27*
%TO.C,C1*%
X146250000Y-69250000D03*
D28*
X148750000Y-69250000D03*
%TD*%
D18*
%TO.C,D10*%
X262500000Y-76250000D03*
X262500000Y-73750000D03*
%TD*%
D12*
%TO.C,J7*%
X255250000Y-58750000D03*
X250250000Y-58750000D03*
X245250000Y-58750000D03*
X240250000Y-58750000D03*
%TD*%
D13*
%TO.C,R14*%
X206250000Y-76050000D03*
X206250000Y-72950000D03*
%TD*%
D15*
%TO.C,R15*%
X216900000Y-70750000D03*
X220000000Y-70750000D03*
%TD*%
D13*
%TO.C,R13*%
X182250000Y-74050000D03*
X182250000Y-70950000D03*
%TD*%
D24*
%TO.C,D6*%
X228350000Y-73500000D03*
X231150000Y-73500000D03*
%TD*%
D14*
%TO.C,C14*%
X231500000Y-91980000D03*
X229425000Y-91980000D03*
%TD*%
D19*
%TO.C,R12*%
X164700000Y-93750000D03*
X170800000Y-93750000D03*
%TD*%
D25*
%TO.C,C2*%
X152500000Y-65712500D03*
X152500000Y-67787500D03*
%TD*%
D29*
%TO.C,C8*%
X275800000Y-74500000D03*
D28*
X273300000Y-74500000D03*
%TD*%
D22*
%TO.C,H1*%
X165000000Y-57500000D03*
%TD*%
D16*
%TO.C,J4*%
X276500000Y-58500000D03*
X263800000Y-58500000D03*
D17*
X273720000Y-62820000D03*
X272700000Y-61040000D03*
X271680000Y-62820000D03*
X270660000Y-61040000D03*
X269640000Y-62820000D03*
X268620000Y-61040000D03*
X267600000Y-62820000D03*
X266580000Y-61040000D03*
%TD*%
D24*
%TO.C,D1*%
X172350000Y-73500000D03*
X175150000Y-73500000D03*
%TD*%
D10*
%TO.C,R8*%
X197750000Y-84050000D03*
X197750000Y-77950000D03*
%TD*%
D22*
%TO.C,H4*%
X251000000Y-85750000D03*
%TD*%
D14*
%TO.C,C11*%
X217287500Y-94750000D03*
X215212500Y-94750000D03*
%TD*%
D24*
%TO.C,D8*%
X235250000Y-92310000D03*
X235250000Y-95110000D03*
%TD*%
%TO.C,D7*%
X248700000Y-68200000D03*
X251500000Y-68200000D03*
%TD*%
D21*
%TO.C,C13*%
X210712500Y-94750000D03*
X212787500Y-94750000D03*
%TD*%
M02*
